<svg xmlns="http://www.w3.org/2000/svg" xmlns:xlink="http://www.w3.org/1999/xlink" width="1920" height="250" viewBox="0 0 1920 250">
  <defs>
    <clipPath id="clip-path">
      <rect id="Rectangle_10" data-name="Rectangle 10" width="309.901" height="204.042" fill="none"/>
    </clipPath>
    <clipPath id="clip-path-2">
      <rect id="Rectangle_9" data-name="Rectangle 9" width="309.902" height="204.042" fill="none"/>
    </clipPath>
    <clipPath id="clip-path-3">
      <rect id="Rectangle_1" data-name="Rectangle 1" width="2.882" height="4.234" fill="none"/>
    </clipPath>
    <clipPath id="clip-path-4">
      <rect id="Rectangle_2" data-name="Rectangle 2" width="2.609" height="4.267" fill="none"/>
    </clipPath>
    <clipPath id="clip-path-5">
      <rect id="Rectangle_4" data-name="Rectangle 4" width="3.231" height="4.594" fill="none"/>
    </clipPath>
    <clipPath id="clip-path-6">
      <rect id="Rectangle_5" data-name="Rectangle 5" width="2.978" height="4.608" fill="none"/>
    </clipPath>
    <clipPath id="clip-path-7">
      <rect id="Rectangle_6" data-name="Rectangle 6" width="2.101" height="2.26" fill="none"/>
    </clipPath>
    <clipPath id="clip-path-8">
      <rect id="Rectangle_7" data-name="Rectangle 7" width="3.029" height="4.232" fill="none"/>
    </clipPath>
    <clipPath id="clip-path-9">
      <rect id="Rectangle_8" data-name="Rectangle 8" width="2.767" height="4.098" fill="none"/>
    </clipPath>
    <clipPath id="clip-Web_1920_1">
      <rect width="1920" height="250"/>
    </clipPath>
  </defs>
  <g id="Web_1920_1" data-name="Web 1920 – 1" clip-path="url(#clip-Web_1920_1)">
    <rect width="1920" height="250" fill="#fff"/>
    <g id="Groupe_25" data-name="Groupe 25" transform="translate(805 45.691)">
      <g id="Groupe_24" data-name="Groupe 24" clip-path="url(#clip-path)">
        <g id="Groupe_23" data-name="Groupe 23" transform="translate(0 0)">
          <g id="Groupe_22" data-name="Groupe 22" clip-path="url(#clip-path-2)">
            <path id="Tracé_1" data-name="Tracé 1" d="M1131.395,559.237c-10.456,3.9-6.294,19.982-19.035,18.734-10.777-1.061-11.792-1.894-14.959,1.625a17.173,17.173,0,0,0-2.679,4.036,10.141,10.141,0,0,1-5.664,5.416c-18.813,6.186-49.346-18.535-31.487-37.187,1.29-1.347,3.343-2.091,5.633-2.8,12.426-3.827,17.233,1.435,25.076-15s24.554,3.076,32.97,1.084,15.559-5.638,23.512,2.433-2.908,17.762-13.366,21.656" transform="translate(-851.831 -427.003)" fill="#eaeaea"/>
            <path id="Tracé_2" data-name="Tracé 2" d="M1126.578,624.886l-.493-.544c.24-.217,24.631-21.851,80.425-31.271l.123.724c-55.584,9.385-79.816,30.875-80.054,31.091" transform="translate(-911.677 -480.149)" fill="#fff"/>
            <path id="Tracé_3" data-name="Tracé 3" d="M1250.535,572.726c-8.347-5.576-10.411-10.663-10.495-10.877l.683-.268c.02.051,2.086,5.1,10.22,10.535Z" transform="translate(-1003.935 -454.655)" fill="#fff"/>
            <path id="Tracé_4" data-name="Tracé 4" d="M1297.291,556.482c-2.6-3.356-3.171-8.653-1.64-15.32a49.073,49.073,0,0,1,3.1-9.1l.661.317c-.076.158-7.533,15.934-1.545,23.651Z" transform="translate(-1048.276 -430.759)" fill="#fff"/>
            <path id="Tracé_5" data-name="Tracé 5" d="M221.915,233.387c-2.16,1.641-3.322,1.431-3.962.57s-.518-2.048,1.642-3.69c3.934-2.99,7-2.875,7-2.875s-.684,2.962-4.676,6" transform="translate(-176.179 -184.095)" fill="#d5d6da"/>
            <path id="Tracé_6" data-name="Tracé 6" d="M136.966,336.352l-.513.012c0-.08-.288-8.134-4.292-19.529a101.67,101.67,0,0,0-27.129-40.666l.345-.382a102.186,102.186,0,0,1,27.275,40.9c4.025,11.467,4.311,19.585,4.314,19.666" transform="translate(-85.035 -223.276)" fill="#d5d6da"/>
            <path id="Tracé_7" data-name="Tracé 7" d="M188.214,221.471l-.461-.23c8.141-16.9-.091-35.39-.175-35.575l.465-.215c.085.187,8.421,18.891.171,36.02" transform="translate(-151.862 -150.141)" fill="#d5d6da"/>
            <path id="Tracé_8" data-name="Tracé 8" d="M105.439,326.309a18.027,18.027,0,0,1-9.433-1.628l.235-.46a17.06,17.06,0,0,0,11.448,1.12l.141.5a14.842,14.842,0,0,1-2.391.468" transform="translate(-77.726 -262.488)" fill="#d5d6da"/>
            <path id="Tracé_9" data-name="Tracé 9" d="M62.531,244.791c2.98,2.16,3.368,3.51,2.754,4.383s-2,.938-4.978-1.221c-5.428-3.934-6.939-7.417-6.939-7.417s3.656.263,9.163,4.255" transform="translate(-43.207 -194.737)" fill="#d5d6da"/>
            <path id="Tracé_10" data-name="Tracé 10" d="M59.7,310.941c3.478,1.153,4.25,2.325,3.925,3.347s-1.622,1.507-5.1.353c-6.336-2.1-8.81-4.967-8.81-4.967s3.557-.865,9.986,1.267" transform="translate(-40.25 -250.571)" fill="#d5d6da"/>
            <path id="Tracé_11" data-name="Tracé 11" d="M148.367,261.992c.922,2.586.386,3.646-.612,4.005s-2.082-.119-3-2.7c-1.679-4.71-.682-7.637-.682-7.637s2.594,1.557,4.3,6.336" transform="translate(-116.4 -206.978)" fill="#d5d6da"/>
            <path id="Tracé_12" data-name="Tracé 12" d="M171.813,136.653c1.26,3.481.827,4.811-.169,5.176s-2.179-.375-3.44-3.856c-2.3-6.341-1.6-10.065-1.6-10.065s2.88,2.312,5.21,8.745" transform="translate(-134.802 -103.554)" fill="#d5d6da"/>
            <path id="Tracé_13" data-name="Tracé 13" d="M298.079,360.454s-41.937-68.472-59.925-56.25,38.178,39.577,49.76,59.9Z" transform="translate(-189.957 -245.1)" fill="#d5d6da"/>
            <path id="Tracé_14" data-name="Tracé 14" d="M137.817,422.34S82.709,364.347,64.1,381.2s47.419,29.965,62.81,47.4Z" transform="translate(-49.237 -306.13)" fill="#d5d6da"/>
            <path id="Tracé_15" data-name="Tracé 15" d="M183.868,466.583c-10.412-12.236-25.808-21.8-36.89-27.677a190.243,190.243,0,0,0-21.778-9.913l.216-.608a190.947,190.947,0,0,1,21.86,9.949c11.131,5.9,26.6,15.514,37.077,27.828Z" transform="translate(-101.362 -346.82)" fill="#fff"/>
            <path id="Tracé_16" data-name="Tracé 16" d="M110.8,572.335c-6.516,14.132-18.624,17.639-28.18,17.242-12.042.118-17.475-5.027-19.439-7.607a20.006,20.006,0,0,0-3.5-3.6c-3.994-3.154-4.914-2.075-16.1,1.087-9.488,2.677-11.436-5.8-16.123-11.605-.085-.106-.172-.211-.259-.316a12.046,12.046,0,0,0-7.183-4.469,39.276,39.276,0,0,1-9.947-3.266q-.386-.187-.765-.387c-6.167-3.221-10.576-8.057-8.981-13.667.037-.133.078-.266.123-.4A11.572,11.572,0,0,1,1.9,542.493c6.908-10.105,15.125-7.564,24.382-7.025,5.118.3,11.7-6.892,18.471-10.669.1-.054.195-.108.292-.161,5.386-2.92,10.883-3.589,15.857,3.459,0,0,0,0,0,0l.3.424c11.092,15.507,15.246,9.122,28.954,10.845,2.549.322,4.856.729,6.468,1.923,15.023,11.127,27.187,21.275,14.176,31.043" transform="translate(0 -423.059)" fill="#eaeaea"/>
            <path id="Tracé_17" data-name="Tracé 17" d="M92.013,661.109l.42-.673c-.293-.187-30.053-18.66-90.72-18.192l0,.8c60.439-.466,90,17.884,90.3,18.07" transform="translate(-1.387 -519.952)" fill="#fff"/>
            <path id="Tracé_18" data-name="Tracé 18" d="M271.942,564.987c7.785-7.519,9.025-13.333,9.074-13.577l-.771-.157c-.012.057-1.26,5.833-8.846,13.16Z" transform="translate(-219.723 -446.293)" fill="#fff"/>
            <path id="Tracé_19" data-name="Tracé 19" d="M239.807,559.088c2.13-4.069,1.75-9.825-1.1-16.645a53.144,53.144,0,0,0-4.959-9.117l-.64.463c.109.155,10.9,15.572,6,24.929Z" transform="translate(-188.724 -431.78)" fill="#fff"/>
            <path id="Tracé_20" data-name="Tracé 20" d="M74.671,655.772c.928-.834,1.427-1.373,1.45-1.4l-.579-.538c-.1.115-10.629,11.452-26.649,11.467v.794c12.908-.011,22.319-7.218,25.778-10.326" transform="translate(-39.584 -529.344)" fill="#fff"/>
            <path id="Tracé_21" data-name="Tracé 21" d="M143.237,693.257a18.889,18.889,0,0,0,4.607-11.108,14.01,14.01,0,0,0-.534-5.009l-.742.266c.026.075,2.537,7.594-3.932,15.339Z" transform="translate(-115.477 -548.211)" fill="#fff"/>
            <path id="Tracé_22" data-name="Tracé 22" d="M105.423,536.4c-2.688-.342-3.377-1.307-3.24-2.373s1.048-1.829,3.736-1.487c4.9.622,7.016,2.853,7.016,2.853s-2.544,1.638-7.512,1.007" transform="translate(-82.714 -431.078)" fill="#d5d6da"/>
            <path id="Tracé_23" data-name="Tracé 23" d="M414.009,456.292H267.586a4.78,4.78,0,0,1-4.561-3.348l-29.56-94.129a7.663,7.663,0,0,1,7.311-9.959H374.032a8.5,8.5,0,0,1,8.107,5.952Z" transform="translate(-188.724 -282.433)" fill="#364154"/>
            <path id="Tracé_24" data-name="Tracé 24" d="M437.934,480.6H299.821l-29.782-94.835a3.179,3.179,0,0,1,3.033-4.132H403.33A4.8,4.8,0,0,1,407.91,385Z" transform="translate(-218.503 -308.971)" fill="#d5d6da"/>
            <path id="Tracé_25" data-name="Tracé 25" d="M412.851,883.44H627.48v-6.979H408.492Z" transform="translate(-330.715 -709.581)" fill="#364154"/>
            <path id="Tracé_26" data-name="Tracé 26" d="M946.724,883.44h123.039a2.49,2.49,0,0,0,2.141-2.731v-1.517a2.49,2.49,0,0,0-2.141-2.731H947.029a2.31,2.31,0,0,0-2.073,2.053l-.3,1.517c-.347,1.727.676,3.408,2.073,3.408" transform="translate(-764.733 -709.581)" fill="#364154"/>
            <path id="Tracé_27" data-name="Tracé 27" d="M497.94,467.735a11.759,11.759,0,0,1-1.685,4.533c-.807,1.009-3.034,3.007-1.45,3.673,1.265.532,3.7-1.835,4.491-2.424s1.983-1.7,1.719-2.653a15.37,15.37,0,0,1-.367-4.441Z" transform="translate(-400.144 -377.613)" fill="#131f2d"/>
            <path id="Tracé_28" data-name="Tracé 28" d="M556.252,451.852a11.763,11.763,0,0,1,0,4.836c-.406,1.227-1.8,3.874-.083,3.948,1.371.059,2.832-3.008,3.368-3.834s1.267-2.287.689-3.085a15.379,15.379,0,0,1-1.888-4.037Z" transform="translate(-449.594 -364.059)" fill="#131f2d"/>
            <path id="Tracé_29" data-name="Tracé 29" d="M493.761,325.692c-16.419-10.952-15.608-20.547-13.333-24.3a20.3,20.3,0,0,1,13.239-9.341,35.53,35.53,0,0,1,4.7-.783,3.284,3.284,0,0,1,3.613,3.353l-.147,5.588h.012c-2.74-.057-11.051.778-13.229,5.207-.453.921,10.6,13.9,10.187,16.231-.467,2.635-3.435,5.114-5.04,4.043" transform="translate(-387.96 -235.797)" fill="#1e2059"/>
            <path id="Tracé_30" data-name="Tracé 30" d="M508.25,330.656a3.271,3.271,0,0,1-3.283-3.461c.248-4.191,1.026-11.323,3.466-16.712a23.052,23.052,0,0,1,6.54-8.259,36.59,36.59,0,0,1,7.928-4.856,18.8,18.8,0,0,1,8.674-2l2.756,4.064c-.036.007.773,4.1-5.053,7.748-3.214,2.013-9.677,3.243-12.335,8.446-1.9,3.714-2.623,8.639-2.864,12.08a3.155,3.155,0,0,1-3.133,2.931Z" transform="translate(-408.816 -239.121)" fill="#1e2059"/>
            <path id="Tracé_31" data-name="Tracé 31" d="M522.16,219.788a36.2,36.2,0,0,0-4.6,12.934c-.8,5.111,8.5-.839,8.5-.839l.414-10.677Z" transform="translate(-418.976 -177.94)" fill="#ffb27d"/>
            <path id="Tracé_32" data-name="Tracé 32" d="M557.193,190.229s-2.58-4.409-8.526-3.056-8.369,7.426-8.795,22.011c0,0,3.571,6.319,19.816,5.087,1.8-.137,4.379-.375,3.5-3.293-1.635-5.425-3.219-16.246-5.994-20.749" transform="translate(-437.08 -151.326)" fill="#fef218"/>
            <path id="Tracé_33" data-name="Tracé 33" d="M562.981,190.713l-6.116,1.15s-10.7,3.163-13.689,3.188a4.848,4.848,0,0,1-4.233-2.165,15.839,15.839,0,0,1,7.476-6.033,14.7,14.7,0,0,1,1.5-.483,11,11,0,0,1,2.66-.446c10.1-.116,12.408,4.789,12.408,4.789" transform="translate(-436.327 -150.522)" fill="#fef218"/>
            <path id="Tracé_34" data-name="Tracé 34" d="M638.766,209.608c.132.482-1.15,1.287-2.864,1.8s-3.211.533-3.343.051,1.15-1.287,2.864-1.8,3.211-.533,3.343-.051" transform="translate(-512.112 -169.417)" fill="#131f2d"/>
            <path id="Tracé_35" data-name="Tracé 35" d="M603.415,225.652a15.231,15.231,0,0,1-13.225,6.535l.579-4.363c4.216-.768,7.449-3.513,8.051-5.826a18.779,18.779,0,0,0,.135-7.866.549.549,0,0,1,.208-.529,7.441,7.441,0,0,1,4.432-1.3.483.483,0,0,1,.476.359c1.044,3.933,1.675,9.338-.656,12.991" transform="translate(-477.817 -171.879)" fill="#ffb27d"/>
            <path id="Tracé_36" data-name="Tracé 36" d="M642.173,279.658a.647.647,0,0,1-.257-.052,1.051,1.051,0,0,1-.333-1.407,1.339,1.339,0,0,1,.686-.728.71.71,0,0,1,.553-.008,1.051,1.051,0,0,1,.333,1.407,1.338,1.338,0,0,1-.686.728.79.79,0,0,1-.3.061m.391-2.142a.685.685,0,0,0-.257.053,1.233,1.233,0,0,0-.628.671.951.951,0,0,0,.278,1.27.606.606,0,0,0,.473-.009,1.234,1.234,0,0,0,.628-.671.951.951,0,0,0-.278-1.27.545.545,0,0,0-.216-.044m.542,1.334h0Z" transform="translate(-519.327 -224.591)" fill="#e9845c"/>
            <path id="Tracé_37" data-name="Tracé 37" d="M563.574,290.373s-3.905-1.242-5.147-.655-2.383,2.276-1.536,2.076a9.047,9.047,0,0,0,1.858-.756s-2.1,1.288-1.59,1.65,2.334-.776,2.334-.776-2.382,1.732-1.786,1.917,2.4-1.145,2.4-1.145-2.152,1.7-1.454,1.9,1.769-1.417,2.284-1.055,1.827,2.023,3.007.716Z" transform="translate(-450.622 -234.427)" fill="#ffb27d"/>
            <path id="Tracé_38" data-name="Tracé 38" d="M567.787,295.621l-.065-.078c.023-.019.569-.472,1-.348l-.028.1c-.383-.109-.906.324-.911.329" transform="translate(-459.627 -238.972)" fill="#e9845c"/>
            <path id="Tracé_39" data-name="Tracé 39" d="M571.691,300l-.067-.076a1.784,1.784,0,0,1,1.18-.417l-.008.1a1.7,1.7,0,0,0-1.106.392" transform="translate(-462.786 -242.473)" fill="#e9845c"/>
            <path id="Tracé_40" data-name="Tracé 40" d="M574.9,304.043l-.065-.077c.027-.023.672-.559,1.124-.388l-.036.095c-.4-.15-1.017.366-1.023.371" transform="translate(-465.388 -245.748)" fill="#e9845c"/>
            <path id="Tracé_41" data-name="Tracé 41" d="M501.058,287.509H488.521a.609.609,0,0,1-.578-.414l-2.605-7.781a.606.606,0,0,1,.578-.8h12.057a1.275,1.275,0,0,1,1.211.867l2.454,7.328a.606.606,0,0,1-.578.8" transform="translate(-392.903 -225.487)" fill="#131f2d"/>
            <path id="Tracé_42" data-name="Tracé 42" d="M496.926,287.509H484.389a.61.61,0,0,1-.579-.414l-2.605-7.781a.606.606,0,0,1,.578-.8H493.84a1.275,1.275,0,0,1,1.211.867l2.454,7.328a.606.606,0,0,1-.578.8" transform="translate(-389.558 -225.487)" fill="#131f2d"/>
            <path id="Tracé_43" data-name="Tracé 43" d="M517.769,299.023c0-.3.341-.416.638-.416a.852.852,0,0,1,.78.738c0,.447-.352.5-.65.5a.984.984,0,0,1-.768-.827" transform="translate(-419.185 -241.751)" fill="#daebe8"/>
            <path id="Tracé_44" data-name="Tracé 44" d="M515.18,319.965H498.028v1.1h17.511a.371.371,0,0,0,.371-.371.729.729,0,0,0-.729-.729" transform="translate(-403.203 -259.043)" fill="#131f2d"/>
            <path id="Tracé_45" data-name="Tracé 45" d="M551.142,282.284a21.919,21.919,0,0,0-1.02-3.047,1.7,1.7,0,0,0-.881-.848l.022-.079a1.742,1.742,0,0,1,.931.887,21.438,21.438,0,0,1,1.027,3.065Z" transform="translate(-444.665 -225.32)" fill="#366f90"/>
            <path id="Tracé_46" data-name="Tracé 46" d="M562.3,306.723c-.465,0-.58-.206-.585-.214l-.98-2.924.077-.026.977,2.918h0s.106.165.511.165Z" transform="translate(-453.97 -245.76)" fill="#366f90"/>
            <path id="Tracé_47" data-name="Tracé 47" d="M507.836,349.756l-.1-.007a46.07,46.07,0,0,1,1.423-8.029c1.071-3.919,3.15-9.07,6.97-11.356l.052.087c-3.791,2.269-5.858,7.395-6.924,11.3a45.968,45.968,0,0,0-1.42,8.009" transform="translate(-411.062 -267.463)" fill="#020202"/>
            <path id="Tracé_48" data-name="Tracé 48" d="M551.788,425.461h-.1a29.753,29.753,0,0,1,1.969-10.385l.093.04a29.641,29.641,0,0,0-1.961,10.346" transform="translate(-446.645 -336.044)" fill="#020202"/>
            <path id="Tracé_49" data-name="Tracé 49" d="M564.288,162.02a1.772,1.772,0,0,1-1.172-.781,1.2,1.2,0,0,1,.137-1.111c.105-.188.2-.357.292-.513.62-1.08.828-1.443.623-2.261l.074-.019c.213.848-.017,1.248-.631,2.318-.089.155-.186.325-.292.512a1.126,1.126,0,0,0-.134,1.041,1.729,1.729,0,0,0,1.118.738Z" transform="translate(-455.83 -127.378)" fill="#131f2d"/>
            <path id="Tracé_50" data-name="Tracé 50" d="M565.873,157.384a3.9,3.9,0,0,1-.479,2.731c-.823,1.42.171,2.395,1.338,1.815s1.679.917,3.165.021-4.024-4.568-4.024-4.568" transform="translate(-457.498 -127.417)" fill="#131f2d"/>
            <path id="Tracé_51" data-name="Tracé 51" d="M586.056,157.462l-.886-1.854-.259-.542-1.522-3.187.373,3.349.224,2.01.064.573c.08.694-.927,1.119-.927,1.119-.232.414-.344,1.128.694,1.414,1.219.336,3.221-.81,3.876-1.961,0,0-1.351-.322-1.638-.921" transform="translate(-471.97 -122.961)" fill="#ffb27d"/>
            <path id="Tracé_52" data-name="Tracé 52" d="M588.55,168.882c0,.019,0,.037,0,.056a2.132,2.132,0,0,1-1.176,1.637l-.007-.006-.224-2.01a1.722,1.722,0,0,1,1.149-.163.474.474,0,0,1,.26.486" transform="translate(-475.349 -136.291)" fill="#131f2d"/>
            <path id="Tracé_53" data-name="Tracé 53" d="M567.9,138.292c-.084-2.15,1.261-3.949,3-4.017s3.224,1.62,3.308,3.77-1.26,3.949-3,4.017-3.224-1.62-3.308-3.77" transform="translate(-459.767 -108.707)" fill="#ffb27d"/>
            <path id="Tracé_54" data-name="Tracé 54" d="M593.511,151.515a.776.776,0,0,1-1.113.122.868.868,0,0,1,.133-1.165.776.776,0,0,1,1.113-.122.868.868,0,0,1-.133,1.165" transform="translate(-479.467 -121.573)" fill="#ffb27d"/>
            <path id="Tracé_55" data-name="Tracé 55" d="M576.081,166.45a6.855,6.855,0,0,0,2.142-.438,1.052,1.052,0,0,1-1.034,1.176c-.677.068-1.108-.738-1.108-.738" transform="translate(-466.394 -134.403)" fill="#e9633e"/>
            <path id="Tracé_56" data-name="Tracé 56" d="M576.081,166.45a1.411,1.411,0,0,0,.878.18,2.526,2.526,0,0,0,1.264-.618,10.313,10.313,0,0,1-2.142.438" transform="translate(-466.394 -134.403)" fill="#fff"/>
            <path id="Tracé_57" data-name="Tracé 57" d="M582.657,154.041a.072.072,0,0,1-.013-.136.778.778,0,0,1,.937.171.073.073,0,0,1,0,.1.079.079,0,0,1-.1,0,1.23,1.23,0,0,0-.778-.143.071.071,0,0,1-.045,0" transform="translate(-471.673 -124.53)" fill="#080435"/>
            <path id="Tracé_58" data-name="Tracé 58" d="M584.124,157.768c.012.171-.079.317-.2.326s-.234-.123-.247-.294.079-.317.2-.325.235.123.247.294" transform="translate(-472.541 -127.49)" fill="#080435"/>
            <path id="Tracé_59" data-name="Tracé 59" d="M569.158,155.8a.072.072,0,0,1-.064-.12.777.777,0,0,1,.932-.2.072.072,0,0,1,.04.093.079.079,0,0,1-.093.04,1.23,1.23,0,0,0-.774.165.071.071,0,0,1-.04.021" transform="translate(-460.722 -125.818)" fill="#080435"/>
            <path id="Tracé_60" data-name="Tracé 60" d="M572.059,159.178a.278.278,0,0,1-.063.378c-.111.055-.263-.024-.34-.178a.279.279,0,0,1,.063-.378c.111-.055.263.024.34.178" transform="translate(-462.777 -128.712)" fill="#080435"/>
            <path id="Tracé_61" data-name="Tracé 61" d="M567.763,129.166a1.813,1.813,0,0,0,1.817,1.513c1.7.164,2.887.833,2.708,2.057s-2.8,3.852-.763,4.75,1.54-.906,3.723-.568,2.461-2.571.9-4.192-1.127-6.088-6.714-5.672-3.362,4.8-3.362,4.8,1.749-1.195,1.687-2.686" transform="translate(-457.94 -102.84)" fill="#131f2d"/>
            <path id="Tracé_62" data-name="Tracé 62" d="M581.611,144.313a1.174,1.174,0,0,1-.8-.722c-.281-.9.721-2.306,1.605-3.55.233-.327.453-.637.647-.931a2.083,2.083,0,0,0,.036-2.442,2.428,2.428,0,0,0-2.692-.779,2.767,2.767,0,0,1-3.034-.683l.037-.027a2.724,2.724,0,0,0,2.985.666,2.472,2.472,0,0,1,2.741.8,2.153,2.153,0,0,1-.035,2.493c-.194.3-.414.6-.647.933-.878,1.235-1.873,2.635-1.6,3.51a1.117,1.117,0,0,0,.77.693Z" transform="translate(-467.44 -109.44)" fill="#fff"/>
            <path id="Tracé_63" data-name="Tracé 63" d="M563.545,151.967a2.113,2.113,0,0,1-1.169-1.357,2.582,2.582,0,0,1,.459-2.859.9.9,0,0,1,.817-.113,2.113,2.113,0,0,1,1.169,1.355,2.587,2.587,0,0,1-.459,2.862.9.9,0,0,1-.477.161.99.99,0,0,1-.339-.048m1.144-2.925a1.974,1.974,0,0,0-1.08-1.271.781.781,0,0,0-.694.094,2.447,2.447,0,0,0-.406,2.7,1.979,1.979,0,0,0,1.08,1.271.786.786,0,0,0,.694-.094,2.449,2.449,0,0,0,.407-2.7" transform="translate(-455.129 -119.486)" fill="#764678"/>
            <g id="Groupe_3" data-name="Groupe 3" transform="translate(110.536 27.209)" opacity="0.3">
              <g id="Groupe_2" data-name="Groupe 2">
                <g id="Groupe_1" data-name="Groupe 1" clip-path="url(#clip-path-3)">
                  <path id="Tracé_64" data-name="Tracé 64" d="M583.321,144.315a2.42,2.42,0,0,1-.8,2.7c-.738.39-1.577-.187-1.874-1.288a2.42,2.42,0,0,1,.8-2.7c.738-.39,1.577.187,1.874,1.289" transform="translate(-580.543 -142.904)" fill="#fff"/>
                </g>
              </g>
            </g>
            <g id="Groupe_6" data-name="Groupe 6" transform="translate(107.233 28.195)" opacity="0.3">
              <g id="Groupe_5" data-name="Groupe 5">
                <g id="Groupe_4" data-name="Groupe 4" clip-path="url(#clip-path-4)">
                  <path id="Tracé_65" data-name="Tracé 65" d="M565.69,149.481a2.588,2.588,0,0,1-.649,2.734c-.656.4-1.429-.167-1.727-1.274a2.588,2.588,0,0,1,.649-2.734c.656-.4,1.429.167,1.727,1.274" transform="translate(-563.197 -148.078)" fill="#fff"/>
                </g>
              </g>
            </g>
            <path id="Tracé_66" data-name="Tracé 66" d="M580.383,145.855a2.086,2.086,0,0,1-1.073-1.419,2.572,2.572,0,0,1,.891-2.9,1.16,1.16,0,0,1,1.025-.032,2.085,2.085,0,0,1,1.07,1.418,2.567,2.567,0,0,1-.891,2.9,1.155,1.155,0,0,1-.5.137,1.2,1.2,0,0,1-.523-.1m-.118-4.195a2.434,2.434,0,0,0-.82,2.738,1.981,1.981,0,0,0,1,1.329,1.048,1.048,0,0,0,.9-.029,2.431,2.431,0,0,0,.82-2.738,1.982,1.982,0,0,0-.992-1.327,1.022,1.022,0,0,0-.9.027" transform="translate(-468.918 -114.478)" fill="#764678"/>
            <path id="Tracé_67" data-name="Tracé 67" d="M575.013,155.458a.13.13,0,0,0,.082-.034,1.184,1.184,0,0,1,.934-.2.136.136,0,0,0,.15-.109.129.129,0,0,0-.109-.148,1.415,1.415,0,0,0-1.15.265.132.132,0,0,0-.009.185.127.127,0,0,0,.1.045" transform="translate(-465.419 -125.439)" fill="#764678"/>
            <path id="Tracé_68" data-name="Tracé 68" d="M593.744,658.091h0a5.56,5.56,0,0,1-7.071-3.434l-11.55-33.348a5.559,5.559,0,1,1,10.507-3.639l11.55,33.348a5.56,5.56,0,0,1-3.436,7.073" transform="translate(-465.369 -497.035)" fill="#016eb9"/>
            <path id="Tracé_69" data-name="Tracé 69" d="M615.251,197.823s36.668-30.2,49.252-69.343l48.708,121.879s-56.278-26.472-87.727-26.149c0,0-9.432-2.7-12.079-11.26-2.853-9.228,1.845-15.127,1.845-15.127" transform="translate(-495.868 -104.017)" fill="#00a4ff"/>
            <path id="Tracé_70" data-name="Tracé 70" d="M884.255,149.628c14.205,36.627,37.163,61.887,51.277,56.42s14.04-39.592-.166-76.219S898.2,67.942,884.089,73.409s-14.04,39.592.166,76.219" transform="translate(-707.226 -58.829)" fill="#016eb9"/>
            <path id="Tracé_71" data-name="Tracé 71" d="M947.923,222.723c-5.364,0-12.014-4.417-19.122-12.8-8.526-10.053-16.726-24.627-23.091-41.038s-10.135-32.7-10.616-45.87c-.484-13.262,2.438-21.8,8.229-24.044s13.708,2.1,22.294,12.222c8.526,10.053,16.726,24.627,23.091,41.038s10.135,32.7,10.616,45.87c.484,13.262-2.438,21.8-8.229,24.044a8.719,8.719,0,0,1-3.172.577M906.493,98.929a8.174,8.174,0,0,0-2.977.542c-2.79,1.081-4.891,3.724-6.244,7.857-1.322,4.039-1.875,9.311-1.643,15.668.479,13.111,4.236,29.339,10.58,45.7s14.512,30.877,23,40.885c4.116,4.853,8.08,8.376,11.781,10.469,3.787,2.142,7.122,2.681,9.912,1.6s4.891-3.724,6.244-7.857c1.322-4.039,1.875-9.311,1.643-15.668-.479-13.11-4.236-29.339-10.58-45.7s-14.512-30.877-23-40.885c-4.116-4.853-8.079-8.376-11.78-10.469a14.336,14.336,0,0,0-6.935-2.142" transform="translate(-724.625 -79.66)" fill="#131f2d"/>
            <path id="Tracé_72" data-name="Tracé 72" d="M965.351,365.913l23.422-2.162a6.652,6.652,0,0,1,6.947,4.2l1.824,4.7a7.842,7.842,0,0,1-2.756,9.218l-19.767,14.118s-14.371-11.836-9.67-30.079" transform="translate(-780.782 -294.458)" fill="#00a3fe"/>
            <path id="Tracé_73" data-name="Tracé 73" d="M1088.369,381.46a15.251,15.251,0,0,1-7.506-8.8,10.38,10.38,0,0,1-.16-7.342,6.318,6.318,0,0,1,1.588-2.411l.326.389a5.956,5.956,0,0,0-1.453,2.237,9.9,9.9,0,0,0,.179,6.961,14.7,14.7,0,0,0,7.225,8.5Z" transform="translate(-874.462 -293.809)" fill="#131f2d"/>
            <path id="Tracé_74" data-name="Tracé 74" d="M539.7,492.673l-16.545,9.714a8.067,8.067,0,0,0-3.44,9.874l2.584,6.662a8.075,8.075,0,0,0,9.584,4.886l18.051-4.748s-5.869-1.43-9.572-11.581a24.963,24.963,0,0,1-.662-14.806" transform="translate(-420.319 -398.867)" fill="#00a3fe"/>
            <path id="Tracé_75" data-name="Tracé 75" d="M635.637,518.236a.252.252,0,0,1-.162-.058,29.176,29.176,0,0,1-9.805-17.153,33.67,33.67,0,0,1-.519-9.461.254.254,0,0,1,.5.063,33.149,33.149,0,0,0,.517,9.319,28.67,28.67,0,0,0,9.627,16.841.254.254,0,0,1-.162.449" transform="translate(-506.02 -397.789)" fill="#131f2d"/>
            <path id="Tracé_76" data-name="Tracé 76" d="M704.308,470.577a.253.253,0,0,1-.166-.062,57.019,57.019,0,0,1-12.5-14.864,40.44,40.44,0,0,1-4.733-13.006,29.649,29.649,0,0,1,.3-12.741.254.254,0,0,1,.484.153,29.156,29.156,0,0,0-.28,12.532,39.951,39.951,0,0,0,4.68,12.831,56.535,56.535,0,0,0,12.379,14.712.254.254,0,0,1-.166.445" transform="translate(-555.706 -347.905)" fill="#131f2d"/>
            <path id="Tracé_77" data-name="Tracé 77" d="M754.327,809.271c-.462.824-5.108,8.02-4.136,15.058l5.057-1.828,2.31-9.487Z" transform="translate(-607.246 -655.184)" fill="#ffb27d"/>
            <path id="Tracé_78" data-name="Tracé 78" d="M789.948,775.5s-3.107-5.572-10.669-4.031-11.689,12.364-9.638,33.8a49.18,49.18,0,0,1,27.634-.926s-2.571-20.762-7.328-28.845" transform="translate(-622.677 -624.358)" fill="#fef218"/>
            <path id="Tracé_79" data-name="Tracé 79" d="M789.748,772.137l-5.315,5.306s-13.627,3.682-17.412,3.638a6.082,6.082,0,0,1-5.275-2.81,20.181,20.181,0,0,1,9.658-7.347,18.926,18.926,0,0,1,1.907-.566,19.446,19.446,0,0,1,3.377-.489,33.28,33.28,0,0,1,13.06,2.269" transform="translate(-616.708 -623.251)" fill="#fef218"/>
            <path id="Tracé_80" data-name="Tracé 80" d="M885.792,781.5c.85.923-.461,1.932-1.928,3.4s-2.984,2.32-3.387,1.909.461-1.933,1.928-3.4,3-2.332,3.387-1.908" transform="translate(-712.753 -632.614)" fill="#131f2d"/>
            <path id="Tracé_81" data-name="Tracé 81" d="M884.606,792.424a3.477,3.477,0,0,1,1.253-2.413,8.09,8.09,0,0,1,2.5-1.642.777.777,0,0,1,1.033.436l.426,1.1-1.984,1.277Z" transform="translate(-716.175 -638.211)" fill="#ffb27d"/>
            <path id="Tracé_82" data-name="Tracé 82" d="M809.435,897.346s16.4-8.886,22.276.807c4.351,7.176-2.189,13.859-26.449,13.18,0,0-2.4-1.123-1.814-6.948.231-2.308,5.987-7.039,5.987-7.039" transform="translate(-650.396 -723.478)" fill="#1e2059"/>
            <path id="Tracé_83" data-name="Tracé 83" d="M716.475,891.087s-21.84-8.946-26.161-3.354c-4.966,6.427-.2,17.341,22.817,13.44l2.806-3.047Z" transform="translate(-557.437 -717.218)" fill="#1e2059"/>
            <path id="Tracé_84" data-name="Tracé 84" d="M804.859,931.285c-2.693-1.922-1.841-6.943-1.832-6.993l0-.026.025-.009,16.579-6.034.032.086-16.554,6.025a12.366,12.366,0,0,0-.1,2.716,5.552,5.552,0,0,0,1.9,4.161Z" transform="translate(-650.02 -743.392)" fill="#020202"/>
            <path id="Tracé_85" data-name="Tracé 85" d="M774.01,958.555s-4.025.164-5.916,1.091-.881,3.191,2.958,3.13,3.548-.632,3.548-.632a10.042,10.042,0,0,1-.59-3.589" transform="translate(-621.098 -776.044)" fill="#131f2d"/>
            <path id="Tracé_86" data-name="Tracé 86" d="M808.336,815.65a5.33,5.33,0,0,1-3.316-1.007,4.773,4.773,0,0,1-1.745-4.623l1.6-.933c.08-.44,3.176,1.2,3.17,1.194.014,0,1.478.428,6.552-2.165,3.532-1.805,5.312-4.367,5.442-7.832a8.425,8.425,0,0,0-1.341-4.715c-.037-.085,1.707-1.833,1.657-2.011l1.307-.664c-.042-.15,1.257-.662,1.238-.705l1.009.859a16.823,16.823,0,0,1,1.42,7.438c-.142,3.784-1.7,9.007-8.342,12.4-3.62,1.85-6.46,2.765-8.656,2.765" transform="translate(-650.272 -641.355)" fill="#ffb27d"/>
            <path id="Tracé_87" data-name="Tracé 87" d="M748.9,873.366H734.751a.687.687,0,0,1-.653-.468l-2.941-8.783a.684.684,0,0,1,.653-.9h13.609a1.439,1.439,0,0,1,1.366.979l2.77,8.272a.684.684,0,0,1-.653.9" transform="translate(-591.915 -698.859)" fill="#131f2d"/>
            <path id="Tracé_88" data-name="Tracé 88" d="M744.238,873.366H730.086a.688.688,0,0,1-.653-.468l-2.941-8.783a.684.684,0,0,1,.653-.9h13.609a1.439,1.439,0,0,1,1.367.979l2.77,8.272a.684.684,0,0,1-.653.9" transform="translate(-588.138 -698.859)" fill="#131f2d"/>
            <path id="Tracé_89" data-name="Tracé 89" d="M767.766,886.363c0-.333.385-.469.721-.469a.962.962,0,0,1,.881.833c0,.5-.4.57-.734.57a1.111,1.111,0,0,1-.868-.934" transform="translate(-621.582 -717.218)" fill="#daebe8"/>
            <path id="Tracé_90" data-name="Tracé 90" d="M764.844,910H745.482v1.241h19.766a.418.418,0,0,0,.418-.418.823.823,0,0,0-.823-.823" transform="translate(-603.541 -736.737)" fill="#131f2d"/>
            <path id="Tracé_91" data-name="Tracé 91" d="M805.438,867.469a24.77,24.77,0,0,0-1.151-3.439,1.908,1.908,0,0,0-.995-.957l.024-.089a1.963,1.963,0,0,1,1.05,1,24.2,24.2,0,0,1,1.159,3.46Z" transform="translate(-650.345 -698.67)" fill="#366f90"/>
            <path id="Tracé_92" data-name="Tracé 92" d="M818.034,895.054c-.525,0-.655-.232-.66-.242l-1.106-3.3.087-.029,1.1,3.294s.12.187.577.187Z" transform="translate(-660.849 -721.742)" fill="#366f90"/>
            <path id="Tracé_93" data-name="Tracé 93" d="M894.938,865.4a.446.446,0,0,1-.228-.059c-.346-.2-.337-.851.022-1.478a1.645,1.645,0,0,1,.874-.8.5.5,0,0,1,.385.037c.346.2.337.851-.022,1.478a1.643,1.643,0,0,1-.874.8.606.606,0,0,1-.157.022m.825-2.172a.427.427,0,0,0-.11.016,1.484,1.484,0,0,0-.762.71c-.3.521-.338,1.083-.089,1.228a.315.315,0,0,0,.245.019,1.485,1.485,0,0,0,.762-.71c.3-.52.338-1.083.089-1.228a.266.266,0,0,0-.135-.034" transform="translate(-724.151 -698.719)" fill="#ec865c"/>
            <path id="Tracé_94" data-name="Tracé 94" d="M810.477,741.913a2.642,2.642,0,0,1-2.17-.752l-1.655-1.947-.482-.567-2.833-3.333,1.488,3.9.893,2.339.283.74c.192.5-.062.737-.24,1.325-.072.238-.561,1.7.711,1.713,1.585.012,3.589-1.83,4.029-3.421a.115.115,0,0,1-.024,0" transform="translate(-650.38 -595.309)" fill="#ffb27d"/>
            <path id="Tracé_95" data-name="Tracé 95" d="M819.212,723.259s3.119-3,1.32-5.529-2.249,4.061-2.249,4.061l.5,1.523Z" transform="translate(-662.481 -580.605)" fill="#131f2d"/>
            <path id="Tracé_96" data-name="Tracé 96" d="M812.962,753.285c.006.022.011.045.016.067a2.672,2.672,0,0,1-.923,2.341l-.01,0-.893-2.339a2.2,2.2,0,0,1,1.345-.564.58.58,0,0,1,.466.5" transform="translate(-656.707 -609.447)" fill="#131f2d"/>
            <path id="Tracé_97" data-name="Tracé 97" d="M785.016,723.749c-.7-2.343.286-4.72,2.211-5.309s4.055.833,4.758,3.176-.286,4.72-2.211,5.309-4.055-.833-4.758-3.176" transform="translate(-635.364 -581.54)" fill="#ffb27d"/>
            <path id="Tracé_98" data-name="Tracé 98" d="M778.8,712.17a1.661,1.661,0,0,1-1.826.112c-.833-.61-1.422-1.189-3.286-.251s-3.905.517-4.282-.54.511-1.866,1.682-1.813-.248-.59.567-1.7,2.881.034,3.905-.517,4.673-1.029,5.33,2.1Z" transform="translate(-622.839 -572.433)" fill="#131f2d"/>
            <path id="Tracé_99" data-name="Tracé 99" d="M817.57,732.234a.75.75,0,0,1-1.026.278.766.766,0,0,1-.159-1.061.749.749,0,0,1,1.026-.278.766.766,0,0,1,.159,1.061" transform="translate(-660.829 -591.87)" fill="#ffb27d"/>
            <path id="Tracé_100" data-name="Tracé 100" d="M777.566,723.738a.813.813,0,0,1-.2-.024c-.42-.106-.538-.326-.508-.5.034-.2.272-.383.645-.344a1.45,1.45,0,0,0,.863-.132l.073.115a1.545,1.545,0,0,1-.95.153c-.277-.028-.473.1-.5.232s.131.271.407.34c.719.183,1.957-.933,1.97-.945l.092.1a3.893,3.893,0,0,1-1.9,1" transform="translate(-628.94 -585.046)" fill="#fff"/>
            <path id="Tracé_101" data-name="Tracé 101" d="M791.152,709.82a2.987,2.987,0,0,1-1.5-.4l.1-.093a2.8,2.8,0,0,0,2.127.224,8.271,8.271,0,0,0,.865-.414,2.4,2.4,0,0,1,1.572-.437l-.026.134a2.3,2.3,0,0,0-1.482.424,8.366,8.366,0,0,1-.879.42,2.136,2.136,0,0,1-.78.138" transform="translate(-639.304 -573.745)" fill="#fff"/>
            <path id="Tracé_102" data-name="Tracé 102" d="M822.174,716.034a1.115,1.115,0,0,1-.663-.509c-.073-.146,0-.213.036-.235.273-.173.668.365.745.474l.01.022c.044.167-.026.221-.072.238a.157.157,0,0,1-.055.009m-.509-.64a.083.083,0,0,0-.046.012c-.007.012,0,.084.137.22a.8.8,0,0,0,.424.271.247.247,0,0,0-.008-.064c-.139-.2-.374-.439-.508-.439" transform="translate(-665.069 -579.07)" fill="#fff"/>
            <path id="Tracé_103" data-name="Tracé 103" d="M800.337,740.764a.073.073,0,0,1-.054-.038.075.075,0,0,1,.029-.1.793.793,0,0,1,.975.091.076.076,0,0,1,.011.1.081.081,0,0,1-.1.011,1.252,1.252,0,0,0-.81-.077.073.073,0,0,1-.046.009" transform="translate(-647.9 -599.506)" fill="#080435"/>
            <path id="Tracé_104" data-name="Tracé 104" d="M802.222,744.564c.028.176-.052.335-.178.355s-.251-.105-.279-.281.052-.335.178-.355.251.105.279.281" transform="translate(-649.104 -602.568)" fill="#080435"/>
            <path id="Tracé_105" data-name="Tracé 105" d="M786.742,745.01a.053.053,0,0,1-.052-.017.09.09,0,0,1-.015-.1.516.516,0,0,1,.721-.235.089.089,0,0,1,.044.094.054.054,0,0,1-.07.044.769.769,0,0,0-.6.194.049.049,0,0,1-.03.023" transform="translate(-636.883 -602.817)" fill="#080435"/>
            <path id="Tracé_106" data-name="Tracé 106" d="M789.989,748.228a.291.291,0,0,1-.031.4c-.109.067-.272,0-.364-.153a.29.29,0,0,1,.031-.4c.109-.067.272,0,.364.153" transform="translate(-639.205 -605.62)" fill="#080435"/>
            <path id="Tracé_107" data-name="Tracé 107" d="M800.95,754.92a2.019,2.019,0,0,1-.447-.046.052.052,0,0,1,.026-.1,1.671,1.671,0,0,0,1.843-.738.052.052,0,1,1,.09.051,1.655,1.655,0,0,1-1.512.834" transform="translate(-648.055 -610.444)" fill="#020202"/>
            <path id="Tracé_108" data-name="Tracé 108" d="M809.89,753.522a.052.052,0,0,1-.049-.036.585.585,0,0,0-.293-.3l-.015-.009a.052.052,0,0,1,.058-.086.7.7,0,0,1,.349.359.052.052,0,0,1-.033.065.047.047,0,0,1-.016,0" transform="translate(-655.378 -609.697)" fill="#020202"/>
            <rect id="Rectangle_3" data-name="Rectangle 3" width="2.673" height="0.227" transform="translate(147.827 157.353) rotate(-71.824)" fill="#131f2d"/>
            <path id="Tracé_109" data-name="Tracé 109" d="M780.456,742.08a1.155,1.155,0,0,1-.15-.01,2.305,2.305,0,0,1-1.521-1.238c-.659-1.14-.688-2.569-.066-3.186a.984.984,0,0,1,.851-.282,2.306,2.306,0,0,1,1.521,1.238c.659,1.14.688,2.569.066,3.186a.974.974,0,0,1-.7.292m-1.034-4.572a.826.826,0,0,0-.595.248c-.576.571-.535,1.916.09,3a2.157,2.157,0,0,0,1.408,1.162.834.834,0,0,0,.722-.239c.576-.571.535-1.916-.09-3a2.158,2.158,0,0,0-1.408-1.162.972.972,0,0,0-.128-.009" transform="translate(-630.088 -596.961)" fill="#fff"/>
            <g id="Groupe_9" data-name="Groupe 9" transform="translate(151.802 138.697)" opacity="0.3">
              <g id="Groupe_8" data-name="Groupe 8">
                <g id="Groupe_7" data-name="Groupe 7" clip-path="url(#clip-path-5)">
                  <path id="Tracé_110" data-name="Tracé 110" d="M800.185,729.715a2.682,2.682,0,0,1-.329,3.081c-.715.568-1.727.109-2.261-1.025a2.682,2.682,0,0,1,.329-3.081c.715-.568,1.727-.109,2.26,1.025" transform="translate(-797.275 -728.446)" fill="#fff"/>
                </g>
              </g>
            </g>
            <g id="Groupe_12" data-name="Groupe 12" transform="translate(148.438 140.453)" opacity="0.3">
              <g id="Groupe_11" data-name="Groupe 11">
                <g id="Groupe_10" data-name="Groupe 10" clip-path="url(#clip-path-6)">
                  <path id="Tracé_111" data-name="Tracé 111" d="M782.225,738.947a2.869,2.869,0,0,1-.162,3.088c-.624.566-1.564.1-2.1-1.038a2.87,2.87,0,0,1,.161-3.087c.625-.566,1.565-.1,2.1,1.038" transform="translate(-779.605 -737.668)" fill="#fff"/>
                </g>
              </g>
            </g>
            <path id="Tracé_112" data-name="Tracé 112" d="M797.777,731.849a1.35,1.35,0,0,1-.311-.037,2.279,2.279,0,0,1-1.43-1.324,2.85,2.85,0,0,1,.388-3.313,1.247,1.247,0,0,1,1.088-.238,2.279,2.279,0,0,1,1.43,1.324,2.85,2.85,0,0,1-.388,3.313,1.244,1.244,0,0,1-.777.275m-.575-4.795a1.1,1.1,0,0,0-.684.242,2.694,2.694,0,0,0-.344,3.126,2.159,2.159,0,0,0,1.327,1.24,1.1,1.1,0,0,0,.958-.209,2.7,2.7,0,0,0,.344-3.126,2.158,2.158,0,0,0-1.327-1.24,1.187,1.187,0,0,0-.274-.033" transform="translate(-644.195 -588.497)" fill="#fff"/>
            <path id="Tracé_113" data-name="Tracé 113" d="M792.273,743.761a.144.144,0,0,1-.114-.231,1.553,1.553,0,0,1,1.182-.515.147.147,0,0,1,.147.14.144.144,0,0,1-.14.147,1.276,1.276,0,0,0-.96.4.144.144,0,0,1-.114.056" transform="translate(-641.307 -601.544)" fill="#fff"/>
            <path id="Tracé_114" data-name="Tracé 114" d="M1333.435,484.432c-.89-.877,4.211-4.215,4.211-4.215.34-.239,4.289,4.125,10.782,2.067,2.312-.733,5.51-4.781,5.741-5.382.031-.08,5.121,1.76,5.121,1.76-.418,1.089-.214,4.918-2.7,7.21-5.149,4.74-13.183,5.658-23.152-1.44" transform="translate(-1079.463 -386.097)" fill="#ffb27d"/>
            <path id="Tracé_115" data-name="Tracé 115" d="M1475.818,854.088s-.044,1.757-1.233,2.253-4.635.943-3.347,2.073c.739.648,4.22.229,5.2.229s1.906.429,2.636-.229c.8-.724,0-4.326,0-4.326a3.927,3.927,0,0,1-1.611.422,3.128,3.128,0,0,1-1.648-.422" transform="translate(-1190.882 -691.468)" fill="#131f2d"/>
            <path id="Tracé_116" data-name="Tracé 116" d="M1442.593,575.543s-.237,7.931,2.294,23.145c1.827,10.984,3.984,22.052,5.042,27.358a4.14,4.14,0,0,0,3.867,3.362l1.016.041a3.474,3.474,0,0,0,3.556-3.764l-2.567-35.9-.633-11.815Z" transform="translate(-1167.917 -465.958)" fill="#1e2059"/>
            <path id="Tracé_117" data-name="Tracé 117" d="M1534.969,854.088s-.044,1.757-1.233,2.253-4.635.943-3.347,2.073c.739.648,4.22.229,5.2.229s1.906.429,2.636-.229c.8-.724,0-4.326,0-4.326a3.926,3.926,0,0,1-1.611.422,3.128,3.128,0,0,1-1.648-.422" transform="translate(-1238.771 -691.468)" fill="#131f2d"/>
            <path id="Tracé_118" data-name="Tracé 118" d="M1501.743,575.543s-.237,7.931,2.294,23.145c1.827,10.984,3.984,22.052,5.042,27.358a4.14,4.14,0,0,0,3.867,3.362l1.017.041a3.475,3.475,0,0,0,3.556-3.764l-2.567-35.9-.633-11.815Z" transform="translate(-1215.804 -465.958)" fill="#1e2059"/>
            <path id="Tracé_119" data-name="Tracé 119" d="M1464.573,610.987c-.024.957-5.81,1.337-12.967,1.114s-12.875-1.213-12.85-2.17,5.783-1.519,12.939-1.3,12.9,1.395,12.878,2.352" transform="translate(-1164.814 -492.71)" fill="#131f2d"/>
            <path id="Tracé_120" data-name="Tracé 120" d="M1462.821,457.372s-1.266-5.015-10.6-5.066c-13.464-.073-12.218,12.3-13.464,31.1,0,0,13.263-1.876,25.824.821,0,0,1.165-19.191-1.758-26.854" transform="translate(-1164.814 -366.185)" fill="#fef218"/>
            <path id="Tracé_121" data-name="Tracé 121" d="M1466.268,456.476l-6.1,3.374s-13.352,1.213-16.9.629a5.677,5.677,0,0,1-4.517-3.187,19.535,19.535,0,0,1,10.192-4.949c.6-.1,1.228-.171,1.876-.213a18.433,18.433,0,0,1,3.243.065c8.133.917,12.2,4.282,12.2,4.282" transform="translate(-1164.815 -366.009)" fill="#fef218"/>
            <path id="Tracé_122" data-name="Tracé 122" d="M1500.775,417.235l-.705-2.275-.205-.662-1.206-3.894-.159,3.873-.095,2.325-.03.736c-.02.5-.325.6-.7,1.039-.15.176-1.111,1.242-.021,1.724,1.358.6,3.9-.308,4.863-1.5-.008,0-1.52-.632-1.747-1.367" transform="translate(-1212.087 -332.263)" fill="#ffb27d"/>
            <path id="Tracé_123" data-name="Tracé 123" d="M1444.674,616.3s7.754-2.281,23.813.85l.124,2.31-23.541.832Z" transform="translate(-1169.606 -498.306)" fill="#1e2059"/>
            <path id="Tracé_124" data-name="Tracé 124" d="M1560.8,474.109c.517.732-.245,2.176-1.7,3.228s-3.056,1.31-3.573.579.245-2.176,1.7-3.228,3.056-1.31,3.573-.579" transform="translate(-1259.221 -383.501)" fill="#131f2d"/>
            <path id="Tracé_125" data-name="Tracé 125" d="M1565.425,507.966c-.561-6.18-1.849-15.016-4.8-22.014a21.113,21.113,0,0,0-1.5-3.115c-.428-.712.339-2.278,1.55-3.025,1.136-.7,2.906-.586,3.185-.239a18.686,18.686,0,0,1,1.774,3.515c2.747,6.235,4.392,14.29,5.059,24.674Z" transform="translate(-1262.171 -388.038)" fill="#ffb27d"/>
            <path id="Tracé_126" data-name="Tracé 126" d="M1488.327,402.726a5.113,5.113,0,0,0,0,2.124c.246,1.182,1.448-1.723,1.448-1.723Z" transform="translate(-1204.859 -326.046)" fill="#131f2d"/>
            <path id="Tracé_127" data-name="Tracé 127" d="M1487.858,399.892c.3-2.285,2.079-3.935,3.974-3.686s3.188,2.3,2.888,4.587-2.079,3.935-3.974,3.687-3.187-2.3-2.888-4.587" transform="translate(-1204.533 -320.747)" fill="#ffb27d"/>
            <path id="Tracé_128" data-name="Tracé 128" d="M1488.7,389.564l-1.675-.174a1.218,1.218,0,0,1-.9-.548c-.343-.537-.756-.813-2.319-.754a3.285,3.285,0,0,1-3.5-2.14,1.182,1.182,0,0,1,1.788-1.269c.994.5.567-.732,1.523-.863,1.786-.245,2.12,1.131,3.582,1.087,1.917-.059,5.351,1.4,3.722,4.772Z" transform="translate(-1198.431 -310.713)" fill="#131f2d"/>
            <path id="Tracé_129" data-name="Tracé 129" d="M1504.965,416.54a.07.07,0,0,1,.031-.129.759.759,0,0,1,.808.46.07.07,0,0,1-.031.094.077.077,0,0,1-.094-.031,1.2,1.2,0,0,0-.672-.383.069.069,0,0,1-.043-.011" transform="translate(-1218.391 -337.12)" fill="#080435"/>
            <path id="Tracé_130" data-name="Tracé 130" d="M1504.835,420.331c-.044.161-.175.267-.292.235a.272.272,0,0,1-.132-.35c.044-.161.175-.266.292-.235a.272.272,0,0,1,.132.35" transform="translate(-1217.957 -340.011)" fill="#080435"/>
            <path id="Tracé_131" data-name="Tracé 131" d="M1491.294,414.962a.051.051,0,0,1-.038-.035.084.084,0,0,1,.027-.095.492.492,0,0,1,.715.081.083.083,0,0,1,0,.1.052.052,0,0,1-.077.01.736.736,0,0,0-.594-.068.047.047,0,0,1-.035.008" transform="translate(-1207.315 -335.75)" fill="#080435"/>
            <path id="Tracé_132" data-name="Tracé 132" d="M1492.966,418.633c.021.166-.06.313-.181.328s-.235-.107-.256-.273.06-.313.18-.328.235.107.256.273" transform="translate(-1208.347 -338.702)" fill="#080435"/>
            <path id="Tracé_133" data-name="Tracé 133" d="M1518.046,412.645s-1.156,2.5-2.8,2.679c0,0,1.326-1.9-1.469-3.062a8.909,8.909,0,0,1,4.266.382" transform="translate(-1225.554 -333.683)" fill="#131f2d"/>
            <path id="Tracé_134" data-name="Tracé 134" d="M1519.4,416.569a.677.677,0,1,1,.274-.972.716.716,0,0,1-.274.972" transform="translate(-1229.218 -336.23)" fill="#ffb27d"/>
            <path id="Tracé_135" data-name="Tracé 135" d="M1493.549,412.7s.224,2.095-.2,2.491-3.241.566-4.555.059a2.736,2.736,0,0,0,2.253,2.756,3.967,3.967,0,0,0,1.344,0,2.737,2.737,0,0,0,2.193-1.394,7.973,7.973,0,0,0-.22-1.857,1.807,1.807,0,0,1,.419-1.425,2.671,2.671,0,0,0-1.231-.625" transform="translate(-1205.323 -334.124)" fill="#131f2d"/>
            <path id="Tracé_136" data-name="Tracé 136" d="M1492.434,430.061a7.1,7.1,0,0,0,2.257.178,1.089,1.089,0,0,1-1.366.874c-.693-.126-.892-1.052-.892-1.052" transform="translate(-1208.272 -348.176)" fill="#fff"/>
            <path id="Tracé_137" data-name="Tracé 137" d="M1490.82,385.646h-.029l0-.094a.425.425,0,0,0,.5-.366l.094.009a.526.526,0,0,1-.566.452" transform="translate(-1206.942 -311.845)" fill="#131f2d"/>
            <path id="Tracé_138" data-name="Tracé 138" d="M1486.283,392.692a6.313,6.313,0,0,1-1.086-.452c-.722-.389-1.124-.84-1.161-1.3a.752.752,0,0,1,.172-.661c.227-.2.619-.1.965-.023l.149.034-.01.046-.15-.034c-.335-.078-.715-.167-.924.013a.711.711,0,0,0-.157.622c.087,1.084,2.192,1.708,2.213,1.714Z" transform="translate(-1201.469 -315.872)" fill="#fff"/>
            <path id="Tracé_139" data-name="Tracé 139" d="M1507.154,387.76a3.715,3.715,0,0,1-1.7-.388,2.553,2.553,0,0,1-.76-.561l.036-.03a3.425,3.425,0,0,0,3.054.889l.007.047a4.708,4.708,0,0,1-.632.044" transform="translate(-1218.194 -313.137)" fill="#fff"/>
            <path id="Tracé_140" data-name="Tracé 140" d="M1596.182,546.367a.807.807,0,0,1-.579-.278,1.528,1.528,0,0,1-.378-.8c-.11-.67.187-1.278.663-1.357a.771.771,0,0,1,.685.269,1.624,1.624,0,0,1,.278,1.685.773.773,0,0,1-.562.475.657.657,0,0,1-.106.009m-.19-2.215a.405.405,0,0,0-.067.005c-.344.057-.561.557-.472,1.091a1.3,1.3,0,0,0,.317.681.491.491,0,0,0,.871-.143,1.395,1.395,0,0,0-.235-1.428.584.584,0,0,0-.414-.206" transform="translate(-1291.473 -440.357)" fill="#ec865c"/>
            <path id="Tracé_141" data-name="Tracé 141" d="M1586.564,617.137c-.449.859-.957,2.77-1.389,3.638-.188.376-.733,1.689-.389,1.942.3.219,1.219-.6,1.61-1.043.383,2.806,2.159,6.758,1.77.831h.01c.093.6.611,3.92,1.333,3.5.638-.369.362-2.761.219-3.745l.026-.006c.229.99.843,3.365,1.333,2.809.615-.7.374-3.326.374-3.326s.38,3.352,1.188,2.639c.456-.4.044-2.3-.229-3.484h0c-.057-.247-.109-.464-.144-.627a1.681,1.681,0,0,0-.119-.357,15.144,15.144,0,0,0-1.263-3.109,2.108,2.108,0,0,0-2.269-1.277,3.205,3.205,0,0,0-2.06,1.616" transform="translate(-1282.951 -498.306)" fill="#ffb27d"/>
            <path id="Tracé_142" data-name="Tracé 142" d="M1450.742,479.915l-.148-.041a12.423,12.423,0,0,1,1.724-3.217l.123.092a12.269,12.269,0,0,0-1.7,3.166" transform="translate(-1174.399 -385.901)" fill="#131f2d"/>
            <path id="Tracé_143" data-name="Tracé 143" d="M1492.328,657.214c-.01-.065-1.051-6.518-1.764-8.818-.7-2.264-3.732-4.173-3.762-4.192l.129-.207a13.533,13.533,0,0,1,1.653,1.267,7.216,7.216,0,0,1,2.214,3.06c.718,2.316,1.761,8.786,1.771,8.851Z" transform="translate(-1203.713 -521.379)" fill="#020202"/>
            <path id="Tracé_144" data-name="Tracé 144" d="M1323.735,483.775c-.386-.819-1.521-2.274-1.924-3.085-.174-.352-.844-1.5-1.226-1.384-.332.1-.242,1.244-.132,1.787-2.3-1.3-6.446-2.533-1.616.848l-.005.007c-.5-.268-3.826-2.143-3.922-1.369-.085.683,2.415,2.214,3.228,2.662l-.01.023c-.865-.387-3.35-1.669-3.213-.991.173.851,2.635,2.552,2.635,2.552s-2.708-1.608-2.634-.6c.042.566,1.689,1.332,2.721,1.794h0c.216.1.406.181.548.246a1.571,1.571,0,0,0,.333.113,14.125,14.125,0,0,0,3.026.813,1.968,1.968,0,0,0,2.229-.968,2.993,2.993,0,0,0-.041-2.444" transform="translate(-1064.549 -388.038)" fill="#ffb27d"/>
            <path id="Tracé_145" data-name="Tracé 145" d="M423.25,956.21s.048,1.925,1.351,2.468,5.077,1.033,3.666,2.271c-.809.71-4.623.251-5.7.251s-2.088.469-2.888-.251c-.88-.793,0-4.738,0-4.738a4.3,4.3,0,0,0,1.765.462,3.427,3.427,0,0,0,1.805-.462" transform="translate(-339.455 -774.146)" fill="#131f2d"/>
            <path id="Tracé_146" data-name="Tracé 146" d="M419.547,679.057s-.093,8.872-.807,24.526c-.56,12.273-.444,23.646-1.52,29.037-.385,1.928-14.614.945-14.462-1.177l3.368-37.915.643-12Z" transform="translate(-326.071 -549.763)" fill="#1e2059"/>
            <path id="Tracé_147" data-name="Tracé 147" d="M369.184,554.987s1.908-5.367,8.7-5.123,12.235,9.181,13.506,28.374a44,44,0,0,0-24.409,3.309s-.785-18.737,2.2-26.56" transform="translate(-297.035 -445.162)" fill="#fef218"/>
            <path id="Tracé_148" data-name="Tracé 148" d="M353.869,554.535l4.815,3.082s12.375,1.238,15.66.642,1.6-2.332,1.6-2.332a8.141,8.141,0,0,0-6.873-6.031,16.309,16.309,0,0,0-1.723-.161,16.911,16.911,0,0,0-3.006.066,21.126,21.126,0,0,0-10.47,4.734" transform="translate(-286.492 -445.033)" fill="#fef218"/>
            <path id="Tracé_149" data-name="Tracé 149" d="M353.445,574.4c-.167.485,1.092,1.392,2.812,2.026s3.25.756,3.417.271-1.092-1.392-2.812-2.026-3.25-.756-3.417-.271" transform="translate(-286.136 -464.796)" fill="#131f2d"/>
            <path id="Tracé_150" data-name="Tracé 150" d="M344.686,956.208s.048,1.925,1.351,2.468,5.077,1.033,3.666,2.271c-.809.71-4.623.251-5.7.251s-2.088.469-2.888-.251c-.88-.793,0-4.739,0-4.739a4.3,4.3,0,0,0,1.765.463,3.426,3.426,0,0,0,1.805-.462" transform="translate(-275.85 -774.144)" fill="#131f2d"/>
            <path id="Tracé_151" data-name="Tracé 151" d="M367.374,698.757c.118.981,5.664.862,12.453,0s12.075-2.33,11.956-3.311-5.6-1.1-12.385-.241-12.143,2.569-12.024,3.549" transform="translate(-297.424 -562.372)" fill="#131f2d"/>
            <path id="Tracé_152" data-name="Tracé 152" d="M344.266,706.072l-12.638,47.8c-.607,1.949-12.6,1.688-12.22-.382l9.805-45.207a1.44,1.44,0,0,1,1-1.078c2.719-.784,14.319-3.056,14.052-1.13" transform="translate(-258.586 -571.023)" fill="#1e2059"/>
            <path id="Tracé_153" data-name="Tracé 153" d="M411.085,763.062l-.237-.056,3.859-16.448a9.231,9.231,0,0,1,4.173-5.153l.121.212a8.985,8.985,0,0,0-4.06,5.008Z" transform="translate(-332.622 -600.241)" fill="#020202"/>
            <path id="Tracé_154" data-name="Tracé 154" d="M396.053,703.511S409.6,700.922,414,702.143l-2.107,3.122-7.832.443Z" transform="translate(-320.644 -568.189)" fill="#1e2059"/>
            <path id="Tracé_155" data-name="Tracé 155" d="M423.644,526.487s-1.542-.617-1.784-1.476-.815-.595-1.145-.815.595-2.555.595-2.555l3.194-1.168-.33,4.1Z" transform="translate(-340.552 -421.374)" fill="#131f2d"/>
            <path id="Tracé_156" data-name="Tracé 156" d="M401.27,521.306a2.182,2.182,0,0,0,1.554-1.175l.846-1.964.247-.574,1.453-3.375-.252,3.5-.152,2.1-.043.591c-.035.49.242.514.725.6,0,0,.625,1.89-.784,1.89a6.272,6.272,0,0,1-3.595-1.592" transform="translate(-324.868 -416.311)" fill="#ffb27d"/>
            <path id="Tracé_157" data-name="Tracé 157" d="M413.852,532.178c0,.019,0,.039,0,.058a2.218,2.218,0,0,0,1.289,1.654l.007-.006.152-2.1a1.79,1.79,0,0,0-1.2-.123.492.492,0,0,0-.251.516" transform="translate(-335.053 -430.379)" fill="#562759"/>
            <path id="Tracé_158" data-name="Tracé 158" d="M412.95,499.92c0-2.239-1.471-4.054-3.286-4.054s-3.286,1.815-3.286,4.054,1.471,4.054,3.286,4.054,3.286-1.815,3.286-4.054" transform="translate(-329.004 -401.452)" fill="#ffb27d"/>
            <path id="Tracé_159" data-name="Tracé 159" d="M423.378,529.365a7.13,7.13,0,0,1-2.245-.368,1.094,1.094,0,0,0,1.122,1.18c.707.043,1.122-.812,1.122-.812" transform="translate(-340.947 -428.275)" fill="#fff"/>
            <path id="Tracé_160" data-name="Tracé 160" d="M421.139,516.431a.075.075,0,0,0,.008-.141.809.809,0,0,0-.967.216.075.075,0,0,0,0,.106.082.082,0,0,0,.106,0,1.279,1.279,0,0,1,.8-.18.075.075,0,0,0,.047,0" transform="translate(-340.161 -417.925)" fill="#080435"/>
            <path id="Tracé_161" data-name="Tracé 161" d="M421.367,520.134c-.006.178.095.326.224.33s.239-.137.244-.315-.095-.326-.224-.33-.239.137-.244.315" transform="translate(-341.138 -420.844)" fill="#080435"/>
            <path id="Tracé_162" data-name="Tracé 162" d="M432.529,520.939c-.017.177.074.332.2.344s.247-.122.264-.3-.074-.331-.2-.344-.247.122-.264.3" transform="translate(-350.173 -421.508)" fill="#080435"/>
            <path id="Tracé_163" data-name="Tracé 163" d="M406.943,488.44a5.759,5.759,0,0,1,4.377,5.435c0,.15-2.318,1.682-2.177,2.2a3.823,3.823,0,0,0,2.52,2.329c.866,0,2.316-2.939,1.848-6.762s-1.95-6.632-5.461-6.749-3.043,2.223-3.043,2.223a3.289,3.289,0,0,0,1.936,1.319" transform="translate(-327.876 -392.568)" fill="#131f2d"/>
            <path id="Tracé_164" data-name="Tracé 164" d="M397.921,496.841s-.06.038-.156.113a3.762,3.762,0,0,0-1.453,2.345c-.2,1.551,1.288,2.516.878,3.716s-1.492-.146-2.37.058-1.521-.2-1.58-1.96.351-5.852,2.428-5.852Z" transform="translate(-318.362 -400.962)" fill="#131f2d"/>
            <path id="Tracé_165" data-name="Tracé 165" d="M405.24,514.344a.808.808,0,0,0,1.162.081.9.9,0,0,0-.185-1.206.808.808,0,0,0-1.162-.081.9.9,0,0,0,.185,1.206" transform="translate(-327.803 -415.265)" fill="#ffb27d"/>
            <path id="Tracé_166" data-name="Tracé 166" d="M437.741,529.273h0a.025.025,0,0,1-.024-.025,10.437,10.437,0,0,0-.313-2.965.024.024,0,0,1,.016-.03.025.025,0,0,1,.031.016,10.494,10.494,0,0,1,.315,2.981.024.024,0,0,1-.024.024" transform="translate(-354.12 -426.052)" fill="#131f2d"/>
            <path id="Tracé_167" data-name="Tracé 167" d="M363.483,593.516,363.54,590a.906.906,0,0,0-.842-.918c-2.439-.175-4.146-.931-5.081-2.254-1.3-1.837-1.162-4.689-.8-6.668.185-1.012-.149-1.689-1.372-2.338a8.368,8.368,0,0,0-2.349-.8.962.962,0,0,0-1.17.63,21.452,21.452,0,0,0-.611,3.5,13.008,13.008,0,0,0,1.935,8.727c1.932,2.749,5.045,4.27,9.264,4.529a.91.91,0,0,0,.968-.89" transform="translate(-284.366 -467.139)" fill="#ffb27d"/>
            <g id="Groupe_15" data-name="Groupe 15" transform="translate(68.76 119.562)" opacity="0.5">
              <g id="Groupe_14" data-name="Groupe 14">
                <g id="Groupe_13" data-name="Groupe 13" clip-path="url(#clip-path-7)">
                  <path id="Tracé_168" data-name="Tracé 168" d="M362.519,630.207a1.017,1.017,0,0,1-.294-.046,1.56,1.56,0,0,1-.739-.524,1.124,1.124,0,0,1-.093-1.539.789.789,0,0,1,.744-.1,1.56,1.56,0,0,1,.739.524,1.124,1.124,0,0,1,.093,1.539.7.7,0,0,1-.45.151m-.675-2.023a.473.473,0,0,0-.3.1c-.282.227-.225.769.128,1.207a1.325,1.325,0,0,0,.624.446.562.562,0,0,0,.528-.063c.282-.227.224-.769-.129-1.207a1.326,1.326,0,0,0-.624-.446.778.778,0,0,0-.225-.036" transform="translate(-361.131 -627.947)" fill="#ec865c"/>
                </g>
              </g>
            </g>
            <path id="Tracé_169" data-name="Tracé 169" d="M426.687,600.991H417.62A2.69,2.69,0,0,1,415,597.671l3.572-14.847a2.69,2.69,0,0,1,2.616-2.061h9.067a2.69,2.69,0,0,1,2.615,3.319L429.3,598.93a2.69,2.69,0,0,1-2.616,2.061" transform="translate(-335.925 -470.185)" fill="#131f2d"/>
            <path id="Tracé_170" data-name="Tracé 170" d="M406.706,624.038s.856-2.592,2.323-3.227,3.82-.337,2.994.25a10.527,10.527,0,0,1-2.088,1.045s2.742-.852,2.664-.124-2.47,1.445-2.47,1.445,3.343-.753,3.047-.09-2.841,1.218-2.841,1.218,3.139-.577,2.776.186-2.6.46-2.675,1.187-.637,3.591-2.685,3.619Z" transform="translate(-329.269 -502.32)" fill="#ffb27d"/>
            <path id="Tracé_171" data-name="Tracé 171" d="M418.083,629.473l-.106-.051c.225-.474,1.04-.6,1.075-.61l.018.117c-.008,0-.788.126-.986.544" transform="translate(-338.394 -509.085)" fill="#e9845c"/>
            <path id="Tracé_172" data-name="Tracé 172" d="M418.066,636.532l-.094-.071a2.074,2.074,0,0,1,1.27-.712l.016.117a1.99,1.99,0,0,0-1.192.666" transform="translate(-338.39 -514.701)" fill="#e9845c"/>
            <path id="Tracé_173" data-name="Tracé 173" d="M419.515,642.4l-.11-.042c.2-.526,1.161-.679,1.2-.685l.018.117c-.009,0-.936.148-1.11.61" transform="translate(-339.55 -519.495)" fill="#e9845c"/>
            <path id="Tracé_174" data-name="Tracé 174" d="M491.242,603.375a1.414,1.414,0,0,0-.669-1.9c-1.6-.671-4.237.027-3.229.466a12.7,12.7,0,0,0,2.3.638s-3.573-.583-3.44.2,3.212,1.243,3.212,1.243-3.532-.239-3.167.46,3.158,1.134,3.158,1.134-3.439-.42-3,.383,2.265.659,3.051.775c.743.11,1.054-.334,1.108-1.058a2.091,2.091,0,0,0,.389-1.171c-.032-.185.161-.335.2-.463a4.7,4.7,0,0,0,.093-.708" transform="translate(-393.623 -486.729)" fill="#ffb27d"/>
            <path id="Tracé_175" data-name="Tracé 175" d="M458.84,577.206s-.548,1.205,0,1.524,4.928.091,5.156,0,.274-1.315,0-1.524-5.034-.328-5.156,0" transform="translate(-371.279 -467.14)" fill="#131f2d"/>
            <path id="Tracé_176" data-name="Tracé 176" d="M1166.825,1045.06s.048,1.9,1.34,2.43,5.037,1.017,3.638,2.236c-.8.7-4.586.247-5.654.247s-2.071.462-2.865-.248c-.873-.781,0-4.666,0-4.666a4.293,4.293,0,0,0,1.751.455,3.419,3.419,0,0,0,1.791-.455" transform="translate(-941.479 -846.079)" fill="#131f2d"/>
            <path id="Tracé_177" data-name="Tracé 177" d="M1254.714,652.406s2.641.223,3.675-.8,1.575-3.1.8-2.606a9.6,9.6,0,0,0-1.591,1.408s1.649-2.024,1-2.2-2.061,1.6-2.061,1.6,1.768-2.563,1.105-2.536-1.992,1.985-1.992,1.985,1.549-2.45.78-2.4-1.267,2.033-1.911,1.855-2.742-.261-3.146,1Z" transform="translate(-1013.113 -523.689)" fill="#ffb27d"/>
            <path id="Tracé_178" data-name="Tracé 178" d="M1164.687,786.605s1.244,3.946-1.308,19.165c-1.842,10.987-3.389,21.948-4.457,27.255a4.162,4.162,0,0,1-3.9,3.363l-1.025.041a3.487,3.487,0,0,1-3.585-3.765L1153,796.755l.638-11.819Z" transform="translate(-931.367 -635.483)" fill="#1e2059"/>
            <path id="Tracé_179" data-name="Tracé 179" d="M1115.271,783.118c.322,1.376,5.462,2.82,11.614,1.361s10.952-3.01,10.63-4.386-5.645-2.057-11.8-.6-10.769,2.247-10.446,3.623" transform="translate(-902.909 -630.417)" fill="#131f2d"/>
            <path id="Tracé_180" data-name="Tracé 180" d="M1088.88,1045.058s.048,1.9,1.34,2.43,5.037,1.017,3.637,2.236c-.8.7-4.586.247-5.654.247s-2.071.462-2.865-.248c-.873-.781,0-4.666,0-4.666a4.293,4.293,0,0,0,1.751.455,3.418,3.418,0,0,0,1.791-.455" transform="translate(-878.374 -846.077)" fill="#131f2d"/>
            <path id="Tracé_181" data-name="Tracé 181" d="M1102.282,790.244,1090.759,811.3l-8.96,26.362a4.63,4.63,0,0,1-4.326,3.267l-.865.015a3.264,3.264,0,0,1-3.229-3.876l8.749-44.358c.114-.512,2.077-1.186,2.58-1.31,4.851-1.2,17.838-3.048,17.573-1.152" transform="translate(-868.962 -639.121)" fill="#1e2059"/>
            <path id="Tracé_182" data-name="Tracé 182" d="M1158.206,845.187l-.233-.062,3.172-11.893c.116-.351.227-.722.344-1.115.593-1.987,1.331-4.46,3.154-5.227l.094.222c-1.718.723-2.438,3.135-3.016,5.074-.118.395-.229.768-.344,1.115Z" transform="translate(-937.493 -669.449)" fill="#020202"/>
            <path id="Tracé_183" data-name="Tracé 183" d="M1163.938,576.87s.09-3.046-2.626-3.087-1.936,1.927-2.38,2.484.922,1.973,2.234,2.065,2.772-1.463,2.772-1.463" transform="translate(-938.201 -464.533)" fill="#131f2d"/>
            <path id="Tracé_184" data-name="Tracé 184" d="M1136.05,661.934c1.514-.689,3.388,2.349,3.388,2.349.026.021-2.733-12.648-11.484-11.441a54.642,54.642,0,0,0-5.966,1.3c-6.508,2.612-5.829,4.14-5.938,10.765-.1,6.359-.746,15.751-.726,16.012a37.446,37.446,0,0,1,22.246-2.768c.087-9.407-1.331-15.746-1.52-16.216" transform="translate(-902.964 -528.474)" fill="#fef218"/>
            <path id="Tracé_185" data-name="Tracé 185" d="M1155.624,620.09a4.475,4.475,0,0,0,3.727,1.584c2.3,0,1.23-2.354,1.23-2.354a.843.843,0,0,1-.922-.857l-.056-.688-.028-.341-.091-1.089-.081-.978-.332-4.012-1.062,4.085-.181.694-.622,2.394a2.19,2.19,0,0,1-1.569,1.558l-.012,0" transform="translate(-935.592 -494.953)" fill="#ffb27d"/>
            <path id="Tracé_186" data-name="Tracé 186" d="M1167.2,636.453a2.731,2.731,0,0,0,1.747,1.3l-.091-1.089c-.666-.131-1.656-.211-1.656-.211" transform="translate(-944.962 -515.271)" fill="#131f2d"/>
            <path id="Tracé_187" data-name="Tracé 187" d="M1146.743,615.832a4.455,4.455,0,0,1,.434,1.975c.108,2.05,2.529,2.1,2.9,1.382.046-.089-1.128-3.241-1.128-3.241l-.827-.173Z" transform="translate(-928.402 -498.53)" fill="#131f2d"/>
            <path id="Tracé_188" data-name="Tracé 188" d="M1159.624,593.9c-.828-2.434-3.112-3.862-5.1-3.19s-2.93,3.189-2.1,5.624,3.112,3.862,5.1,3.19,2.929-3.19,2.1-5.624" transform="translate(-932.756 -478.103)" fill="#ffb27d"/>
            <path id="Tracé_189" data-name="Tracé 189" d="M1150.569,588.025c-.054.169,1.284,2.245-2.765,4.216s-3.241-3.983-.156-5.154c4.454-1.69,6.135,1.1,6.07,2.326s-3.149-1.389-3.149-1.389" transform="translate(-927.026 -474.876)" fill="#131f2d"/>
            <path id="Tracé_190" data-name="Tracé 190" d="M1152.993,611.79s-1.115,2.394.115,4.041c0,0-1.374-.749-1.534-1.147a16.416,16.416,0,0,1-.393-1.955Z" transform="translate(-931.995 -495.304)" fill="#131f2d"/>
            <path id="Tracé_191" data-name="Tracé 191" d="M1154.43,616.345a.939.939,0,0,0,1.3-.342,1.033,1.033,0,0,0-.649-1.242.939.939,0,0,0-1.3.342,1.033,1.033,0,0,0,.649,1.242" transform="translate(-934.056 -497.613)" fill="#ffb27d"/>
            <path id="Tracé_192" data-name="Tracé 192" d="M1170.134,613.477a.086.086,0,0,0-.043-.157.941.941,0,0,0-.981.593.086.086,0,0,0,.042.114.1.1,0,0,0,.115-.042,1.486,1.486,0,0,1,.814-.493.086.086,0,0,0,.053-.015" transform="translate(-946.504 -496.538)" fill="#080435"/>
            <path id="Tracé_193" data-name="Tracé 193" d="M1172.62,618.125c.06.2.224.32.368.276a.332.332,0,0,0,.151-.433c-.06-.2-.224-.319-.368-.276a.332.332,0,0,0-.151.433" transform="translate(-949.334 -500.075)" fill="#080435"/>
            <path id="Tracé_194" data-name="Tracé 194" d="M1185.784,610.026a.086.086,0,0,0,.02-.161.942.942,0,0,0-1.133.178.087.087,0,0,0,0,.122.1.1,0,0,0,.122,0,1.491,1.491,0,0,1,.941-.148.086.086,0,0,0,.054.006" transform="translate(-959.086 -493.651)" fill="#080435"/>
            <path id="Tracé_195" data-name="Tracé 195" d="M1186.713,614.459c-.02.2.084.381.234.395s.286-.14.306-.344-.085-.381-.234-.394-.286.14-.306.344" transform="translate(-960.759 -497.186)" fill="#080435"/>
            <g id="Groupe_18" data-name="Groupe 18" transform="translate(221.541 115.619)" opacity="0.3">
              <g id="Groupe_17" data-name="Groupe 17">
                <g id="Groupe_16" data-name="Groupe 16" clip-path="url(#clip-path-8)">
                  <path id="Tracé_196" data-name="Tracé 196" d="M1163.549,609.05a2.447,2.447,0,0,0,1.563,2.4c.836.166,1.492-.637,1.465-1.794a2.446,2.446,0,0,0-1.562-2.4c-.836-.166-1.492.637-1.465,1.794" transform="translate(-1163.549 -607.234)" fill="#fff"/>
                </g>
              </g>
            </g>
            <g id="Groupe_21" data-name="Groupe 21" transform="translate(225.329 115.04)" opacity="0.3">
              <g id="Groupe_20" data-name="Groupe 20">
                <g id="Groupe_19" data-name="Groupe 19" clip-path="url(#clip-path-9)">
                  <path id="Tracé_197" data-name="Tracé 197" d="M1183.464,606.028a2.586,2.586,0,0,0,1.634,2.256c.748.121,1.23-.693,1.076-1.818a2.586,2.586,0,0,0-1.634-2.256c-.748-.121-1.23.693-1.076,1.818" transform="translate(-1183.436 -604.197)" fill="#fff"/>
                </g>
              </g>
            </g>
            <path id="Tracé_198" data-name="Tracé 198" d="M1163.13,608.542c.019.056.04.112.063.166a2.542,2.542,0,0,0,.963,1.221,1.49,1.49,0,0,0,.511.2,1.2,1.2,0,0,0,.495-.005,1.2,1.2,0,0,0,.518-.26,1.844,1.844,0,0,0,.59-1.087,2.864,2.864,0,0,0,.052-.6,3.038,3.038,0,0,0-.079-.641,2.384,2.384,0,0,0-.07-.261,2.45,2.45,0,0,0-1.335-1.6,1.392,1.392,0,0,0-.224-.064,1.182,1.182,0,0,0-1.012.265,2,2,0,0,0-.635,1.422c-.006.087-.008.175-.006.265,0,.053,0,.106.008.159a3.039,3.039,0,0,0,.064.454,3.134,3.134,0,0,0,.1.358m2.762.85a1.377,1.377,0,0,1-.3.367,1.042,1.042,0,0,1-.892.233,1.378,1.378,0,0,1-.525-.225,2.487,2.487,0,0,1-.913-1.294v0c-.027-.085-.052-.172-.073-.26s-.036-.168-.049-.254a2.829,2.829,0,0,1-.033-.389,2.582,2.582,0,0,1,.017-.353,1.6,1.6,0,0,1,.028-.19.027.027,0,0,1,0-.011c0-.007,0-.013,0-.02a2.113,2.113,0,0,1,.1-.344,1.552,1.552,0,0,1,.443-.657,1.048,1.048,0,0,1,.892-.233,1.068,1.068,0,0,1,.168.045,2.272,2.272,0,0,1,1.287,1.532,2.484,2.484,0,0,1,.07.265,3.115,3.115,0,0,1,.068.582,2.611,2.611,0,0,1-.05.57,2.017,2.017,0,0,1-.231.632.019.019,0,0,0,0,.007" transform="translate(-941.529 -490.289)" fill="#68a1bf"/>
            <path id="Tracé_199" data-name="Tracé 199" d="M1183.352,605.52c.021.06.042.117.065.174s.049.113.074.167c.016.037.034.075.053.11l.007.015c.016.031.031.059.047.09a.005.005,0,0,1,0,0,3.393,3.393,0,0,1-.292-.894.476.476,0,0,0-.054-.012c.014.06.028.118.045.177s.034.115.052.17m0,0c.021.06.042.117.065.174s.049.113.074.167c.016.037.034.075.053.11l.007.015c.016.031.031.059.047.09a.005.005,0,0,1,0,0,3.393,3.393,0,0,1-.292-.894.476.476,0,0,0-.054-.012c.014.06.028.118.045.177s.034.115.052.17m0,0c.021.06.042.117.065.174s.049.113.074.167c.016.037.034.075.053.11l.007.015c.016.031.031.059.047.09a.005.005,0,0,1,0,0,3.393,3.393,0,0,1-.292-.894.476.476,0,0,0-.054-.012c.014.06.028.118.045.177s.034.115.052.17m0,0c.021.06.042.117.065.174s.049.113.074.167c.016.037.034.075.053.11l.007.015c.016.031.031.059.047.09a.005.005,0,0,1,0,0,3.393,3.393,0,0,1-.292-.894.476.476,0,0,0-.054-.012c.014.06.028.118.045.177s.034.115.052.17m0,0c.021.06.042.117.065.174s.049.113.074.167c.016.037.034.075.053.11l.007.015c.016.031.031.059.047.09a.005.005,0,0,1,0,0,3.393,3.393,0,0,1-.292-.894.476.476,0,0,0-.054-.012c.014.06.028.118.045.177s.034.115.052.17m0,0c.021.06.042.117.065.174s.049.113.074.167c.016.037.034.075.053.11l.007.015c.016.031.031.059.047.09a.005.005,0,0,1,0,0,3.393,3.393,0,0,1-.292-.894.476.476,0,0,0-.054-.012c.014.06.028.118.045.177s.034.115.052.17m0,0c.021.06.042.117.065.174s.049.113.074.167c.016.037.034.075.053.11l.007.015c.016.031.031.059.047.09a.005.005,0,0,1,0,0,3.393,3.393,0,0,1-.292-.894.476.476,0,0,0-.054-.012c.014.06.028.118.045.177s.034.115.052.17m0,0c.021.06.042.117.065.174s.049.113.074.167c.016.037.034.075.053.11l.007.015c.016.031.031.059.047.09a.005.005,0,0,1,0,0,3.393,3.393,0,0,1-.292-.894.476.476,0,0,0-.054-.012c.014.06.028.118.045.177s.034.115.052.17m-.052.2a2.99,2.99,0,0,0,.565,1.008h0v0a1.49,1.49,0,0,0,.8.51c.018,0,.036.006.055.009h.005a.917.917,0,0,0,.429-.037.966.966,0,0,0,.324-.188,2.146,2.146,0,0,0,.571-1.728,2.614,2.614,0,0,0-1.557-2.494c-.017,0-.035-.007-.051-.008h0a.954.954,0,0,0-.2-.011.9.9,0,0,0-.265.058,1.022,1.022,0,0,0-.3.177,2.143,2.143,0,0,0-.569,1.727c0,.049.005.1.01.145.008.089.02.179.036.267a3.326,3.326,0,0,0,.14.563m.3.358a3.393,3.393,0,0,1-.292-.894c-.016-.093-.029-.188-.039-.281,0-.055-.008-.11-.011-.165a2.711,2.711,0,0,1,.113-.955,1.454,1.454,0,0,1,.389-.639.166.166,0,0,1,.019-.018.837.837,0,0,1,.277-.16.747.747,0,0,1,.272-.039.844.844,0,0,1,.141.015c.741.148,1.388,1.207,1.443,2.362v.019s0,0,0,.007,0,0,0,0a1.989,1.989,0,0,1-.523,1.582.781.781,0,0,1-.612.195.561.561,0,0,1-.078-.011.418.418,0,0,1-.066-.017.049.049,0,0,1-.019-.005s0,0,0,0,0,0,0,0a1.249,1.249,0,0,1-.5-.3,2.366,2.366,0,0,1-.49-.662.312.312,0,0,0-.019-.036m-.249-.56c.021.06.042.117.065.174s.049.113.074.167c.016.037.034.075.053.11l.007.015c.016.031.031.059.047.09a.005.005,0,0,1,0,0,3.393,3.393,0,0,1-.292-.894.476.476,0,0,0-.054-.012c.014.06.028.118.045.177s.034.115.052.17m0,0c.021.06.042.117.065.174s.049.113.074.167c.016.037.034.075.053.11l.007.015c.016.031.031.059.047.09a.005.005,0,0,1,0,0,3.393,3.393,0,0,1-.292-.894.476.476,0,0,0-.054-.012c.014.06.028.118.045.177s.034.115.052.17m0,0c.021.06.042.117.065.174s.049.113.074.167c.016.037.034.075.053.11l.007.015c.016.031.031.059.047.09a.005.005,0,0,1,0,0,3.393,3.393,0,0,1-.292-.894.476.476,0,0,0-.054-.012c.014.06.028.118.045.177s.034.115.052.17m0,0c.021.06.042.117.065.174s.049.113.074.167c.016.037.034.075.053.11l.007.015c.016.031.031.059.047.09a.005.005,0,0,1,0,0,3.393,3.393,0,0,1-.292-.894.476.476,0,0,0-.054-.012c.014.06.028.118.045.177s.034.115.052.17m0,0c.021.06.042.117.065.174s.049.113.074.167c.016.037.034.075.053.11l.007.015c.016.031.031.059.047.09a.005.005,0,0,1,0,0,3.393,3.393,0,0,1-.292-.894.476.476,0,0,0-.054-.012c.014.06.028.118.045.177s.034.115.052.17m0,0c.021.06.042.117.065.174s.049.113.074.167c.016.037.034.075.053.11l.007.015c.016.031.031.059.047.09a.005.005,0,0,1,0,0,3.393,3.393,0,0,1-.292-.894.476.476,0,0,0-.054-.012c.014.06.028.118.045.177s.034.115.052.17m0,0c.021.06.042.117.065.174s.049.113.074.167c.016.037.034.075.053.11l.007.015c.016.031.031.059.047.09a.005.005,0,0,1,0,0,3.393,3.393,0,0,1-.292-.894.476.476,0,0,0-.054-.012c.014.06.028.118.045.177s.034.115.052.17" transform="translate(-957.845 -488.013)" fill="#68a1bf"/>
            <path id="Tracé_200" data-name="Tracé 200" d="M1179.339,614.141a.134.134,0,0,0,.084-.082.133.133,0,0,0-.082-.17,1.472,1.472,0,0,0-1.189.2.133.133,0,0,0-.044.183.134.134,0,0,0,.184.043,1.209,1.209,0,0,1,.96-.177.133.133,0,0,0,.087,0" transform="translate(-953.779 -496.965)" fill="#131f2d"/>
            <path id="Tracé_201" data-name="Tracé 201" d="M1132.258,587.41s-1.314-2.75-3.755-1.561-1.433,2.443-.986,3.284a2.548,2.548,0,0,0,2.938.829c1.213-.51,1.8-2.552,1.8-2.552" transform="translate(-912.358 -474.061)" fill="#131f2d"/>
            <path id="Tracé_202" data-name="Tracé 202" d="M1156.627,638.016a.086.086,0,0,1-.048-.006.082.082,0,0,1-.042-.109,3.731,3.731,0,0,1,1.354-1.5.083.083,0,0,1,.115.026.082.082,0,0,1-.027.114,3.62,3.62,0,0,0-1.29,1.425.084.084,0,0,1-.062.048" transform="translate(-936.325 -515.221)" fill="#131f2d"/>
            <path id="Tracé_203" data-name="Tracé 203" d="M1148.8,657.228l-1.557.3a.811.811,0,0,0,.486,1.058c.762.255.915.255,1.159.841s1.194.611,1.528.407.919.56,1.46.56.861-.952.65-1.584a9.937,9.937,0,0,1-3.727-1.584" transform="translate(-928.766 -532.091)" fill="#fff"/>
            <path id="Tracé_204" data-name="Tracé 204" d="M1176.429,651.955s.958,2.3-1.23,2.353c0,0,1.149,1.142,1.953.684s.034-.866.376-1.172.719-.526.377-.883-.127-1.064-.127-1.064a1.018,1.018,0,0,0-1.349.081" transform="translate(-951.44 -527.587)" fill="#fff"/>
            <path id="Tracé_205" data-name="Tracé 205" d="M1185.672,681.712a.344.344,0,1,1,.344.341.342.342,0,0,1-.344-.341" transform="translate(-959.918 -551.637)" fill="#131f2d"/>
            <path id="Tracé_206" data-name="Tracé 206" d="M1193.252,739.262a.344.344,0,1,1,.344.341.342.342,0,0,1-.344-.341" transform="translate(-966.055 -598.229)" fill="#131f2d"/>
            <path id="Tracé_207" data-name="Tracé 207" d="M1193.252,713.186a.344.344,0,1,1,.344.341.342.342,0,0,1-.344-.341" transform="translate(-966.055 -577.118)" fill="#131f2d"/>
            <path id="Tracé_208" data-name="Tracé 208" d="M1072.622,820.674l-.068-3.356a.994.994,0,0,0-.832-.928l-2.679-.445a1,1,0,0,0-1.043.5l-1.706,3.478-.737-.362,1.717-3.5a1.823,1.823,0,0,1,1.9-.931l2.679.445a1.82,1.82,0,0,1,1.518,1.714l.068,3.364Z" transform="translate(-862.673 -659.911)" fill="#657285"/>
            <path id="Tracé_209" data-name="Tracé 209" d="M1053.752,844.312l-12.585-.893a1.61,1.61,0,0,1-1.5-1.7l.573-8.919a1.616,1.616,0,0,1,1.843-1.488l15.082,2.12a1.606,1.606,0,0,1,1.278,2.182l-3.07,7.692a1.62,1.62,0,0,1-1.62,1.011" transform="translate(-841.71 -673.012)" fill="#131f2d"/>
            <path id="Tracé_210" data-name="Tracé 210" d="M1050.741,852.122l-.027-.012-8.824-3.914.077-.174,8.8,3.9,8.971-1.627.034.187Z" transform="translate(-843.513 -686.557)" fill="#657285"/>
            <path id="Tracé_211" data-name="Tracé 211" d="M1086.645,866.825h0a.524.524,0,0,1-.432-.6l.084-.5a.526.526,0,0,1,1.038.172l-.084.5a.527.527,0,0,1-.606.429" transform="translate(-879.391 -700.537)" fill="#657285"/>
            <path id="Tracé_212" data-name="Tracé 212" d="M1084.848,802.969a16.145,16.145,0,0,1-.636-1.618,10.281,10.281,0,0,0-.519-1.26c-.161-.3-3.514-.334-3.514-.334a11.332,11.332,0,0,0-1,2.422,1.261,1.261,0,0,0-.094.278c-.161.738-.524,1.755-.073,2.145.492.426.8-.307.922-.71a1.762,1.762,0,0,0,.179,1.479c.381.422.818-.732,1.008-1.319h0c-.135.527-.322,1.548.159,1.826.569.328,1.008-1.241,1.125-1.6l.042,0c.332,2.234,1.223,1.106,1.425-.614.326.358,1.065,1,1.3.833.277-.193-.175-1.232-.33-1.531" transform="translate(-873.389 -647.482)" fill="#ffb27d"/>
            <path id="Tracé_213" data-name="Tracé 213" d="M1094.854,660.223s-8.919,2.569-11.177,14.284c-1.058,5.488-1.615,9.447-1.289,11.641a1.478,1.478,0,0,0,1.213,1.23l2.135.375a1.423,1.423,0,0,0,1.636-1.078c.874-3.828,3.657-14.907,7.279-18.239Z" transform="translate(-876.224 -534.515)" fill="#fef218"/>
            <path id="Tracé_214" data-name="Tracé 214" d="M1211.679,680.574a5.376,5.376,0,0,1-2.153-.758c-2.186-1.333-3.652-4.15-4.754-9.133a24.19,24.19,0,0,0-2-5.088l4.927-2.623a29.575,29.575,0,0,1,2.539,6.521c.383,1.731.586-9.2,1.529-10.229.578-.633,4.538,3.369,4.538,3.369.374,1.4.685,10.524.626,12.159a10.53,10.53,0,0,1-.425,2.836,3.907,3.907,0,0,1-2.736,2.8,5.611,5.611,0,0,1-2.085.145" transform="translate(-973.759 -533.685)" fill="#fef218"/>
            <path id="Tracé_215" data-name="Tracé 215" d="M1238.488,719.138a11.306,11.306,0,0,1,.761-5.462l.092.044a11.209,11.209,0,0,0-.752,5.405Z" transform="translate(-1002.628 -577.791)" fill="#131f2d"/>
            <path id="Tracé_216" data-name="Tracé 216" d="M1116.621,729.717l-.1-.026a61.479,61.479,0,0,1,3.475-9.214l.092.044a61.35,61.35,0,0,0-3.468,9.2" transform="translate(-903.935 -583.297)" fill="#131f2d"/>
            <path id="Tracé_217" data-name="Tracé 217" d="M1220.064,699.61l-.1,0c.141-6.1-2.687-14.62-2.715-14.7l.1-.033c.029.086,2.862,8.617,2.721,14.74" transform="translate(-985.481 -554.469)" fill="#131f2d"/>
            <path id="Tracé_218" data-name="Tracé 218" d="M1176.928,627.144a2.8,2.8,0,0,1-.562-.055.044.044,0,0,1,.02-.086c.015,0,1.5.335,1.982-.708a.044.044,0,0,1,.081.037,1.563,1.563,0,0,1-1.521.812" transform="translate(-952.357 -507.027)" fill="#020202"/>
            <path id="Tracé_219" data-name="Tracé 219" d="M1163.915,43.649a1.848,1.848,0,0,1-1.728-2.5l15.052-39.955a1.847,1.847,0,0,1,3.457,1.3l-15.052,39.955a1.848,1.848,0,0,1-1.729,1.2" transform="translate(-940.808 0.002)" fill="#00a3fe"/>
            <path id="Tracé_220" data-name="Tracé 220" d="M1241.628,118.815a1.847,1.847,0,0,1-1.047-3.37l55.63-38.187a1.847,1.847,0,1,1,2.09,3.046l-55.63,38.187a1.838,1.838,0,0,1-1.044.324" transform="translate(-1003.724 -62.285)" fill="#00a3fe"/>
            <path id="Tracé_221" data-name="Tracé 221" d="M1288.434,385.482h-.014l-26.179-.192a1.847,1.847,0,0,1,.027-3.694l26.179.192a1.847,1.847,0,0,1-.013,3.694" transform="translate(-1020.424 -308.939)" fill="#00a3fe"/>
          </g>
        </g>
      </g>
    </g>
  </g>
</svg>
