<svg xmlns="http://www.w3.org/2000/svg" xmlns:xlink="http://www.w3.org/1999/xlink" width="1920" height="200" viewBox="0 0 1920 200">
  <defs>
    <linearGradient id="linear-gradient" x1="0.411" y1="0.48" x2="-0.114" y2="0.679" gradientUnits="objectBoundingBox">
      <stop offset="0" stop-color="#fff"/>
      <stop offset="1" stop-color="#fffbd2"/>
    </linearGradient>
    <clipPath id="clip-path">
      <rect id="Rectangle_2" data-name="Rectangle 2" width="117.211" height="118.195" transform="translate(0 0)" fill="none"/>
    </clipPath>
    <clipPath id="clip-Web_1920_1">
      <rect width="1920" height="200"/>
    </clipPath>
  </defs>
  <g id="Web_1920_1" data-name="Web 1920 – 1" clip-path="url(#clip-Web_1920_1)">
    <rect width="1920" height="200" fill="#fff"/>
    <g id="Groupe_3" data-name="Groupe 3" transform="translate(0 81.805)">
      <path id="Tracé_1" data-name="Tracé 1" d="M116.433,0,64.767.419l-19.21,39.4L55.988,66.278l61.223,29.747Z" fill="url(#linear-gradient)"/>
      <g id="Groupe_2" data-name="Groupe 2">
        <g id="Groupe_1" data-name="Groupe 1" clip-path="url(#clip-path)">
          <path id="Tracé_2" data-name="Tracé 2" d="M29.356,80.676,27.83,74.649l-2.636,1.04L24.031,72.74l-4.723,1.708a5.134,5.134,0,0,0-3.374,5.21l.333,4.479L.189,103.019l.121,14.94,3.829-.031L23.214,89.5,27,86.9a5.82,5.82,0,0,0,2.351-6.229" fill="#e3bfc3"/>
          <path id="Tracé_3" data-name="Tracé 3" d="M4.137,117.928,18.85,96.008l-4.1-10.087L.19,103.019l.12,14.94Z" fill="#e1acb8"/>
          <path id="Tracé_4" data-name="Tracé 4" d="M19.926,94.4l3.288-4.9a2.624,2.624,0,0,1-3.191-.294c1.957,1.851-.1,5.194-.1,5.194" fill="#e1acb8"/>
          <path id="Tracé_5" data-name="Tracé 5" d="M15.2,85.39c.363-.313,1.41.205,1.866.462l-.22-.335a4.127,4.127,0,0,1-.579-1.38Z" fill="#e1acb8"/>
          <path id="Tracé_6" data-name="Tracé 6" d="M23.884,76.366a19.774,19.774,0,0,0-4.338,1.551,4.5,4.5,0,0,0-.855.413.172.172,0,0,1-.042.026c.008.022.017.048.027.084a18.959,18.959,0,0,0,.49,1.995.941.941,0,0,1,.049.213c.7.837.83,3.537.83,3.537a5.977,5.977,0,0,1,6.047,1.907l.775.908L27,86.9a5.82,5.82,0,0,0,2.351-6.228l-1.334-5.268c-1.372.348-2.757.645-4.138.957" fill="#e1acb8"/>
          <rect id="Rectangle_1" data-name="Rectangle 1" width="2.347" height="13.705" transform="translate(7.989 62.592) rotate(-21.525)" fill="#0c2232"/>
          <path id="Tracé_7" data-name="Tracé 7" d="M7.482,61.88h0a5.2,5.2,0,0,0-2.928,6.739l1.808,4.586A5.2,5.2,0,0,0,13.1,76.133a.213.213,0,0,0,.12-.276L7.758,62a.213.213,0,0,0-.276-.12" fill="#e45d0f"/>
          <path id="Tracé_8" data-name="Tracé 8" d="M9.32,62.448l4.737,12.017a1.2,1.2,0,0,0,1.559.677l11.737-4.627L21.735,56.262,10,60.889a1.2,1.2,0,0,0-.677,1.559" fill="#e45d0f"/>
          <path id="Tracé_9" data-name="Tracé 9" d="M29.518,80.795l-3.2-3.982.309-.122a.554.554,0,0,0,.22-.873L23.6,71.991c-.487.192-1.184-.267-1.944-1.184a1.771,1.771,0,0,0-2.011-.516L15.9,71.769a.952.952,0,0,0-.392,1.482l4.264,5.3a1.062,1.062,0,0,0,1.233.353.643.643,0,0,1,.762.184l5.977,7.432.285-.112a3.606,3.606,0,0,0,1.488-5.615" fill="#dadada"/>
          <path id="Tracé_10" data-name="Tracé 10" d="M29.518,80.795l-3.2-3.982.309-.122a.554.554,0,0,0,.22-.873L23.6,71.991c-.486.192-1.179-.264-1.936-1.175a1.779,1.779,0,0,0-2.019-.525l-.693.273a1.777,1.777,0,0,1,2.019.526,3.254,3.254,0,0,0,1.535,1.2,1.6,1.6,0,0,1,.89.551l2.75,3.25a.554.554,0,0,1-.219.873l-.31.122,3.2,3.982a3.606,3.606,0,0,1-1.1,5.433l.017.021.285-.112a3.606,3.606,0,0,0,1.488-5.615" fill="#f6f6f6"/>
          <path id="Tracé_11" data-name="Tracé 11" d="M25.8,62.934c1.552,3.936,2.237,7.309,1.549,7.58s-2.488-2.662-4.04-6.6-2.266-7.383-1.578-7.655S24.252,59,25.8,62.934" fill="#e9742d"/>
          <path id="Tracé_12" data-name="Tracé 12" d="M55.289,67.888h0a1.241,1.241,0,0,1-1.61-.7L43.248,40.729a1.241,1.241,0,0,1,2.309-.911l10.431,26.46a1.242,1.242,0,0,1-.7,1.61" fill="#0c2232"/>
          <path id="Tracé_13" data-name="Tracé 13" d="M28.319,54.809l-6.1,2.4a32.272,32.272,0,0,0,4.839,12.273l6.1-2.4a27.715,27.715,0,0,1,20.509.073l-10.4-26.394A27.711,27.711,0,0,1,28.319,54.809" fill="#dadada"/>
          <path id="Tracé_14" data-name="Tracé 14" d="M43.261,40.762A27.709,27.709,0,0,1,38.8,47.519a17.647,17.647,0,0,1,7.068,17.322l-.073.422a27.712,27.712,0,0,1,7.875,1.893Z" fill="#c7c6c7"/>
          <path id="Tracé_15" data-name="Tracé 15" d="M6.472,73.486h0A2.022,2.022,0,0,1,3.85,72.347L3.3,70.961a2.021,2.021,0,0,1,1.139-2.622Z" fill="#e9742d"/>
          <path id="Tracé_16" data-name="Tracé 16" d="M4.233,73.316h0a.958.958,0,0,1-1.243-.54l-.608-1.544a.958.958,0,0,1,.539-1.242Z" fill="#e45d0f"/>
          <path id="Tracé_17" data-name="Tracé 17" d="M3.691,69.959h0a.252.252,0,0,1,.141-.328l.97-.382.185.47-.969.382a.25.25,0,0,1-.327-.142" fill="#0c2232"/>
          <path id="Tracé_18" data-name="Tracé 18" d="M4.253,71.387h0a.253.253,0,0,1,.142-.328l.97-.382.185.47-.969.382a.252.252,0,0,1-.328-.142" fill="#0c2232"/>
          <path id="Tracé_19" data-name="Tracé 19" d="M4.816,72.815h0a.253.253,0,0,1,.142-.328l.97-.382.185.47-.969.382a.252.252,0,0,1-.328-.142" fill="#0c2232"/>
          <path id="Tracé_20" data-name="Tracé 20" d="M14.926,58.936l-3.34,1.317a.789.789,0,0,1,.444-1.024l1.46-.575Z" fill="#0c2232"/>
          <path id="Tracé_21" data-name="Tracé 21" d="M24.419,80.676h0a1.283,1.283,0,0,0,1.636.657l4-1.569a1.448,1.448,0,0,0,.857-1.756l-.018-.063a1.448,1.448,0,0,0-2.008-.9L25.035,78.98a1.283,1.283,0,0,0-.616,1.7" fill="#e3bfc3"/>
          <path id="Tracé_22" data-name="Tracé 22" d="M24.6,80.2v.054a.806.806,0,0,0,.241.557l.11.108a.938.938,0,0,0,1.117.15l.443-.249a.956.956,0,0,0-.837-1.715l-.5.209a.938.938,0,0,0-.576.886" fill="#e8cccf"/>
          <path id="Tracé_23" data-name="Tracé 23" d="M23.487,78.516h0A1.179,1.179,0,0,0,25.034,79l4.347-2.172a1.33,1.33,0,0,0,.656-1.672l-.021-.056a1.33,1.33,0,0,0-1.905-.675l-4.184,2.494a1.179,1.179,0,0,0-.44,1.6" fill="#e3bfc3"/>
          <path id="Tracé_24" data-name="Tracé 24" d="M23.618,78.069l0,.05a.741.741,0,0,0,.261.492l.109.091a.864.864,0,0,0,1.035.055l.387-.26a.879.879,0,0,0-.893-1.511l-.442.229a.861.861,0,0,0-.462.854" fill="#e8cccf"/>
          <path id="Tracé_25" data-name="Tracé 25" d="M25.416,82.74h0a1.088,1.088,0,0,0,1.341.666l3.931-1.2a1.23,1.23,0,0,0,.843-1.43l-.011-.054a1.23,1.23,0,0,0-1.641-.9L26.05,81.345a1.089,1.089,0,0,0-.634,1.395" fill="#e3bfc3"/>
          <path id="Tracé_26" data-name="Tracé 26" d="M25.6,82.351l0,.046a.687.687,0,0,0,.167.488l.086.1a.8.8,0,0,0,.936.2L27.178,83a.812.812,0,0,0-.595-1.509l-.436.144a.8.8,0,0,0-.547.712" fill="#e8cccf"/>
          <path id="Tracé_27" data-name="Tracé 27" d="M24.992,73.848l.079-.691a.516.516,0,0,0-.688-.544L19.1,74.521a4.851,4.851,0,0,0-3.187,4.921l.148,1.985,3.644,3.136.759-.855a6.2,6.2,0,0,0,1.223-6.14l-.194-.561,2.431-1.49a2.261,2.261,0,0,0,1.064-1.669" fill="#e3bfc3"/>
          <path id="Tracé_28" data-name="Tracé 28" d="M20.01,77.952l.46-.093a1.575,1.575,0,0,1,1.419.422,6.275,6.275,0,0,0-.2-.712l-.194-.561Z" fill="#e1acb8"/>
          <path id="Tracé_29" data-name="Tracé 29" d="M21.753,76.749l.032.082,2.143-1.313a2.264,2.264,0,0,0,1.065-1.67l.065-.57-2.6,1.479a1.611,1.611,0,0,0-.7,1.992" fill="#e1acb8"/>
          <path id="Tracé_30" data-name="Tracé 30" d="M22.326,76.7h0a1.147,1.147,0,0,0,1.534.364l3.629-2.186a1.293,1.293,0,0,0,.525-1.666l-.025-.053a1.294,1.294,0,0,0-1.894-.528l-3.449,2.488a1.146,1.146,0,0,0-.32,1.581" fill="#e3bfc3"/>
          <path id="Tracé_31" data-name="Tracé 31" d="M22.423,76.259l.008.048a.719.719,0,0,0,.287.46l.111.081a.839.839,0,0,0,1.008-.016l.359-.278a.855.855,0,0,0-.968-1.406l-.413.251a.839.839,0,0,0-.392.86" fill="#e8cccf"/>
          <path id="Tracé_32" data-name="Tracé 32" d="M5.243,117.919,18.808,98.106,14.079,86.074.18,101.91l.13,16.049Z" fill="#fff"/>
          <path id="Tracé_33" data-name="Tracé 33" d="M7.216,118.138,18.107,103l-5.9-14.967L0,101.363l.136,16.832Z" fill="#1e2445"/>
          <line id="Ligne_1" data-name="Ligne 1" y1="3.211" x2="2.493" transform="translate(13.598 101.952)" fill="none" stroke="#0a1522" stroke-linecap="round" stroke-linejoin="round" stroke-width="3"/>
          <path id="Tracé_34" data-name="Tracé 34" d="M16.322,102.6a1.142,1.142,0,1,0-.644,1.481,1.142,1.142,0,0,0,.644-1.481" fill="#333254"/>
        </g>
      </g>
    </g>
  </g>
</svg>
