<svg xmlns="http://www.w3.org/2000/svg" xmlns:xlink="http://www.w3.org/1999/xlink" width="1920" height="200" viewBox="0 0 1920 200">
  <defs>
    <linearGradient id="linear-gradient" x1="0.411" y1="0.48" x2="-0.114" y2="0.679" gradientUnits="objectBoundingBox">
      <stop offset="0" stop-color="#fff"/>
      <stop offset="1" stop-color="#fffbd2"/>
    </linearGradient>
    <clipPath id="clip-path">
      <rect id="Rectangle_2" data-name="Rectangle 2" width="116.679" height="118.516" fill="#fef218"/>
    </clipPath>
    <clipPath id="clip-Web_1920_1">
      <rect width="1920" height="200"/>
    </clipPath>
  </defs>
  <g id="Web_1920_1" data-name="Web 1920 – 1" clip-path="url(#clip-Web_1920_1)">
    <rect width="1920" height="200" fill="#fff"/>
    <g id="Groupe_3" data-name="Groupe 3" transform="translate(-0.468 84.805)">
      <path id="Tracé_1" data-name="Tracé 1" d="M116.433,0,64.767.419l-19.21,39.4L55.988,66.278l61.223,29.747Z" transform="translate(-0.532)" fill="url(#linear-gradient)"/>
      <g id="Groupe_2" data-name="Groupe 2" transform="translate(0 -10)">
        <g id="Groupe_1" data-name="Groupe 1" transform="translate(0 0)" clip-path="url(#clip-path)">
          <path id="Tracé_2" data-name="Tracé 2" d="M29.224,80.7,27.7,74.654,25.081,75.7,23.923,72.74l-4.7,1.713a5.149,5.149,0,0,0-3.359,5.224l.331,4.491L.189,103.1l.12,14.981,3.812-.031L23.11,89.55l3.774-2.606a5.856,5.856,0,0,0,2.34-6.246" transform="translate(-0.001 0.198)" fill="#e3bfc3"/>
          <path id="Tracé_3" data-name="Tracé 3" d="M4.119,118.015l14.646-21.98L14.682,85.921.19,103.066l.119,14.981Z" transform="translate(-0.001 0.233)" fill="#e1acb8"/>
          <path id="Tracé_4" data-name="Tracé 4" d="M19.926,94.419,23.2,89.506a2.6,2.6,0,0,1-3.177-.295c1.948,1.856-.1,5.208-.1,5.208" transform="translate(-0.09 0.242)" fill="#e1acb8"/>
          <path id="Tracé_5" data-name="Tracé 5" d="M15.2,85.393c.361-.314,1.4.206,1.858.463l-.219-.336a4.155,4.155,0,0,1-.576-1.384Z" transform="translate(-0.069 0.229)" fill="#e1acb8"/>
          <path id="Tracé_6" data-name="Tracé 6" d="M23.86,76.369a19.591,19.591,0,0,0-4.318,1.555,4.463,4.463,0,0,0-.851.414.171.171,0,0,1-.042.026c.008.022.017.048.027.084a19.126,19.126,0,0,0,.488,2,.95.95,0,0,1,.049.214c.7.839.826,3.547.826,3.547a5.924,5.924,0,0,1,6.02,1.912l.771.91.137-.1a5.857,5.857,0,0,0,2.34-6.245l-1.328-5.282c-1.366.349-2.744.647-4.119.96" transform="translate(-0.085 0.205)" fill="#e1acb8"/>
          <path id="Tracé_36" data-name="Tracé 36" d="M0,0,2.338-.006,2.3,13.723l-2.338.006Z" transform="translate(7.953 62.762) rotate(-21.525)" fill="#0c2232"/>
          <path id="Tracé_7" data-name="Tracé 7" d="M7.467,61.88h0a5.222,5.222,0,0,0-2.915,6.757l1.8,4.6a5.16,5.16,0,0,0,6.708,2.936.214.214,0,0,0,.119-.277L7.742,62a.212.212,0,0,0-.275-.12" transform="translate(-0.019 0.168)" fill="#fef218"/>
          <path id="Tracé_8" data-name="Tracé 8" d="M9.32,62.465l4.716,12.05a1.194,1.194,0,0,0,1.552.679l11.684-4.64L21.678,56.262,9.994,60.9a1.209,1.209,0,0,0-.674,1.563" transform="translate(-0.042 0.153)" fill="#fef218"/>
          <path id="Tracé_9" data-name="Tracé 9" d="M29.453,80.824l-3.188-3.993.308-.122a.557.557,0,0,0,.219-.875L23.567,72c-.485.193-1.179-.268-1.935-1.187a1.755,1.755,0,0,0-2-.517L15.9,71.773a.958.958,0,0,0-.39,1.486l4.245,5.316a1.053,1.053,0,0,0,1.227.354.637.637,0,0,1,.759.185l5.95,7.452.284-.112a3.628,3.628,0,0,0,1.481-5.63" transform="translate(-0.069 0.191)" fill="#dadada"/>
          <path id="Tracé_10" data-name="Tracé 10" d="M29.47,80.824l-3.188-3.993.308-.122a.557.557,0,0,0,.219-.875L23.584,72c-.484.193-1.174-.265-1.927-1.178a1.762,1.762,0,0,0-2.01-.526l-.69.274a1.761,1.761,0,0,1,2.01.527,3.242,3.242,0,0,0,1.528,1.2,1.6,1.6,0,0,1,.886.553l2.738,3.259a.557.557,0,0,1-.218.875l-.309.122L28.78,81.1a3.63,3.63,0,0,1-1.092,5.448l.017.021.284-.112a3.628,3.628,0,0,0,1.481-5.63" transform="translate(-0.086 0.191)" fill="#f6f6f6"/>
          <path id="Tracé_11" data-name="Tracé 11" d="M25.784,62.952c1.545,3.947,2.227,7.329,1.542,7.6S24.85,67.884,23.3,63.937s-2.256-7.4-1.571-7.676,2.506,2.744,4.051,6.691" transform="translate(-0.097 0.153)" fill="#e9742d"/>
          <path id="Tracé_12" data-name="Tracé 12" d="M55.234,67.966h0a1.233,1.233,0,0,1-1.6-.7L43.248,40.734a1.248,1.248,0,0,1,.7-1.614,1.231,1.231,0,0,1,1.6.7L55.93,66.352a1.248,1.248,0,0,1-.7,1.614" transform="translate(-0.196 0.106)" fill="#0c2232"/>
          <path id="Tracé_13" data-name="Tracé 13" d="M28.291,54.847l-6.068,2.41A32.5,32.5,0,0,0,27.04,69.563l6.067-2.41a27.4,27.4,0,0,1,20.416.073L43.166,40.761A27.669,27.669,0,0,1,28.291,54.847" transform="translate(-0.101 0.111)" fill="#dadada"/>
          <path id="Tracé_14" data-name="Tracé 14" d="M43.241,40.762A27.8,27.8,0,0,1,38.8,47.537a17.755,17.755,0,0,1,7.036,17.369l-.073.423a27.422,27.422,0,0,1,7.839,1.9Z" transform="translate(-0.176 0.111)" fill="#c7c6c7"/>
          <path id="Tracé_15" data-name="Tracé 15" d="M6.457,73.5h0a2.008,2.008,0,0,1-2.61-1.142L3.3,70.968a2.031,2.031,0,0,1,1.134-2.629Z" transform="translate(-0.014 0.186)" fill="#fef218"/>
          <path id="Tracé_16" data-name="Tracé 16" d="M4.224,73.325h0a.952.952,0,0,1-1.237-.541l-.605-1.548a.963.963,0,0,1,.537-1.245Z" transform="translate(-0.011 0.19)" fill="#fef218"/>
          <path id="Tracé_17" data-name="Tracé 17" d="M3.691,69.961h0a.253.253,0,0,1,.14-.329l.966-.383.184.471-.965.383a.249.249,0,0,1-.326-.142" transform="translate(-0.017 0.188)" fill="#0c2232"/>
          <path id="Tracé_18" data-name="Tracé 18" d="M4.253,71.389h0a.255.255,0,0,1,.141-.329l.966-.383.184.471-.965.383a.25.25,0,0,1-.327-.142" transform="translate(-0.019 0.192)" fill="#0c2232"/>
          <path id="Tracé_19" data-name="Tracé 19" d="M4.816,72.817h0a.255.255,0,0,1,.141-.329l.966-.383.184.471-.965.383a.25.25,0,0,1-.327-.142" transform="translate(-0.022 0.196)" fill="#0c2232"/>
          <path id="Tracé_20" data-name="Tracé 20" d="M14.911,58.937l-3.325,1.321a.793.793,0,0,1,.442-1.027l1.453-.577Z" transform="translate(-0.052 0.159)" fill="#0c2232"/>
          <path id="Tracé_21" data-name="Tracé 21" d="M24.418,80.686h0a1.274,1.274,0,0,0,1.629.659l3.979-1.573a1.454,1.454,0,0,0,.853-1.761l-.018-.063a1.439,1.439,0,0,0-2-.9l-3.831,1.938a1.291,1.291,0,0,0-.613,1.7" transform="translate(-0.11 0.209)" fill="#e3bfc3"/>
          <path id="Tracé_22" data-name="Tracé 22" d="M24.6,80.205v.054a.811.811,0,0,0,.24.559l.11.108a.929.929,0,0,0,1.112.15l.441-.25a.962.962,0,0,0,.372-1.29.949.949,0,0,0-1.206-.429l-.5.21a.941.941,0,0,0-.573.888" transform="translate(-0.112 0.215)" fill="#e8cccf"/>
          <path id="Tracé_23" data-name="Tracé 23" d="M23.486,78.528h0a1.169,1.169,0,0,0,1.54.483l4.327-2.178a1.337,1.337,0,0,0,.653-1.677l-.021-.056a1.32,1.32,0,0,0-1.9-.677l-4.165,2.5a1.187,1.187,0,0,0-.438,1.6" transform="translate(-0.106 0.202)" fill="#e3bfc3"/>
          <path id="Tracé_24" data-name="Tracé 24" d="M23.618,78.072l0,.05a.744.744,0,0,0,.26.493l.109.091a.855.855,0,0,0,1.03.055l.385-.261a.885.885,0,0,0,.247-1.21.871.871,0,0,0-1.136-.3l-.44.23a.865.865,0,0,0-.46.856" transform="translate(-0.107 0.209)" fill="#e8cccf"/>
          <path id="Tracé_25" data-name="Tracé 25" d="M25.416,82.748h0a1.082,1.082,0,0,0,1.335.668l3.913-1.2a1.235,1.235,0,0,0,.839-1.434l-.011-.054a1.223,1.223,0,0,0-1.634-.9l-3.812,1.523a1.1,1.1,0,0,0-.631,1.4" transform="translate(-0.115 0.217)" fill="#e3bfc3"/>
          <path id="Tracé_26" data-name="Tracé 26" d="M25.6,82.353l0,.046a.692.692,0,0,0,.166.489l.086.1a.791.791,0,0,0,.932.2l.39-.181a.816.816,0,0,0,.4-1.068.806.806,0,0,0-.992-.445l-.434.144a.8.8,0,0,0-.545.714" transform="translate(-0.116 0.221)" fill="#e8cccf"/>
          <path id="Tracé_27" data-name="Tracé 27" d="M24.951,73.851l.079-.693a.514.514,0,0,0-.685-.545l-5.255,1.913a4.866,4.866,0,0,0-3.173,4.934l.147,1.99L19.692,84.6l.756-.857a6.253,6.253,0,0,0,1.217-6.157l-.193-.563,2.42-1.494a2.268,2.268,0,0,0,1.059-1.674" transform="translate(-0.072 0.197)" fill="#e3bfc3"/>
          <path id="Tracé_28" data-name="Tracé 28" d="M20.01,77.955l.458-.093a1.561,1.561,0,0,1,1.413.423,6.328,6.328,0,0,0-.2-.714l-.193-.563Z" transform="translate(-0.091 0.209)" fill="#e1acb8"/>
          <path id="Tracé_29" data-name="Tracé 29" d="M21.752,76.758l.032.082,2.133-1.317a2.271,2.271,0,0,0,1.06-1.675l.065-.572-2.59,1.483a1.621,1.621,0,0,0-.7,2" transform="translate(-0.098 0.199)" fill="#e1acb8"/>
          <path id="Tracé_30" data-name="Tracé 30" d="M22.325,76.714h0a1.137,1.137,0,0,0,1.527.365l3.613-2.192a1.3,1.3,0,0,0,.523-1.671l-.025-.053a1.283,1.283,0,0,0-1.885-.529l-3.433,2.495a1.155,1.155,0,0,0-.319,1.585" transform="translate(-0.1 0.197)" fill="#e3bfc3"/>
          <path id="Tracé_31" data-name="Tracé 31" d="M22.423,76.262l.008.048a.722.722,0,0,0,.286.461l.11.081a.83.83,0,0,0,1-.016l.357-.279a.862.862,0,0,0,.158-1.191.846.846,0,0,0-1.122-.219l-.411.252a.843.843,0,0,0-.39.862" transform="translate(-0.102 0.204)" fill="#e8cccf"/>
          <path id="Tracé_32" data-name="Tracé 32" d="M5.22,118.006l13.5-19.867L14.016,86.074.18,101.953.31,118.046Z" transform="translate(-0.001 0.234)" fill="#fff"/>
          <path id="Tracé_33" data-name="Tracé 33" d="M7.183,118.22,18.025,103.04,12.152,88.033,0,101.4l.135,16.878Z" transform="translate(0 0.239)" fill="#1e2059"/>
          <line id="Ligne_1" data-name="Ligne 1" y1="3.22" x2="2.482" transform="translate(13.536 102.229)" fill="none" stroke="#0a1522" stroke-linecap="round" stroke-linejoin="round" stroke-width="3"/>
          <path id="Tracé_34" data-name="Tracé 34" d="M16.312,102.606a1.134,1.134,0,0,0-1.474-.646,1.149,1.149,0,0,0-.641,1.486,1.135,1.135,0,0,0,1.474.645,1.148,1.148,0,0,0,.641-1.485" transform="translate(-0.064 0.277)" fill="#333254"/>
        </g>
      </g>
      <path id="Tracé_35" data-name="Tracé 35" d="M7.493,107.875c-.47,1.5-7.8,8.026-7.8,8.026l.329-8.026S7.963,106.376,7.493,107.875Z" transform="translate(0 0.321)" fill="#1e2059"/>
    </g>
    <rect id="Rectangle_3" data-name="Rectangle 3" width="52" height="33" transform="matrix(0.616, -0.788, 0.788, 0.616, -14.162, 218.466)" fill="#fff"/>
  </g>
</svg>
