<?xml version="1.0" encoding="UTF-8"?>
<svg xmlns="http://www.w3.org/2000/svg" xmlns:xlink="http://www.w3.org/1999/xlink" viewBox="0 0 1920 1080">
  <defs>
    <style>
      .cls-1 {
        fill: #00bcf1;
      }

      .cls-2 {
        fill: #fff;
      }

      .cls-3 {
        fill: #08296c;
      }

      .cls-4 {
        fill: url(#linear-gradient);
      }

      .cls-4, .cls-5 {
        mix-blend-mode: multiply;
      }

      .cls-6 {
        isolation: isolate;
      }

      .cls-7 {
        fill: #8dd7f7;
      }

      .cls-5 {
        fill: url(#linear-gradient-2);
      }

      .cls-8 {
        fill: #005aa9;
      }
    </style>
    <linearGradient id="linear-gradient" x1="530.91" y1="-1129.87" x2="575.35" y2="-1075.56" gradientTransform="translate(1417.97 262.45) rotate(-148.84)" gradientUnits="userSpaceOnUse">
      <stop offset="0" stop-color="#fff"/>
      <stop offset="1" stop-color="#0089bb"/>
    </linearGradient>
    <linearGradient id="linear-gradient-2" x1="322.46" y1="-1470.53" x2="358.91" y2="-1425.97" gradientTransform="translate(502.9 1182.2) rotate(31.16)" xlink:href="#linear-gradient"/>
  </defs>
  <g class="cls-6">
    <g id="Calque_1" data-name="Calque 1">
      <rect class="cls-2" x="2" width="1920" height="1080"/>
      <g>
        <g>
          <path class="cls-3" d="m1106.39,1037.63c-189.31-27.06-355.31-73.43-557.26-89.56-133.91-10.69-347.77-12.83-551.25,49.02v89.01h1926.13v-67.19c-55.2,9.06-165.83,24.9-305.84,33.63-170.56,10.64-350.46,8.15-511.78-14.9Z"/>
          <path class="cls-8" d="m1457.62,1012.75c-163.66-.13-321.43-15.26-468.98-38.88-144.16-23.08-282.94-50.55-439.52-63.05-118.46-9.46-299.47-12.22-480.51,30.08,194.55-38.42,377.69-30.06,494.86-16.8,152.66,17.27,283.66,48.91,421.18,76.33,63.7,12.7,131.27,24.26,199.51,33.79,82.69,11.55,167.48,17.9,254.11,17.97,3.84,0,7.69.13,11.53.31,56.47-.43,112.92-2.49,168.38-5.95,140-8.74,250.63-24.58,305.84-33.63v-34.07s-310.22,34.05-466.38,33.92Z"/>
          <path class="cls-7" d="m1500.89,957.65c-161.78,8.47-324.46,1.82-480.86-13.76-152.81-15.22-302.27-35.07-462.61-39.2-32.18-.83-68.52-.95-107.5.26,44.88.07,86.01,1.8,121.64,4.2,157.77,10.61,299.28,36.4,445.72,57.73,149.88,21.83,309.11,35.05,472.68,33.22,156.08-1.75,434.04-39.34,434.04-39.34v-60.4s-268.74,49.22-423.12,57.3Z"/>
          <path class="cls-1" d="m1472.9,970.47c-162.55,6.52-324.45-2.09-479.15-19.54-151.16-17.05-298.48-38.69-458.29-44.74-32.08-1.21-68.38-1.78-107.46-1.03,44.84.61,85.77,2.83,121.13,5.66,156.58,12.5,295.36,39.98,439.52,63.05,147.55,23.62,305.31,38.88,468.98,38.88,250.71,0,466.38-33.92,466.38-33.92v-60.43s-296,45.85-451.11,52.07Z"/>
        </g>
        <g id="Shadow">
          <path class="cls-4" d="m8.12,1006.96c86.87-33.24,337.1-109.77,751.1-41.21,0,0-21.88,91.17-33.1,81.4C362.78,1007.68-3.93,1011.57,8.12,1006.96Z"/>
        </g>
      </g>
      <g>
        <g>
          <path class="cls-3" d="m815.8,37.19c188.91,19.79,354.55,53.72,556.08,65.51,133.63,7.82,347.03,9.38,550.08-35.86V1.74H-.08v49.15c55.08-6.62,165.48-18.21,305.19-24.6,170.2-7.78,349.72-5.97,510.69,10.9Z"/>
          <path class="cls-8" d="m465.31,51.01c163.31.1,320.75,11.16,467.98,28.44,143.86,16.88,282.34,36.98,438.59,46.12,118.2,6.92,298.83,8.94,479.5-22-194.14,28.1-376.88,21.99-493.81,12.29-152.34-12.64-283.06-35.77-420.28-55.83-63.56-9.29-130.99-17.74-199.08-24.72-82.51-8.45-167.12-13.1-253.57-13.14-3.83,0-7.67-.09-11.5-.23-56.35.31-112.68,1.82-168.02,4.35C165.4,32.68,55,44.27-.08,50.89v24.92s309.56-24.91,465.39-24.81Z"/>
          <path class="cls-7" d="m422.14,91.31c161.44-6.2,323.77-1.33,479.84,10.07,152.49,11.13,301.63,25.66,461.62,28.67,32.12.61,68.37.7,107.27-.19-44.78-.05-85.83-1.32-121.38-3.07-157.43-7.76-298.64-26.63-444.78-42.23-149.57-15.97-308.45-25.64-471.68-24.3C277.29,61.54-.08,89.04-.08,89.04v44.18s268.17-36,422.22-41.91Z"/>
          <path class="cls-1" d="m450.07,81.93c162.21-4.77,323.76,1.53,478.13,14.29,150.84,12.47,297.85,28.3,457.32,32.73,32.01.89,68.23,1.3,107.24.76-44.75-.45-85.59-2.07-120.88-4.14-156.25-9.15-294.73-29.24-438.59-46.12-147.24-17.28-304.67-28.44-467.98-28.44C215.13,51.01-.08,75.82-.08,75.82v44.2s295.37-33.54,450.15-38.09Z"/>
        </g>
        <g id="Shadow-2" data-name="Shadow">
          <path class="cls-5" d="m1911.71,50.23c-86.95,22.04-337.39,72.78-751.76,27.32,0,0,21.9-60.44,33.13-53.97,363.66,26.17,730.69,23.59,718.63,26.65Z"/>
        </g>
      </g>
    </g>
  </g>
</svg>