<svg xmlns="http://www.w3.org/2000/svg" xmlns:xlink="http://www.w3.org/1999/xlink" width="1920" height="300" viewBox="0 0 1920 300">
  <defs>
    <clipPath id="clip-path">
      <rect id="Rectangle_7" data-name="Rectangle 7" width="249.566" height="222.774" fill="none"/>
    </clipPath>
    <clipPath id="clip-path-4">
      <rect id="Rectangle_2" data-name="Rectangle 2" width="41.855" height="41.856" fill="none"/>
    </clipPath>
    <clipPath id="clip-path-5">
      <rect id="Rectangle_3" data-name="Rectangle 3" width="28.471" height="38.354" fill="none"/>
    </clipPath>
    <clipPath id="clip-path-6">
      <rect id="Rectangle_4" data-name="Rectangle 4" width="24.01" height="35.204" fill="none"/>
    </clipPath>
    <clipPath id="clip-Web_1920_1">
      <rect width="1920" height="300"/>
    </clipPath>
  </defs>
  <g id="Web_1920_1" data-name="Web 1920 – 1" clip-path="url(#clip-Web_1920_1)">
    <rect width="1920" height="300" fill="#fff"/>
    <g id="Groupe_17" data-name="Groupe 17" transform="translate(835 23.507)">
      <g id="Groupe_16" data-name="Groupe 16" clip-path="url(#clip-path)">
        <g id="Groupe_2" data-name="Groupe 2">
          <g id="Groupe_1" data-name="Groupe 1" clip-path="url(#clip-path)">
            <path id="Tracé_1" data-name="Tracé 1" d="M222.852,193.708c-12.417-9.433-33.652-32.843-5.688-69.59,34.582-45.442-6.833-64.086-46.531-62.14C138.7,63.543,102.753,23.392,66.9,30.569c-47.59,9.525-16.69,50.507-48.957,72.587-27.519,18.83-15.7,76.205,20.111,90.552Z" transform="translate(-1.254 -13.461)" fill="#e8e8f9"/>
            <path id="Tracé_2" data-name="Tracé 2" d="M404.462,271.5a6.855,6.855,0,0,0,3.093-5.2c.416-4.772.4-15.86-8.673-16.166-5.506-.185-9.2,9.591-6.029,15.943,2.724,5.457,7.678,7.931,11.609,5.422" transform="translate(-177.474 -113.335)" fill="#e8e8f9"/>
            <path id="Tracé_3" data-name="Tracé 3" d="M299.188,61.582s10.378,11.219,20.854,3.752c8.468-6.036-1.765-14.355-9.576-15.463-8.475-1.2-18.117,3.648-11.278,11.711" transform="translate(-134.513 -22.515)" fill="#e8e8f9"/>
            <path id="Tracé_4" data-name="Tracé 4" d="M26.147,120.437s10.678-10.274,3.24-20.286c-6.013-8.094-13.881,1.985-14.807,9.577-1,8.238,3.881,17.492,11.567,10.709" transform="translate(-6.547 -44.024)" fill="#e8e8f9"/>
            <path id="Tracé_5" data-name="Tracé 5" d="M246.974,325.953c0,4.1-50.83,7.414-113.533,7.414s-113.533-3.319-113.533-7.414,50.83-7.415,113.533-7.415,113.533,3.32,113.533,7.415" transform="translate(-9.02 -144.332)" fill="#e8e8f9"/>
            <path id="Tracé_6" data-name="Tracé 6" d="M404.088,162.109c-5.252,8.307,2.441,7.177-1.38,13.418-3.483,5.689-11.2,2.656-8.184,13.952.66,2.471-.737,4.73-3.069,6.252a9.943,9.943,0,0,1-11.429-.311c-.257-.184-.507-.383-.747-.592a10.128,10.128,0,0,1-3.374-9.4,11.171,11.171,0,0,1,5.278-8.3c7.887-4.533.649-14.7,7.7-16.809,8.508-2.544,8.1-5.783,13.273-11.439,5.48-6,9.047,1.971,1.928,13.229" transform="translate(-170.26 -66.528)" fill="#542bda"/>
            <path id="Tracé_7" data-name="Tracé 7" d="M403.127,168.665c-.146.238-12.213,19.995-20.187,36.33-.257-.185-.507-.383-.746-.593,8-16.349,19.994-35.984,20.14-36.222a.465.465,0,0,1,.793.486" transform="translate(-173.175 -76.103)" fill="#3700b3"/>
            <path id="Tracé_8" data-name="Tracé 8" d="M403.827,199.992c-9.214,8.65.727,9.719-6.039,16.257-6.167,5.96-14.8-.3-14.68,14.732.025,3.288-2.441,5.65-5.834,6.793a12.785,12.785,0,0,1-14.127-4.067q-.391-.469-.738-.978a13.019,13.019,0,0,1-1.174-12.784c1.634-3.7,4.436-7.313,9.243-8.634,11.277-3.1,5.542-18.09,15-18.442,11.41-.427,11.949-4.59,20.206-9.965,8.752-5.7,10.626,5.367-1.861,17.089" transform="translate(-163.156 -82.175)" fill="#6b5eff"/>
            <path id="Tracé_9" data-name="Tracé 9" d="M401.9,205.426c-.258.249-21.641,20.956-36.827,38.721-.261-.313-.508-.64-.738-.978,15.226-17.774,36.476-38.354,36.735-38.6a.6.6,0,1,1,.83.86" transform="translate(-165.085 -92.614)" fill="#542bda"/>
            <path id="Tracé_10" data-name="Tracé 10" d="M29.972,19.836c3.737,9.09-3.645,6.646-.961,13.454,2.447,6.206,10.571,4.553,5.648,15.157-1.077,2.32-.091,4.786,1.942,6.688a9.944,9.944,0,0,0,11.311,1.671c.285-.137.565-.289.837-.454A10.127,10.127,0,0,0,53.7,47.679a11.171,11.171,0,0,0-3.763-9.09C42.95,32.761,51.837,24,45.253,20.7c-7.94-3.976-6.981-7.1-11.095-13.562-4.36-6.854-9.251.377-4.186,12.7" transform="translate(-12.605 -2.035)" fill="#542bda"/>
            <path id="Tracé_11" data-name="Tracé 11" d="M39.663,27.813c.1.26,8.571,21.805,13.6,39.272.285-.137.565-.289.837-.454-5.055-17.487-13.47-38.9-13.573-39.16a.465.465,0,0,0-.865.342" transform="translate(-17.957 -12.314)" fill="#3700b3"/>
            <path id="Tracé_12" data-name="Tracé 12" d="M6.727,59.949c7.881,9.879-2.11,9.515,3.65,16.955,5.251,6.78,14.686,1.821,12.42,16.681-.5,3.251,1.608,5.941,4.8,7.558a12.786,12.786,0,0,0,14.563-2q.454-.409.871-.862a13.019,13.019,0,0,0,2.992-12.484c-1.087-3.9-3.344-7.873-7.912-9.869-10.717-4.684-2.9-18.7-12.209-20.4C14.672,53.47,14.734,49.273,7.331,42.77c-7.846-6.893-11.285,3.791-.6,17.179" transform="translate(0 -18.403)" fill="#6b5eff"/>
            <path id="Tracé_13" data-name="Tracé 13" d="M20.476,67.121c.219.284,18.419,23.837,30.907,43.592.3-.272.594-.561.87-.862C39.727,90.081,21.642,66.673,21.421,66.389a.6.6,0,1,0-.945.732" transform="translate(-9.221 -29.976)" fill="#542bda"/>
            <path id="Tracé_14" data-name="Tracé 14" d="M186.87,44.914c-3.886-2.661-13.618,3.9-18.708,11.873l4.515-12.648a27.71,27.71,0,0,1,8.965-4.99c6.952-2.464,13.92-6.324,10.027-8.99-3.648-2.5-12.449,3.135-17.724,10.428l5.8-16.242a18.265,18.265,0,0,1,5.066-2.669c4.381-1.553,8.773-3.985,6.319-5.666-2.129-1.458-7.043,1.478-10.4,5.571l1.879-5.264a26.548,26.548,0,0,1,4.008-5.708C191.08,5.992,194.455.8,191.012.044s-9.084,8.3-9.972,16.472l-.967,2.709c.751-5.947-1.387-13.147-4.369-13.4-2.963-.253-1.1,4.41,1.3,8.386a16.611,16.611,0,0,1,2.475,6.672l-4.568,12.795c1.162-9.421-2.224-20.782-6.942-21.185-4.7-.4-1.753,7,2.068,13.306a26.419,26.419,0,0,1,3.922,10.545l-5.477,15.343c.971-9.31-2.359-20.608-7-20.645C157.9,31.012,159,36.068,163.276,43.2a30.337,30.337,0,0,1,4.133,11.5l-2.58,7.227a2.378,2.378,0,0,0,1.328.474l1.027-2.876a26.517,26.517,0,0,1,9.66-5.625c6.952-2.464,13.92-6.324,10.027-8.99" transform="translate(-72.196 0)" fill="#6b5eff"/>
            <path id="Tracé_15" data-name="Tracé 15" d="M52.233,293.778h2.154l-.076-.066a26.506,26.506,0,0,1-1.742-11.042c.223-7.372-.849-15.265-4.745-12.6s-1.3,14.107,4.286,21.738l-10.152-8.791a27.712,27.712,0,0,1-1.4-10.164c.223-7.373-.849-15.265-4.745-12.6-3.651,2.495-1.59,12.739,3.3,20.3l-13.037-11.29a18.279,18.279,0,0,1-.651-5.689c.141-4.646-.535-9.62-2.99-7.943-2.131,1.456-1.175,7.1,1.424,11.711l-4.225-3.659a26.55,26.55,0,0,1-3.867-5.8c-2.687-5.834-6.305-10.862-8.255-7.926s4.44,11.473,11.739,15.264l2.174,1.883c-5.27-2.855-12.756-3.472-14.074-.785-1.31,2.669,3.71,2.628,8.288,1.825a16.6,16.6,0,0,1,7.115.111l10.27,8.894c-8.359-4.5-20.175-5.459-22.261-1.208-2.078,4.236,5.887,4.17,13.152,2.9a26.418,26.418,0,0,1,11.25.166l12.315,10.665c-8.325-4.279-20.062-5.27-21.779-.954-1.324,3.327,3.786,4.138,11.987,2.738a30.343,30.343,0,0,1,12.215.315Z" transform="translate(-3.232 -112.861)" fill="#6b5eff"/>
            <path id="Tracé_16" data-name="Tracé 16" d="M239.726,79.285V215.671a2.289,2.289,0,0,1-2.29,2.289H50.819a2.288,2.288,0,0,1-2.289-2.289V79.285A2.29,2.29,0,0,1,50.819,77H237.436a2.289,2.289,0,0,1,2.29,2.29" transform="translate(-21.989 -34.887)" fill="#1e2059"/>
            <path id="Tracé_17" data-name="Tracé 17" d="M240.356,80.054V216.44a2.289,2.289,0,0,1-2.29,2.289H51.449a2.284,2.284,0,0,1-1.529-.585L239.907,78.692a2.285,2.285,0,0,1,.448,1.362" transform="translate(-22.619 -35.656)" fill="#001030"/>
            <path id="Tracé_18" data-name="Tracé 18" d="M238.793,89.459V214.506a2.522,2.522,0,0,1-2.522,2.521H60.992a2.521,2.521,0,0,1-2.521-2.521V89.459a2.521,2.521,0,0,1,2.521-2.522h175.28a2.522,2.522,0,0,1,2.522,2.522" transform="translate(-26.494 -39.392)" fill="#fff"/>
            <path id="Tracé_19" data-name="Tracé 19" d="M238.793,89.459v8.773H58.471V89.459a2.521,2.521,0,0,1,2.521-2.522h175.28a2.522,2.522,0,0,1,2.522,2.522" transform="translate(-26.494 -39.392)" fill="#e8e8f9"/>
            <path id="Tracé_20" data-name="Tracé 20" d="M114.36,96.562h0a1.5,1.5,0,0,0,1.5,1.5H247.3a1.5,1.5,0,1,0,0-3H115.86a1.5,1.5,0,0,0-1.5,1.5" transform="translate(-51.817 -43.074)" fill="#fff"/>
            <path id="Tracé_21" data-name="Tracé 21" d="M74.521,96.54v1.111a.414.414,0,0,1-.621.359l-.962-.556-.962-.555a.414.414,0,0,1,0-.717l.962-.556.962-.556a.414.414,0,0,1,.621.359Z" transform="translate(-32.519 -43.052)" fill="#2e3062"/>
            <path id="Tracé_22" data-name="Tracé 22" d="M85.954,96.54v1.111a.414.414,0,0,0,.621.359l.962-.556L88.5,96.9a.414.414,0,0,0,0-.717l-.962-.556-.962-.556a.414.414,0,0,0-.621.359Z" transform="translate(-38.946 -43.052)" fill="#2e3062"/>
          </g>
        </g>
        <text id="RECHERCHE" transform="translate(67.258 88.493)" fill="#524e84" font-size="19" font-family="SegoeUI, Segoe UI"><tspan x="0" y="0">RECHERCHE</tspan></text>
        <g id="Groupe_13" data-name="Groupe 13">
          <g id="Groupe_12" data-name="Groupe 12" clip-path="url(#clip-path)">
            <path id="Tracé_23" data-name="Tracé 23" d="M233.671,205.3h0a6.467,6.467,0,0,1-6.467,6.467H115.088a6.467,6.467,0,0,1,0-12.934H227.2a6.467,6.467,0,0,1,6.467,6.467" transform="translate(-49.217 -90.092)" fill="#e8e8f9"/>
            <path id="Tracé_24" data-name="Tracé 24" d="M310.728,198.831H292.957v12.934h17.771a6.467,6.467,0,1,0,0-12.934" transform="translate(-132.741 -90.092)" fill="#fef218"/>
            <path id="Tracé_25" data-name="Tracé 25" d="M316.379,208.617a3.046,3.046,0,1,1,4.3-.173,3.05,3.05,0,0,1-4.3.173m3.45-3.739a2.041,2.041,0,1,0,.116,2.884,2.044,2.044,0,0,0-.116-2.884" transform="translate(-142.91 -92.132)" fill="#fff"/>
            <path id="Tracé_26" data-name="Tracé 26" d="M310.9,215.918a.5.5,0,0,1-.029-.71l3.365-3.646a.5.5,0,0,1,.738.681l-3.365,3.646a.5.5,0,0,1-.71.028" transform="translate(-140.799 -95.787)" fill="#fff"/>
            <path id="Tracé_27" data-name="Tracé 27" d="M108.743,248.719h0a2,2,0,0,0,2,2H231.49a2,2,0,1,0,0-4H110.742a2,2,0,0,0-2,2" transform="translate(-49.272 -111.791)" fill="#e8e8f9"/>
            <path id="Tracé_28" data-name="Tracé 28" d="M108.743,266.676h0a2,2,0,0,0,2,2H231.49a2,2,0,1,0,0-4H110.742a2,2,0,0,0-2,2" transform="translate(-49.272 -119.927)" fill="#e8e8f9"/>
            <path id="Tracé_29" data-name="Tracé 29" d="M108.743,284.634h0a2,2,0,0,0,2,2H231.49a2,2,0,1,0,0-4H110.742a2,2,0,0,0-2,2" transform="translate(-49.272 -128.064)" fill="#e8e8f9"/>
            <path id="Tracé_30" data-name="Tracé 30" d="M89.2,236.066l.543-2.766-2.591-.509a6.319,6.319,0,0,0-.343-2.025l2.135-1.434-1.572-2.34-2.043,1.373a6.313,6.313,0,0,0-2.1-1.412l.509-2.592-2.766-.543-.524,2.671a6.3,6.3,0,0,0-1.683.328l-1.435-2.136-2.34,1.572,1.373,2.044a6.3,6.3,0,0,0-1.412,2.1l-2.265-.445-.543,2.766,2.345.46a6.287,6.287,0,0,0,.5,2.135l-2.044,1.373,1.572,2.34,2.136-1.435a6.305,6.305,0,0,0,2.06,1.2L78.2,241.4l2.766.543.555-2.826a6.268,6.268,0,0,0,1.791-.473l1.373,2.044,2.34-1.572-1.434-2.135a6.284,6.284,0,0,0,.94-1.434Zm-6.946-1.107a2.583,2.583,0,1,1,.7-3.585,2.586,2.586,0,0,1-.7,3.585" transform="translate(-32.689 -101.415)" fill="#e8e8f9"/>
            <path id="Tracé_31" data-name="Tracé 31" d="M360.592,131.786l.3-1.512L359.473,130a3.473,3.473,0,0,0-.187-1.106l1.167-.784-.859-1.279-1.117.751a3.442,3.442,0,0,0-1.146-.772l.278-1.416-1.512-.3-.287,1.46a3.439,3.439,0,0,0-.92.179l-.784-1.168-1.279.859.75,1.117a3.451,3.451,0,0,0-.771,1.147l-1.238-.243-.3,1.512,1.281.252a3.455,3.455,0,0,0,.272,1.167l-1.117.75.859,1.278,1.167-.784a3.447,3.447,0,0,0,1.126.654l-.28,1.425,1.512.3.3-1.545a3.426,3.426,0,0,0,.978-.258l.75,1.117,1.279-.859-.784-1.167a3.425,3.425,0,0,0,.513-.784Zm-3.8-.605a1.412,1.412,0,1,1,.384-1.96,1.413,1.413,0,0,1-.384,1.96" transform="translate(-159.164 -56.681)" fill="#e8e8f9"/>
            <path id="Tracé_32" data-name="Tracé 32" d="M83.8,160.116l.3-1.512-1.416-.278a3.458,3.458,0,0,0-.188-1.106l1.167-.784-.859-1.279-1.117.751a3.442,3.442,0,0,0-1.146-.772l.278-1.416-1.512-.3-.286,1.46a3.439,3.439,0,0,0-.92.179l-.784-1.168-1.279.859.75,1.117a3.453,3.453,0,0,0-.772,1.147l-1.238-.243-.3,1.512,1.281.252a3.455,3.455,0,0,0,.272,1.167l-1.117.75.859,1.278,1.167-.784a3.448,3.448,0,0,0,1.126.654l-.28,1.425,1.512.3.3-1.545a3.427,3.427,0,0,0,.978-.258l.75,1.117,1.279-.859-.784-1.167a3.433,3.433,0,0,0,.514-.784Zm-3.8-.605a1.412,1.412,0,1,1,.384-1.96,1.414,1.414,0,0,1-.384,1.96" transform="translate(-33.746 -69.518)" fill="#e8e8f9"/>
            <path id="Tracé_33" data-name="Tracé 33" d="M59.869,359.161c0,2.047-12.448,3.707-27.8,3.707s-27.8-1.66-27.8-3.707,12.447-3.707,27.8-3.707,27.8,1.66,27.8,3.707" transform="translate(-1.932 -161.059)" fill="#e8e8f9"/>
            <path id="Tracé_34" data-name="Tracé 34" d="M68.786,185.318A17.863,17.863,0,0,0,79.841,197.3a25.466,25.466,0,0,0,7.609-2.889A22.981,22.981,0,0,1,86.2,189.4c-3.123.869-5.821,1.333-5.821,1.333-6.593-3.056-10.592-17.684-10.592-17.684-3.919,3.72-1.005,12.267-1.005,12.267" transform="translate(-30.695 -78.411)" fill="#1e2059"/>
            <path id="Tracé_35" data-name="Tracé 35" d="M26.785,333.064,24,336.8a5.96,5.96,0,0,0,2.575,2.953l3.337-4.293Z" transform="translate(-10.872 -150.914)" fill="#fba691"/>
            <path id="Tracé_36" data-name="Tracé 36" d="M22.739,341.177s1.3-.281,1.752.17,1.567,6.59,2.615,7.933-.007,2.056-.652,2.328-9.892-8.966-9.892-8.966,2.286-3.158,3.389-3.771,1.619,1.656,2.789,2.306" transform="translate(-7.504 -153.498)" fill="#ffaa01"/>
            <path id="Tracé_37" data-name="Tracé 37" d="M28.046,349.084a.235.235,0,0,1-.134-.131.248.248,0,0,1,.127-.319,3.578,3.578,0,0,1,1.759-.294,1.625,1.625,0,0,1,1.279,1.1.247.247,0,0,1-.164.3.233.233,0,0,1-.292-.164,1.157,1.157,0,0,0-.912-.756,3.169,3.169,0,0,0-1.488.262.23.23,0,0,1-.176,0" transform="translate(-12.639 -157.822)" fill="#fff"/>
            <path id="Tracé_38" data-name="Tracé 38" d="M27.767,347.288a.237.237,0,0,1-.134-.131.248.248,0,0,1,.127-.319,3.583,3.583,0,0,1,1.759-.295,1.624,1.624,0,0,1,1.279,1.1.247.247,0,0,1-.163.3.233.233,0,0,1-.292-.164,1.158,1.158,0,0,0-.913-.756,3.149,3.149,0,0,0-1.487.262.232.232,0,0,1-.176,0" transform="translate(-12.512 -157.008)" fill="#fff"/>
            <path id="Tracé_39" data-name="Tracé 39" d="M28.828,350.973a.232.232,0,0,1-.133-.131.247.247,0,0,1,.126-.319,3.579,3.579,0,0,1,1.759-.294,1.621,1.621,0,0,1,1.279,1.1.247.247,0,0,1-.163.3.233.233,0,0,1-.292-.164,1.158,1.158,0,0,0-.913-.756,3.15,3.15,0,0,0-1.487.262.232.232,0,0,1-.176,0" transform="translate(-12.993 -158.678)" fill="#fff"/>
            <path id="Tracé_40" data-name="Tracé 40" d="M60.383,344.521l.423,4.64a5.961,5.961,0,0,0,3.89.472L64.3,344.21Z" transform="translate(-27.36 -155.964)" fill="#fba691"/>
            <path id="Tracé_41" data-name="Tracé 41" d="M63.454,352.029s.816-1.129,1.478-1.091,5.818,4.018,7.569,4.328,1.431,1.6,1.12,2.263-13.869.282-13.869.282-.5-4.377-.073-5.622,2.413.154,3.775-.159" transform="translate(-26.963 -159.012)" fill="#ffaa01"/>
            <path id="Tracé_42" data-name="Tracé 42" d="M72.6,356.754a.233.233,0,0,1-.186-.016.248.248,0,0,1-.107-.326,3.581,3.581,0,0,1,1.167-1.349,1.624,1.624,0,0,1,1.684.028.246.246,0,0,1,.067.336.232.232,0,0,1-.329.06,1.157,1.157,0,0,0-1.186,0,3.163,3.163,0,0,0-.978,1.15.231.231,0,0,1-.132.116" transform="translate(-32.749 -160.781)" fill="#fff"/>
            <path id="Tracé_43" data-name="Tracé 43" d="M71.235,355.549a.233.233,0,0,1-.186-.016.248.248,0,0,1-.107-.327,3.581,3.581,0,0,1,1.167-1.349,1.625,1.625,0,0,1,1.684.028.247.247,0,0,1,.067.337.233.233,0,0,1-.33.06,1.158,1.158,0,0,0-1.185,0,3.154,3.154,0,0,0-.978,1.151.231.231,0,0,1-.132.116" transform="translate(-32.133 -160.235)" fill="#fff"/>
            <path id="Tracé_44" data-name="Tracé 44" d="M74.4,357.71a.233.233,0,0,1-.186-.016.248.248,0,0,1-.107-.327,3.582,3.582,0,0,1,1.167-1.349,1.623,1.623,0,0,1,1.684.028.247.247,0,0,1,.067.336.233.233,0,0,1-.33.06,1.157,1.157,0,0,0-1.185,0,3.154,3.154,0,0,0-.978,1.151.231.231,0,0,1-.132.116" transform="translate(-33.569 -161.214)" fill="#fff"/>
            <path id="Tracé_45" data-name="Tracé 45" d="M43.064,252.506l-2.818,23.319a77.956,77.956,0,0,0-4.937,7.819c-2.022,3.683-7.411,13.242-7.411,13.242l3.259,2.485,17.852-18.5,4.753-28.592Z" transform="translate(-12.641 -114.309)" fill="#1e2059"/>
            <path id="Tracé_46" data-name="Tracé 46" d="M30.965,335.551a3.6,3.6,0,0,1-1.479,1.656l-3.785-3.2a5.7,5.7,0,0,1,1.29-1.751Z" transform="translate(-11.645 -150.549)" fill="#2e3062"/>
            <path id="Tracé_47" data-name="Tracé 47" d="M29.267,253.652a139.42,139.42,0,0,0,11.561,22s.976,9.38,2.645,14.374c.731,2.186,2.145,12.545,2.145,12.545l4.956-.225-1.279-28.8-5.244-20.861Z" transform="translate(-13.261 -114.492)" fill="#2e3062"/>
            <path id="Tracé_48" data-name="Tracé 48" d="M64.1,343.18a4.166,4.166,0,0,1,0,2.572l-5.736.16a6.613,6.613,0,0,1-.237-2.508Z" transform="translate(-26.322 -155.497)" fill="#524e84"/>
            <path id="Tracé_49" data-name="Tracé 49" d="M52.216,169.336c.748.932,2.246,10.433,2.481,20.076.006.223.01.445.017.666q.036,1.531.066,3.072c.021,1.012.039,2.022.056,3.024.027,1.641.051,3.256.071,4.812,0,.177,0,.353.006.528.018,1.517.032,2.971.043,4.33,0,.178,0,.353,0,.528.016,2.039.025,3.844.027,5.293v0c0,.2,0,.4,0,.585,0,1.013,0,1.817-.01,2.36a50.955,50.955,0,0,1-7.2,1.4l-.191.023-.32.037-.08.008c-.416.046-.83.086-1.248.12a48.218,48.218,0,0,1-6.19.112c-.182-.009-.361-.018-.543-.03-.161-.008-.324-.018-.488-.03-.073,0-.147-.008-.22-.015l-.412-.03a50.237,50.237,0,0,1-9.094-1.6c-.016-1.194-.03-3.626-.035-6.763,0-.172,0-.346,0-.523,0-3.46.01-7.708.051-12.081,0-.346.007-.691.012-1.039,0-.4.007-.8.012-1.209,0-.068,0-.137,0-.2,0-.094,0-.189,0-.284,0-.19,0-.382.008-.57q0-.416.012-.828c0-.209.006-.419.008-.628.006-.417.014-.833.02-1.247.147-8.682.439-16.662,1-18.692a1.476,1.476,0,0,1,.161-.405,2.529,2.529,0,0,1,.215-.276,4.681,4.681,0,0,1,.36-.365A26.163,26.163,0,0,1,35,166.7c.19-.11.382-.219.572-.328.029-.016,4.445-1.505,4.472-1.522l4.619.323s6.455,2.791,7.553,4.161" transform="translate(-13.12 -74.695)" fill="#6b5eff"/>
            <path id="Tracé_50" data-name="Tracé 50" d="M33.642,195.724a.241.241,0,0,0-.432-.147,23.844,23.844,0,0,0-3.638,7.218c-.17.541-.317,1.066-.444,1.565,0,.209-.006.419-.009.628,0,.275-.008.551-.011.828,0,.189-.007.38-.007.57,0,.1,0,.19-.005.284,0,.068,0,.137,0,.2a29.117,29.117,0,0,1,.939-3.95,23.368,23.368,0,0,1,3.56-7.057.242.242,0,0,0,.049-.144" transform="translate(-13.183 -88.574)" fill="#542bda"/>
            <path id="Tracé_51" data-name="Tracé 51" d="M38.929,234.758h0a21.38,21.38,0,0,0,11.939-4.192,27.327,27.327,0,0,0,4.7-4.158.24.24,0,1,0-.367-.309,26.831,26.831,0,0,1-4.616,4.083,20.9,20.9,0,0,1-11.653,4.1.24.24,0,0,0,0,.48" transform="translate(-17.53 -102.408)" fill="#542bda"/>
            <path id="Tracé_52" data-name="Tracé 52" d="M47.559,242.594a20.317,20.317,0,0,0,8.841-2.58.24.24,0,1,0-.24-.415c-.051.029-5.13,2.93-9.632,2.464a.24.24,0,1,0-.05.477,10.357,10.357,0,0,0,1.082.055" transform="translate(-20.961 -108.549)" fill="#542bda"/>
            <path id="Tracé_53" data-name="Tracé 53" d="M45.258,174.962a20.33,20.33,0,0,0,7.83-4.848.24.24,0,1,0-.343-.336c-.041.042-4.16,4.194-8.625,4.947a.24.24,0,0,0,.08.473,10.421,10.421,0,0,0,1.057-.236" transform="translate(-19.901 -76.895)" fill="#542bda"/>
            <path id="Tracé_54" data-name="Tracé 54" d="M39.983,137.394c0,4.217,2.6,7.124,6.814,7.124a6.994,6.994,0,0,0,7.156-7.342c0-4.218-2.5-7.413-6.714-7.413-5.058,0-7.256,3.414-7.256,7.631" transform="translate(-18.117 -58.797)" fill="#2e3062"/>
            <path id="Tracé_55" data-name="Tracé 55" d="M39.4,136.624s-1.474-2.229-.695-3.947c.807-1.778.4-1.389.6-2.724a2.463,2.463,0,0,1,2.339-2.078c1.165-.193.367-1.533,1.982-2.015s2.908,1.2,3.946.448,3.589-1.127,4.305,0a1.948,1.948,0,0,0,2.117,1.083,1.814,1.814,0,0,1,1.32,2.74c-.832,1.335-2.232.805-2.039,1.724s1.378,2.538-.209,4.6c-.481.623-13.664.171-13.664.171" transform="translate(-17.432 -56.909)" fill="#2e3062"/>
            <path id="Tracé_56" data-name="Tracé 56" d="M39.788,146.388s-1.171-1.562-2.043-.27.361,5.107,2.494,4.176Z" transform="translate(-16.975 -65.975)" fill="#fb876b"/>
            <path id="Tracé_57" data-name="Tracé 57" d="M40.153,150.248a.18.18,0,0,1-.173-.132,2.787,2.787,0,0,0-1.564-1.66.18.18,0,0,1,.128-.337,3.106,3.106,0,0,1,1.783,1.9.181.181,0,0,1-.125.223.184.184,0,0,1-.049.007" transform="translate(-17.354 -67.109)" fill="#d45c48"/>
            <path id="Tracé_58" data-name="Tracé 58" d="M39.286,150.242a.177.177,0,0,1-.1-.029.18.18,0,0,1-.054-.249,1.647,1.647,0,0,1,.677-.545.18.18,0,1,1,.148.329,1.3,1.3,0,0,0-.521.412.181.181,0,0,1-.152.083" transform="translate(-17.719 -67.696)" fill="#d45c48"/>
            <path id="Tracé_59" data-name="Tracé 59" d="M63.422,146.388s1.172-1.562,2.043-.27-.361,5.107-2.494,4.176Z" transform="translate(-28.533 -65.975)" fill="#fb876b"/>
            <path id="Tracé_60" data-name="Tracé 60" d="M63.673,150.248a.18.18,0,0,0,.173-.132,2.787,2.787,0,0,1,1.564-1.66.18.18,0,0,0-.128-.337,3.1,3.1,0,0,0-1.782,1.9.181.181,0,0,0,.125.223.187.187,0,0,0,.049.007" transform="translate(-28.769 -67.109)" fill="#d45c48"/>
            <path id="Tracé_61" data-name="Tracé 61" d="M65.429,150.242a.177.177,0,0,0,.1-.029.18.18,0,0,0,.054-.249,1.642,1.642,0,0,0-.677-.545.18.18,0,1,0-.147.329,1.306,1.306,0,0,1,.521.412.18.18,0,0,0,.151.083" transform="translate(-29.294 -67.696)" fill="#d45c48"/>
            <path id="Tracé_62" data-name="Tracé 62" d="M53.431,160.095v4.014a2.779,2.779,0,0,1-1.884,1.084c-1.759.208-3.665-1.651-3.665-1.651v-3.181Z" transform="translate(-21.696 -72.54)" fill="#fba691"/>
            <path id="Tracé_63" data-name="Tracé 63" d="M53.431,160.095v1.683c-1.027,1.14-2.85,1.424-5.549,1.026v-2.442Z" transform="translate(-21.696 -72.54)" fill="#fb876b"/>
            <path id="Tracé_64" data-name="Tracé 64" d="M40.515,140.86c.015.22.033.443.056.667.057.565.133,1.146.236,1.724,0,.021.007.04.01.058.51,2.8,1.655,5.549,4.124,6.43,5.593,2,7.589-2.8,8.388-5.594.088-.31.168-.656.238-1.024,0-.014.005-.029.009-.046.077-.414.144-.855.2-1.309.043-.336.079-.678.112-1.022.081-.835.135-1.673.169-2.417a3.946,3.946,0,0,0-2.528-3.873,10.544,10.544,0,0,0-9.076.292,3.961,3.961,0,0,0-2.011,3.371c-.014.773,0,1.722.071,2.742" transform="translate(-18.323 -60.518)" fill="#fba691"/>
            <path id="Tracé_65" data-name="Tracé 65" d="M40.578,146.81c.016.22.034.442.056.667.057.566.133,1.146.236,1.724,0,.021.007.04.01.058.51,2.8,1.655,5.549,4.124,6.431,5.592,2,7.589-2.8,8.388-5.594.088-.31.168-.655.238-1.024,0-.014.005-.03.009-.046.078-.414.145-.855.2-1.309.043-.336.079-.678.111-1.022l-.838.219a17.266,17.266,0,0,1-1.067,3.969c-.733-1.789-4.81-.311-4.81-.311s-3.635-1.292-4.866-.008a33.84,33.84,0,0,1-1.105-3.65Zm6.543,4.424c2.934-.4,3.663.348,3.8,1.217a5.042,5.042,0,0,1-2.5,1.5,5.8,5.8,0,0,1-4.534-.964c-.15-.677-.319-2.65,3.234-1.755" transform="translate(-18.386 -66.469)" fill="#2e3062"/>
            <path id="Tracé_66" data-name="Tracé 66" d="M48.506,146.836c0,.405-.209.733-.466.733s-.466-.328-.466-.733.208-.733.466-.733.466.328.466.733" transform="translate(-21.556 -66.2)" fill="#2e3062"/>
            <path id="Tracé_67" data-name="Tracé 67" d="M58.4,146.836c0,.405-.209.733-.467.733s-.466-.328-.466-.733.209-.733.466-.733.467.328.467.733" transform="translate(-26.038 -66.2)" fill="#2e3062"/>
            <path id="Tracé_68" data-name="Tracé 68" d="M58.574,142.6a3.958,3.958,0,0,0-2.6-.092l.113.629a7.255,7.255,0,0,1,2.5.2,1.093,1.093,0,0,0-.01-.737" transform="translate(-25.36 -64.484)" fill="#2e3062"/>
            <path id="Tracé_69" data-name="Tracé 69" d="M45,142.6a3.958,3.958,0,0,1,2.6-.092l-.113.629a7.251,7.251,0,0,0-2.5.2A1.09,1.09,0,0,1,45,142.6" transform="translate(-20.359 -64.484)" fill="#2e3062"/>
            <path id="Tracé_70" data-name="Tracé 70" d="M52.43,150.32a1.9,1.9,0,0,1-.664-.057.18.18,0,1,1,.1-.347,1.083,1.083,0,0,0,.726-.02.2.2,0,0,0,.068-.177,27.328,27.328,0,0,0-.444-2.727.18.18,0,0,1,.353-.073,26.853,26.853,0,0,1,.451,2.794.551.551,0,0,1-.207.468.757.757,0,0,1-.378.141" transform="translate(-23.395 -66.504)" fill="#fb876b"/>
            <path id="Tracé_71" data-name="Tracé 71" d="M48.583,155.235a2.321,2.321,0,0,0,2.287,2.105,2.235,2.235,0,0,0,2.277-2.105Z" transform="translate(-22.013 -70.338)" fill="#fff"/>
            <path id="Tracé_72" data-name="Tracé 72" d="M53.868,140.964h-.817a5.917,5.917,0,0,0-.454-2.472c-.558-1.5.63-2.158-.331-2.908s-3.352-.429-5.016-.483a35.736,35.736,0,0,0-5.015.121c-.655.15-.3,1.236-.056,2.078s-.8,1.77-.977,2.641a3.817,3.817,0,0,0,0,1.023h-.681c-.081-1.06-.093-2.046-.079-2.846a3.962,3.962,0,0,1,2.01-3.371,10.545,10.545,0,0,1,9.076-.292,3.948,3.948,0,0,1,2.529,3.874c-.039.808-.1,1.727-.191,2.635" transform="translate(-18.323 -60.519)" fill="#2e3062"/>
            <path id="Tracé_73" data-name="Tracé 73" d="M54.381,146.329a2.148,2.148,0,1,1,2.148,2.148,2.15,2.15,0,0,1-2.148-2.148m.335,0a1.813,1.813,0,1,0,1.813-1.813,1.815,1.815,0,0,0-1.813,1.813" transform="translate(-24.64 -65.329)" fill="#fff"/>
            <path id="Tracé_74" data-name="Tracé 74" d="M43.647,146.329a2.148,2.148,0,1,1,2.148,2.148,2.15,2.15,0,0,1-2.148-2.148m.335,0a1.813,1.813,0,1,0,1.813-1.813,1.815,1.815,0,0,0-1.813,1.813" transform="translate(-19.777 -65.329)" fill="#fff"/>
            <path id="Tracé_75" data-name="Tracé 75" d="M61.433,145.931a.166.166,0,0,0,.118-.049,2.64,2.64,0,0,1,2.266-.657.167.167,0,0,0,.076-.326,2.932,2.932,0,0,0-2.578.746.167.167,0,0,0,.118.286" transform="translate(-27.76 -65.624)" fill="#fff"/>
            <path id="Tracé_76" data-name="Tracé 76" d="M41.814,145.893a.167.167,0,0,0,.092-.307,4.872,4.872,0,0,0-2.877-.809.167.167,0,1,0,.054.33,4.629,4.629,0,0,1,2.639.759.166.166,0,0,0,.091.027" transform="translate(-17.621 -65.585)" fill="#fff"/>
            <path id="Tracé_77" data-name="Tracé 77" d="M51.06,146.5a1.355,1.355,0,0,1,.924-.543,1.236,1.236,0,0,1,.881.542l.281-.183a1.551,1.551,0,0,0-1.162-.694,1.671,1.671,0,0,0-1.2.682Z" transform="translate(-23.012 -65.982)" fill="#fff"/>
            <path id="Tracé_78" data-name="Tracé 78" d="M89.566,199.483l4.784,3.669a1.379,1.379,0,0,0,1.934-.255l9.294-12.117,3.844-5.011-6.973-5.349-2.277,2.969-10.861,14.16a1.378,1.378,0,0,0,.254,1.934" transform="translate(-40.338 -81.75)" fill="#ffaa01"/>
            <path id="Tracé_79" data-name="Tracé 79" d="M109.408,183.389a19.029,19.029,0,0,0,5.406,7.391l3.844-5.011-6.973-5.349Z" transform="translate(-49.574 -81.75)" fill="#f88800"/>
            <path id="Tracé_80" data-name="Tracé 80" d="M63.134,238.655l.285.219a2.548,2.548,0,0,0,3.573-.471l14.947-19.487L77.61,215.6,62.663,235.083a2.548,2.548,0,0,0,.471,3.572" transform="translate(-28.154 -97.688)" fill="#2e3062"/>
            <path id="Tracé_81" data-name="Tracé 81" d="M104.712,117.384a24.716,24.716,0,1,0,34.677-4.393,24.715,24.715,0,0,0-34.677,4.393m3,2.322a20.925,20.925,0,1,1,3.719,29.358,20.95,20.95,0,0,1-3.719-29.358" transform="translate(-45.098 -48.849)" fill="#2e3062"/>
            <g id="Groupe_5" data-name="Groupe 5" transform="translate(58.222 62.748)" opacity="0.4">
              <g id="Groupe_4" data-name="Groupe 4">
                <g id="Groupe_3" data-name="Groupe 3" clip-path="url(#clip-path-4)">
                  <path id="Tracé_82" data-name="Tracé 82" d="M107.17,130.262a20.817,20.817,0,1,0,.949-2.767,20.949,20.949,0,0,0-.949,2.767" transform="translate(-106.459 -114.736)" fill="#fff"/>
                </g>
              </g>
            </g>
            <g id="Groupe_8" data-name="Groupe 8" transform="translate(69.815 62.748)" opacity="0.4">
              <g id="Groupe_7" data-name="Groupe 7">
                <g id="Groupe_6" data-name="Groupe 6" clip-path="url(#clip-path-5)">
                  <path id="Tracé_83" data-name="Tracé 83" d="M127.658,116.947l20.9,36.143a20.855,20.855,0,0,0,7.571-8.956L139.2,114.852a20.849,20.849,0,0,0-11.539,2.1" transform="translate(-127.658 -114.736)" fill="#fff"/>
                </g>
              </g>
            </g>
            <g id="Groupe_11" data-name="Groupe 11" transform="translate(59.883 69.401)" opacity="0.4">
              <g id="Groupe_10" data-name="Groupe 10">
                <g id="Groupe_9" data-name="Groupe 9" clip-path="url(#clip-path-6)">
                  <path id="Tracé_84" data-name="Tracé 84" d="M109.5,133.007l16.735,28.943a20.757,20.757,0,0,0,7.274-.4L113.469,126.9a20.768,20.768,0,0,0-3.972,6.107" transform="translate(-109.497 -126.9)" fill="#fff"/>
                </g>
              </g>
            </g>
            <path id="Tracé_85" data-name="Tracé 85" d="M70.679,231.377h.842a1.839,1.839,0,0,0,1.662-1.116,11.091,11.091,0,0,1,.492-1.028,4.652,4.652,0,0,1,1.87-1.433c.4-.027.328.722.044,1.05a6.8,6.8,0,0,0-.973,1.209c-.241.464,1.968,1.4,2.865,1.623s2.472-.262,2.625.481-1.028.853-1.028.853.346.67-.634,1.225a.905.905,0,0,1-.459,1.006,1.012,1.012,0,0,1-.664,1.05c-.736.218-3.033.885-7.538-1.85Z" transform="translate(-31.619 -103.218)" fill="#fba691"/>
            <path id="Tracé_86" data-name="Tracé 86" d="M36.154,187.9a40.68,40.68,0,0,0,3.369,9.271,23.782,23.782,0,0,0,5.831,5.676,76.439,76.439,0,0,0,7.1,4.182c-.756.982-1.289,2.923-1,3.5-9.1,0-17.06-8.623-17.06-8.623-6.369-11.082-6.784-20.108-6.679-23.4a6.268,6.268,0,0,1,1.011-3.259,3.246,3.246,0,0,1,1.224-1.188,6.632,6.632,0,0,1,3.678,4.22c.949,3.2,2.52,9.613,2.52,9.613" transform="translate(-12.555 -78.871)" fill="#1e2059"/>
            <path id="Tracé_87" data-name="Tracé 87" d="M113.61,200.958s-2.025-.716-2.955-.329,1.647,1.784,1.647,1.784-3.125-1.664-3.665-.993,2.451,2.373,2.451,2.373-2.29-.8-2.755-.332,1.67,1.807,1.67,1.807-1.88-.454-2.271-.135,1.273,1.657,2.331,2.012,1.227-1.134,1.227-1.134.994-.876.862-1.483c0,0,1.031-.7,1.1-1.407,0,0,1.456-1.282.353-2.162" transform="translate(-48.788 -90.854)" fill="#fba691"/>
            <path id="Tracé_88" data-name="Tracé 88" d="M172.524,359.161c0,2.047-11.448,3.707-25.569,3.707s-25.569-1.66-25.569-3.707,11.448-3.707,25.569-3.707,25.569,1.66,25.569,3.707" transform="translate(-55 -161.059)" fill="#e8e8f9"/>
            <path id="Tracé_89" data-name="Tracé 89" d="M121.9,325.5a13.754,13.754,0,1,1,13.755-13.754A13.77,13.77,0,0,1,121.9,325.5m0-22.033a8.279,8.279,0,1,0,8.279,8.279,8.288,8.288,0,0,0-8.279-8.279" transform="translate(-49.001 -135.023)" fill="#f88800"/>
            <path id="Tracé_90" data-name="Tracé 90" d="M171.406,322.765V279.3c0-5.15-38.113-5.15-38.113,0v43.464c0,3.332,38.113,3.332,38.113,0" transform="translate(-60.396 -124.803)" fill="#fef218"/>
            <path id="Tracé_91" data-name="Tracé 91" d="M171.078,279.662c0,1.231-7.673,2.229-17.14,2.229s-17.139-1-17.139-2.229,7.673-2.229,17.139-2.229,17.14,1,17.14,2.229" transform="translate(-61.985 -125.707)" fill="#2e3062"/>
            <path id="Tracé_92" data-name="Tracé 92" d="M423.41,75.862a2.963,2.963,0,1,1-2.963,2.963,2.967,2.967,0,0,1,2.963-2.963m0,5a2.034,2.034,0,1,0-2.034-2.034,2.036,2.036,0,0,0,2.034,2.034" transform="translate(-190.507 -34.374)" fill="#6b5eff"/>
            <path id="Tracé_93" data-name="Tracé 93" d="M403.905,56.853a2.963,2.963,0,1,1-2.963,2.964,2.967,2.967,0,0,1,2.963-2.964m0,5a2.034,2.034,0,1,0-2.033-2.033,2.036,2.036,0,0,0,2.033,2.033" transform="translate(-181.67 -25.761)" fill="#fef218"/>
            <path id="Tracé_94" data-name="Tracé 94" d="M399.28,39.246a.465.465,0,0,1,.465.465v2.05a.465.465,0,1,1-.93,0v-2.05a.465.465,0,0,1,.465-.465" transform="translate(-180.706 -17.783)" fill="#6b5eff"/>
            <path id="Tracé_95" data-name="Tracé 95" d="M399.28,32.687a.465.465,0,0,1,.465.465V35.2a.465.465,0,1,1-.93,0v-2.05a.465.465,0,0,1,.465-.465" transform="translate(-180.706 -14.811)" fill="#6b5eff"/>
            <path id="Tracé_96" data-name="Tracé 96" d="M394.019,37.841h1.841a.465.465,0,1,1,0,.93h-1.841a.465.465,0,0,1,0-.93" transform="translate(-178.322 -17.146)" fill="#6b5eff"/>
            <path id="Tracé_97" data-name="Tracé 97" d="M401.174,37.841h1.841a.465.465,0,1,1,0,.93h-1.841a.465.465,0,0,1,0-.93" transform="translate(-181.564 -17.146)" fill="#6b5eff"/>
            <path id="Tracé_98" data-name="Tracé 98" d="M429.2,60.249a.465.465,0,0,1,.465.465v2.05a.465.465,0,1,1-.93,0v-2.05a.465.465,0,0,1,.465-.465" transform="translate(-194.262 -27.299)" fill="#fef218"/>
            <path id="Tracé_99" data-name="Tracé 99" d="M429.2,53.689a.465.465,0,0,1,.465.465V56.2a.465.465,0,1,1-.93,0v-2.05a.465.465,0,0,1,.465-.465" transform="translate(-194.262 -24.327)" fill="#fef218"/>
            <path id="Tracé_100" data-name="Tracé 100" d="M423.937,58.843h1.841a.465.465,0,1,1,0,.93h-1.841a.465.465,0,1,1,0-.93" transform="translate(-191.878 -26.662)" fill="#fef218"/>
            <path id="Tracé_101" data-name="Tracé 101" d="M431.093,58.843h1.841a.465.465,0,0,1,0,.93h-1.841a.465.465,0,1,1,0-.93" transform="translate(-195.121 -26.662)" fill="#fef218"/>
            <path id="Tracé_102" data-name="Tracé 102" d="M104.526,46.723a2.963,2.963,0,1,1-2.963-2.963,2.967,2.967,0,0,1,2.963,2.963m-5,0a2.034,2.034,0,1,0,2.034-2.033,2.036,2.036,0,0,0-2.034,2.033" transform="translate(-44.676 -19.828)" fill="#6b5eff"/>
            <path id="Tracé_103" data-name="Tracé 103" d="M124.259,28.826a2.963,2.963,0,1,1-2.963-2.963,2.966,2.966,0,0,1,2.963,2.963m-5,0a2.034,2.034,0,1,0,2.034-2.033,2.036,2.036,0,0,0-2.034,2.033" transform="translate(-53.617 -11.719)" fill="#fef218"/>
            <path id="Tracé_104" data-name="Tracé 104" d="M128.429,56.449a.465.465,0,0,1-.465.465h-2.05a.465.465,0,1,1,0-.93h2.05a.465.465,0,0,1,.465.465" transform="translate(-56.842 -25.367)" fill="#6b5eff"/>
            <path id="Tracé_105" data-name="Tracé 105" d="M134.989,56.449a.465.465,0,0,1-.465.465h-2.05a.465.465,0,0,1,0-.93h2.05a.465.465,0,0,1,.465.465" transform="translate(-59.815 -25.367)" fill="#6b5eff"/>
            <path id="Tracé_106" data-name="Tracé 106" d="M131.534,51.188v1.841a.465.465,0,1,1-.93,0V51.188a.465.465,0,0,1,.93,0" transform="translate(-59.178 -22.983)" fill="#6b5eff"/>
            <path id="Tracé_107" data-name="Tracé 107" d="M131.534,58.343v1.841a.465.465,0,0,1-.93,0V58.343a.465.465,0,0,1,.93,0" transform="translate(-59.178 -26.225)" fill="#6b5eff"/>
            <path id="Tracé_108" data-name="Tracé 108" d="M88.739,27.178a.465.465,0,0,1-.465.465h-2.05a.465.465,0,0,1,0-.93h2.05a.465.465,0,0,1,.465.465" transform="translate(-38.858 -12.104)" fill="#fef218"/>
            <path id="Tracé_109" data-name="Tracé 109" d="M95.3,27.178a.465.465,0,0,1-.465.465h-2.05a.465.465,0,0,1,0-.93h2.05a.464.464,0,0,1,.465.465" transform="translate(-41.831 -12.104)" fill="#fef218"/>
            <path id="Tracé_110" data-name="Tracé 110" d="M91.844,21.916v1.841a.465.465,0,0,1-.93,0V21.916a.465.465,0,1,1,.93,0" transform="translate(-41.194 -9.72)" fill="#fef218"/>
            <path id="Tracé_111" data-name="Tracé 111" d="M91.844,29.072v1.841a.465.465,0,1,1-.93,0V29.072a.465.465,0,0,1,.93,0" transform="translate(-41.194 -12.962)" fill="#fef218"/>
            <path id="Tracé_112" data-name="Tracé 112" d="M11.994,159.868H6.071a3.577,3.577,0,0,1-3.577-3.577v-5.923a3.576,3.576,0,0,1,3.577-3.576h5.923a3.576,3.576,0,0,1,3.577,3.576v5.923a3.577,3.577,0,0,1-3.577,3.577" transform="translate(-1.13 -66.512)" fill="#fef218"/>
            <path id="Tracé_113" data-name="Tracé 113" d="M12.361,155.971a2.816,2.816,0,1,1,3.98-.16,2.82,2.82,0,0,1-3.98.16m3.19-3.456a1.887,1.887,0,1,0,.107,2.667,1.89,1.89,0,0,0-.107-2.667" transform="translate(-5.191 -68.459)" fill="#fff"/>
            <path id="Tracé_114" data-name="Tracé 114" d="M7.3,162.721a.464.464,0,0,1-.026-.656l3.111-3.371a.464.464,0,0,1,.683.63L7.954,162.7a.464.464,0,0,1-.656.026" transform="translate(-3.239 -71.838)" fill="#fff"/>
            <path id="Tracé_115" data-name="Tracé 115" d="M418.7,118.429h-5.923a3.577,3.577,0,0,1-3.577-3.576v-5.924a3.576,3.576,0,0,1,3.577-3.576H418.7a3.576,3.576,0,0,1,3.576,3.576v5.924a3.576,3.576,0,0,1-3.576,3.576" transform="translate(-185.411 -47.736)" fill="#fef218"/>
            <path id="Tracé_116" data-name="Tracé 116" d="M416.584,115.005v-2.5a.422.422,0,0,1,.618-.375l2.447,1.278L422,114.63a.423.423,0,0,1,0,.749l-2.348,1.227-2.447,1.278a.422.422,0,0,1-.618-.375Z" transform="translate(-188.757 -50.783)" fill="#fff"/>
            <path id="Tracé_117" data-name="Tracé 117" d="M303.367,55.25H252.586a6.452,6.452,0,0,1-6.452-6.452v-.91a6.452,6.452,0,0,1,6.452-6.452h50.781a6.452,6.452,0,0,1,6.452,6.452v.91a6.452,6.452,0,0,1-6.452,6.452" transform="translate(-111.525 -18.775)" fill="#ffaa01"/>
            <path id="Tracé_118" data-name="Tracé 118" d="M346.726,46.561a4.1,4.1,0,1,0,4.1,4.1,4.109,4.109,0,0,0-4.1-4.1m.165,5.619V50.743h1.855a5.431,5.431,0,0,1-.219,1.438Zm1.162,1.638a4.558,4.558,0,0,0,.713-1.308h1.25a3.759,3.759,0,0,1-2.457,1.835,4.133,4.133,0,0,0,.494-.528m.361-1.308A4.22,4.22,0,0,1,347.8,53.6a3.435,3.435,0,0,1-.911.831V52.511Zm-1.524-3.866V46.9c.049,0,.1,0,.147.009a5.128,5.128,0,0,1,1.287,1.74Zm1.794,0a5.381,5.381,0,0,0-.553-1.008,5.555,5.555,0,0,0-.519-.639,3.792,3.792,0,0,1,2.3,1.648Zm-1.794,1.768V48.975h1.568a4.709,4.709,0,0,1,.285,1.438Zm2.183,0a5.073,5.073,0,0,0-.265-1.438h1.29a3.719,3.719,0,0,1,.392,1.438Zm1.424.33a3.73,3.73,0,0,1-.317,1.438h-1.311a5.8,5.8,0,0,0,.205-1.438Zm-5.879,1.438H343.27a3.733,3.733,0,0,1-.317-1.438h1.461a5.8,5.8,0,0,0,.206,1.438m.545-3.536a5.034,5.034,0,0,1,.459-.812,4.885,4.885,0,0,1,.833-.931l.1-.006v1.75Zm1.4.33v1.438h-1.815a4.726,4.726,0,0,1,.284-1.438Zm-3.02-.33a3.785,3.785,0,0,1,2.347-1.659,5.622,5.622,0,0,0-.53.651,5.414,5.414,0,0,0-.553,1.008Zm3.02,2.1V52.18h-1.6a5.4,5.4,0,0,1-.219-1.438Zm-3.6-.33a3.725,3.725,0,0,1,.392-1.438h1.328a5.051,5.051,0,0,0-.265,1.438Zm1.763,2.1a4.574,4.574,0,0,0,.713,1.308,4.171,4.171,0,0,0,.506.539,3.811,3.811,0,0,1-2.508-1.846Zm1.838,0v1.9a3.882,3.882,0,0,1-1.485-1.9Z" transform="translate(-155.244 -21.097)" fill="#f88800"/>
            <path id="Tracé_119" data-name="Tracé 119" d="M294.917,46.52a3.9,3.9,0,0,1,0,7.805H255.468a3.9,3.9,0,0,1,0-7.805Zm0-.4H255.468a4.306,4.306,0,1,0,0,8.612h39.448a4.306,4.306,0,1,0,0-8.612" transform="translate(-113.803 -20.895)" fill="#f88800"/>
            <path id="Tracé_120" data-name="Tracé 120" d="M364.2,363.473c0,2.048-12.448,3.707-27.8,3.707s-27.8-1.66-27.8-3.707,12.447-3.707,27.8-3.707,27.8,1.66,27.8,3.707" transform="translate(-139.828 -163.013)" fill="#e8e8f9"/>
            <path id="Tracé_121" data-name="Tracé 121" d="M359.82,330.841h-.04s-4.932-.644-4.932-4.672V298.3h-4.662v27.866c0,4.029-4.932,4.672-4.932,4.672h-.04a4.319,4.319,0,0,0-4.317,4.317h23.24a4.316,4.316,0,0,0-4.317-4.317" transform="translate(-154.462 -135.163)" fill="#542bda"/>
            <path id="Tracé_122" data-name="Tracé 122" d="M365.977,292.479h-44.7a8.554,8.554,0,0,1,8.442-7.03l13.908.037,13.908-.037a8.554,8.554,0,0,1,8.442,7.03" transform="translate(-145.573 -129.339)" fill="#6b5eff"/>
            <path id="Tracé_123" data-name="Tracé 123" d="M336.784,205s-6.79,9.055-7.693,16.952c-.638,5.577,7.693,13.912,7.693,13.912l2.87-1.428-2.861-6.451c-1.018-3.141-2.271-4.383-1.345-7.553l2.072-4.467Z" transform="translate(-149.098 -92.888)" fill="#1e2059"/>
            <path id="Tracé_124" data-name="Tracé 124" d="M379.957,204.752s6.7,9.655,7.257,17.584c.478,6.836-7.725,13.416-7.725,13.416l-2.37-1.18,3.281-6.517c1.018-3.141,1.5-5.036.114-8.454l-1.762-3.748Z" transform="translate(-170.875 -92.775)" fill="#1e2059"/>
            <path id="Tracé_125" data-name="Tracé 125" d="M341.987,223.591l-4.5,14.317s19.485,2.486,25.444.877L359.9,223.192l2.1-20.359a29,29,0,0,0-9.164-2.242c-4.608-.333-7.519.428-12.231,2.379Z" transform="translate(-152.918 -90.855)" fill="#6b5eff"/>
            <path id="Tracé_126" data-name="Tracé 126" d="M353.526,209.561a20.32,20.32,0,0,0,8.48-3.592.24.24,0,1,0-.287-.384c-.047.035-4.754,3.507-9.28,3.568a.24.24,0,1,0,.007.48,10.5,10.5,0,0,0,1.081-.072" transform="translate(-159.585 -93.13)" fill="#542bda"/>
            <path id="Tracé_127" data-name="Tracé 127" d="M360.956,353.154l.351,3.161,3.363.077.282-2.623Z" transform="translate(-163.552 -160.016)" fill="#fba691"/>
            <path id="Tracé_128" data-name="Tracé 128" d="M348.733,261.476s-8.707-.479-11.655,1.934-2.356,9.336.648,11.227,8.125,5.605,8.125,5.605l3.258,32.384,4.3.147s3.966-32.531,1.956-38.831a49.682,49.682,0,0,0-6.635-12.466" transform="translate(-151.857 -118.459)" fill="#1e2059"/>
            <path id="Tracé_129" data-name="Tracé 129" d="M364.949,352.315a3.6,3.6,0,0,1-.111,2.218l-4.953-.11a5.682,5.682,0,0,1-.1-2.172Z" transform="translate(-162.995 -159.607)" fill="#2e3062"/>
            <path id="Tracé_130" data-name="Tracé 130" d="M361.82,249.135H338.973l-2.112-12.347a1.751,1.751,0,0,1,1.726-2.046h23.619a1.751,1.751,0,0,1,1.726,2.046Z" transform="translate(-152.623 -106.363)" fill="#ffaa01"/>
            <path id="Tracé_131" data-name="Tracé 131" d="M361.633,263.745h-18.91a1.98,1.98,0,0,1-1.98-1.98v-.705h22.871v.705a1.98,1.98,0,0,1-1.98,1.98" transform="translate(-154.393 -118.288)" fill="#f88800"/>
            <path id="Tracé_132" data-name="Tracé 132" d="M362.066,247.188a1.984,1.984,0,1,1-1.985-1.985,1.985,1.985,0,0,1,1.985,1.985" transform="translate(-162.256 -111.103)" fill="#fdcc50"/>
            <path id="Tracé_133" data-name="Tracé 133" d="M334.227,336.9l-.745,3.129,3.017.6,1.229-2.794Z" transform="translate(-151.103 -152.65)" fill="#fba691"/>
            <path id="Tracé_134" data-name="Tracé 134" d="M352.842,260.131s-5.831-2.011-9.249,2.212-9.142,39.866-9.142,39.866l3.924,1.619,12.614-31.655s10.272,5.862,11.516-2.471c.985-6.594-9.663-9.571-9.663-9.571" transform="translate(-151.542 -117.65)" fill="#2e3062"/>
            <path id="Tracé_135" data-name="Tracé 135" d="M338.573,336.01a3.713,3.713,0,0,1-.825,2.139l-4.822-1.705a5.882,5.882,0,0,1,.606-2.162Z" transform="translate(-150.851 -151.466)" fill="#524e84"/>
            <path id="Tracé_136" data-name="Tracé 136" d="M328.6,340.817a18.385,18.385,0,0,0-2.367-1.034c-.538-.106-4.984,3.048-6.243,3.018-2.284-.056-3.016,3.3-1.717,3.754,3.755,1.32,10.7,1.157,10.7,1.157a30.73,30.73,0,0,0,1.572-5.58c.029-1.408-.957-.683-1.949-1.314" transform="translate(-143.924 -153.957)" fill="#ffaa01"/>
            <path id="Tracé_137" data-name="Tracé 137" d="M327.975,345.182a.276.276,0,0,0,.215.007.265.265,0,0,0,.152-.347,4.169,4.169,0,0,0-1.209-1.642,1.916,1.916,0,0,0-1.928-.185.264.264,0,0,0-.108.363.278.278,0,0,0,.371.109,1.368,1.368,0,0,1,1.355.153,3.691,3.691,0,0,1,1.011,1.4.272.272,0,0,0,.141.145" transform="translate(-147.288 -155.342)" fill="#fff"/>
            <path id="Tracé_138" data-name="Tracé 138" d="M329.642,344.026a.278.278,0,0,0,.215.007.265.265,0,0,0,.152-.348,4.175,4.175,0,0,0-1.209-1.641,1.916,1.916,0,0,0-1.929-.186.264.264,0,0,0-.107.363.276.276,0,0,0,.371.109,1.367,1.367,0,0,1,1.355.153,3.671,3.671,0,0,1,1.011,1.4.271.271,0,0,0,.141.145" transform="translate(-148.044 -154.818)" fill="#fff"/>
            <path id="Tracé_139" data-name="Tracé 139" d="M325.82,346.006a.276.276,0,0,0,.215.007.265.265,0,0,0,.152-.348,4.18,4.18,0,0,0-1.209-1.641,1.915,1.915,0,0,0-1.929-.186.264.264,0,0,0-.108.363.277.277,0,0,0,.371.109,1.367,1.367,0,0,1,1.355.153,3.67,3.67,0,0,1,1.011,1.4.273.273,0,0,0,.141.145" transform="translate(-146.312 -155.715)" fill="#fff"/>
            <path id="Tracé_140" data-name="Tracé 140" d="M362.243,358.213a17.461,17.461,0,0,1,2.395-.578c.523-.01,4.175,3.69,5.363,3.87,2.154.327,2.285,3.6.99,3.811-3.746.617-10.246-.69-10.246-.69a29.34,29.34,0,0,1-.551-5.5c.206-1.327,1.012-.482,2.049-.911" transform="translate(-163.191 -162.047)" fill="#ffaa01"/>
            <path id="Tracé_141" data-name="Tracé 141" d="M369.654,363.445a.264.264,0,0,1-.2-.03.253.253,0,0,1-.085-.352,3.988,3.988,0,0,1,1.408-1.341,1.828,1.828,0,0,1,1.842.145.252.252,0,0,1,.041.359.265.265,0,0,1-.367.04,1.3,1.3,0,0,0-1.3-.081,3.521,3.521,0,0,0-1.182,1.145.26.26,0,0,1-.156.113" transform="translate(-167.345 -163.817)" fill="#fff"/>
            <path id="Tracé_142" data-name="Tracé 142" d="M368.28,362.082a.264.264,0,0,1-.2-.03.252.252,0,0,1-.085-.352,3.981,3.981,0,0,1,1.407-1.342,1.825,1.825,0,0,1,1.843.146.252.252,0,0,1,.041.359.264.264,0,0,1-.367.04,1.3,1.3,0,0,0-1.3-.081,3.5,3.5,0,0,0-1.182,1.145.257.257,0,0,1-.156.113" transform="translate(-166.722 -163.199)" fill="#fff"/>
            <path id="Tracé_143" data-name="Tracé 143" d="M371.541,364.577a.264.264,0,0,1-.2-.029.253.253,0,0,1-.085-.352,3.989,3.989,0,0,1,1.408-1.342A1.824,1.824,0,0,1,374.5,363a.252.252,0,0,1,.041.359.264.264,0,0,1-.367.04,1.306,1.306,0,0,0-1.3-.081,3.5,3.5,0,0,0-1.182,1.145.26.26,0,0,1-.156.113" transform="translate(-168.2 -164.329)" fill="#fff"/>
            <path id="Tracé_144" data-name="Tracé 144" d="M348.818,174.471s-2.8-4.778-.438-8.468,7.364-3.341,8.661-3.051,8.763,3.791,4.247,12.281Z" transform="translate(-157.425 -73.759)" fill="#2e3062"/>
            <path id="Tracé_145" data-name="Tracé 145" d="M348.958,181.055s-1.132-1.508-1.973-.261.348,4.931,2.408,4.032Z" transform="translate(-157.098 -81.695)" fill="#fb876b"/>
            <path id="Tracé_146" data-name="Tracé 146" d="M349.309,184.781a.174.174,0,0,1-.167-.127,2.7,2.7,0,0,0-1.509-1.6.174.174,0,1,1,.123-.325,3,3,0,0,1,1.722,1.835.175.175,0,0,1-.121.214.177.177,0,0,1-.047.007" transform="translate(-157.464 -82.789)" fill="#d45c48"/>
            <path id="Tracé_147" data-name="Tracé 147" d="M348.472,184.775a.17.17,0,0,1-.094-.028.174.174,0,0,1-.052-.241,1.592,1.592,0,0,1,.653-.527.174.174,0,1,1,.142.318,1.258,1.258,0,0,0-.5.4.173.173,0,0,1-.147.08" transform="translate(-157.816 -83.355)" fill="#d45c48"/>
            <path id="Tracé_148" data-name="Tracé 148" d="M371.776,181.055s1.132-1.508,1.973-.261-.348,4.931-2.408,4.032Z" transform="translate(-168.257 -81.695)" fill="#fb876b"/>
            <path id="Tracé_149" data-name="Tracé 149" d="M372.02,184.781a.174.174,0,0,0,.167-.127,2.7,2.7,0,0,1,1.509-1.6.174.174,0,1,0-.123-.325,3,3,0,0,0-1.722,1.835.174.174,0,0,0,.121.214.177.177,0,0,0,.047.007" transform="translate(-168.486 -82.789)" fill="#d45c48"/>
            <path id="Tracé_150" data-name="Tracé 150" d="M373.716,184.775a.17.17,0,0,0,.094-.028.174.174,0,0,0,.052-.241,1.591,1.591,0,0,0-.653-.527.174.174,0,1,0-.142.318,1.258,1.258,0,0,1,.5.4.173.173,0,0,0,.147.08" transform="translate(-168.992 -83.355)" fill="#d45c48"/>
            <path id="Tracé_151" data-name="Tracé 151" d="M362.13,194.29v3.664s-1.093,1.865-2.57,1.993-2.788-1.607-2.788-1.607v-3.793Z" transform="translate(-161.656 -88.034)" fill="#fba691"/>
            <path id="Tracé_152" data-name="Tracé 152" d="M362.13,194.29v1.626c-.992,1.1-2.753,1.375-5.358.99v-2.359Z" transform="translate(-161.656 -88.034)" fill="#fb876b"/>
            <path id="Tracé_153" data-name="Tracé 153" d="M362.736,173.271a35.593,35.593,0,0,1-.475,4.628c-.068.355-.144.689-.23.988-.771,2.7-2.7,7.33-8.1,5.4-2.384-.851-3.49-3.507-3.983-6.208a26.147,26.147,0,0,1-.36-5.013,3.826,3.826,0,0,1,1.941-3.255,10.183,10.183,0,0,1,8.764-.282,3.813,3.813,0,0,1,2.442,3.741" transform="translate(-158.399 -76.425)" fill="#fba691"/>
            <path id="Tracé_154" data-name="Tracé 154" d="M358.816,166.94s7.124,11.428,8.107,7.236c1.392-5.94-2.864-9.615-8.107-7.236" transform="translate(-162.582 -75.31)" fill="#2e3062"/>
            <path id="Tracé_155" data-name="Tracé 155" d="M353.528,167.545c-4.741.035-7.1,5.422-4.9,6.06,3.059.888,5.713-3.443,6.529-4.946-.549-.362-1.1-.724-1.629-1.114" transform="translate(-157.59 -75.916)" fill="#2e3062"/>
            <path id="Tracé_156" data-name="Tracé 156" d="M366.3,158.975a4.689,4.689,0,1,1-4.689-4.689,4.69,4.69,0,0,1,4.689,4.689" transform="translate(-161.724 -69.908)" fill="#2e3062"/>
            <path id="Tracé_157" data-name="Tracé 157" d="M350.292,177.59a3.97,3.97,0,0,1-.135,2.4c-.5.964-.227,2.616,0,4.472a5.712,5.712,0,0,1-.847-2.944c-.046-1.813.249-3.321,0-4.046Z" transform="translate(-158.272 -80.412)" fill="#2e3062"/>
            <path id="Tracé_158" data-name="Tracé 158" d="M371.472,177.59a3.97,3.97,0,0,0,.135,2.4c.5.964.228,2.616,0,4.472a5.711,5.711,0,0,0,.847-2.944c.047-1.813-.25-3.321,0-4.046Z" transform="translate(-168.257 -80.412)" fill="#2e3062"/>
            <path id="Tracé_159" data-name="Tracé 159" d="M356.384,182.127c0,.391-.2.708-.45.708s-.451-.317-.451-.708.2-.708.451-.708.45.317.45.708" transform="translate(-161.072 -82.202)" fill="#2e3062"/>
            <path id="Tracé_160" data-name="Tracé 160" d="M366.55,182.127c0,.391-.2.708-.45.708s-.45-.317-.45-.708.2-.708.45-.708.45.317.45.708" transform="translate(-165.679 -82.202)" fill="#2e3062"/>
            <path id="Tracé_161" data-name="Tracé 161" d="M354.076,177.979A7.515,7.515,0,0,1,356,177.69a.334.334,0,0,1,.333.392v.005a.333.333,0,0,1-.344.273,8.45,8.45,0,0,0-2.637.323.5.5,0,0,1,.153-.358,1.158,1.158,0,0,1,.57-.347" transform="translate(-160.106 -80.513)" fill="#2e3062"/>
            <path id="Tracé_162" data-name="Tracé 162" d="M366.1,178.006a7.539,7.539,0,0,0-1.926-.289.334.334,0,0,0-.333.392v.005a.333.333,0,0,0,.344.273,8.457,8.457,0,0,1,2.638.323.506.506,0,0,0-.154-.358,1.161,1.161,0,0,0-.57-.347" transform="translate(-164.857 -80.525)" fill="#2e3062"/>
            <path id="Tracé_163" data-name="Tracé 163" d="M361.052,185.16a.734.734,0,0,1-.379-.09.533.533,0,0,1-.253-.425,25.909,25.909,0,0,1,.1-2.73.174.174,0,0,1,.347.028,26.324,26.324,0,0,0-.106,2.666.189.189,0,0,0,.086.162,1.043,1.043,0,0,0,.7-.066.174.174,0,0,1,.132.322,1.848,1.848,0,0,1-.63.133" transform="translate(-163.302 -82.354)" fill="#fb876b"/>
            <path id="Tracé_164" data-name="Tracé 164" d="M357.546,189.991a2.073,2.073,0,0,0,2.042,1.88,2,2,0,0,0,2.034-1.88Z" transform="translate(-162.007 -86.086)" fill="#f6f6f6"/>
            <path id="Tracé_165" data-name="Tracé 165" d="M360.5,194.821a1.738,1.738,0,0,1-.816-.239.174.174,0,0,1,.183-.3,1.408,1.408,0,0,0,.634.186,1.474,1.474,0,0,0,.668-.188.174.174,0,0,1,.18.3,1.814,1.814,0,0,1-.848.238" transform="translate(-162.936 -88.021)" fill="#fb876b"/>
          </g>
        </g>
      </g>
    </g>
  </g>
</svg>
